<svg width="1183" height="425" viewBox="0 0 1183 425" fill="none" xmlns="http://www.w3.org/2000/svg">
<path d="M1178 423V257C1180 230.333 1170.3 177 1115.5 177C1060.7 177 798.667 177 674.5 177M621.5 177H523.5M464 177C338.333 177 78.4 177 44 177C1.00002 177 2.00002 150 2.00002 111C2.00002 79.8 2.00002 25.3333 2.00002 2" stroke="#346FD9" stroke-width="3" stroke-linecap="round"/>
<circle cx="1178" cy="377" r="5" fill="url(#paint0_linear)"/>
<circle cx="941" cy="177" r="5" transform="rotate(-90 941 177)" fill="url(#paint1_linear)"/>
<circle cx="1178" cy="364" r="5" fill="url(#paint2_linear)"/>
<circle cx="928" cy="177" r="5" transform="rotate(-90 928 177)" fill="url(#paint3_linear)"/>
<circle cx="1178" cy="351" r="5" fill="url(#paint4_linear)"/>
<circle cx="915" cy="177" r="5" transform="rotate(-90 915 177)" fill="url(#paint5_linear)"/>
<defs>
<linearGradient id="paint0_linear" x1="1181.16" y1="380.809" x2="1171.67" y2="379.576" gradientUnits="userSpaceOnUse">
<stop stop-color="#AABEF3"/>
<stop offset="0.3907" stop-color="#81A0F3"/>
<stop offset="1" stop-color="#346FD9"/>
</linearGradient>
<linearGradient id="paint1_linear" x1="944.157" y1="180.809" x2="934.671" y2="179.576" gradientUnits="userSpaceOnUse">
<stop stop-color="#AABEF3"/>
<stop offset="0.3907" stop-color="#81A0F3"/>
<stop offset="1" stop-color="#346FD9"/>
</linearGradient>
<linearGradient id="paint2_linear" x1="1181.16" y1="367.809" x2="1171.67" y2="366.576" gradientUnits="userSpaceOnUse">
<stop stop-color="#AABEF3"/>
<stop offset="0.3907" stop-color="#81A0F3"/>
<stop offset="1" stop-color="#346FD9"/>
</linearGradient>
<linearGradient id="paint3_linear" x1="931.157" y1="180.809" x2="921.671" y2="179.576" gradientUnits="userSpaceOnUse">
<stop stop-color="#AABEF3"/>
<stop offset="0.3907" stop-color="#81A0F3"/>
<stop offset="1" stop-color="#346FD9"/>
</linearGradient>
<linearGradient id="paint4_linear" x1="1181.16" y1="354.809" x2="1171.67" y2="353.576" gradientUnits="userSpaceOnUse">
<stop stop-color="#AABEF3"/>
<stop offset="0.3907" stop-color="#81A0F3"/>
<stop offset="1" stop-color="#346FD9"/>
</linearGradient>
<linearGradient id="paint5_linear" x1="918.157" y1="180.809" x2="908.671" y2="179.576" gradientUnits="userSpaceOnUse">
<stop stop-color="#AABEF3"/>
<stop offset="0.3907" stop-color="#81A0F3"/>
<stop offset="1" stop-color="#346FD9"/>
</linearGradient>
</defs>
</svg>
