<svg width="107" height="97" viewBox="0 0 107 97" fill="none" xmlns="http://www.w3.org/2000/svg">
<path d="M87.6319 44.3466C87.7184 44.1735 87.8048 44.0005 87.8913 43.8274C87.9778 43.6111 88.1075 43.3948 88.1939 43.1784C88.2804 43.0054 88.3669 42.8323 88.4533 42.6593C88.5398 42.4429 88.6263 42.2266 88.7127 42.0535C88.7992 41.8805 88.8424 41.7074 88.9289 41.5344C89.0153 41.318 89.1018 41.1017 89.145 40.8854C89.1883 40.7123 89.2747 40.5825 89.318 40.4095C89.4044 40.1932 89.4477 39.9768 89.5341 39.7605C89.5774 39.6307 89.6206 39.5009 89.6638 39.3279C89.7503 39.0683 89.7935 38.8519 89.8368 38.6356C89.88 38.5058 89.88 38.4193 89.9232 38.2895C90.0097 37.9434 90.0529 37.5973 90.0961 37.2944C90.4852 34.7418 90.0097 32.7948 88.8857 31.4536L76.8238 16.8734C77.9479 18.2146 78.3802 20.1615 78.0343 22.7141C77.9911 23.0602 77.9046 23.3631 77.8614 23.7092C77.8182 23.839 77.8182 23.9255 77.7749 24.0553C77.7317 24.2717 77.6452 24.5312 77.602 24.7476C77.5588 24.8774 77.5155 25.0072 77.4723 25.1802C77.3858 25.3965 77.3426 25.6129 77.2561 25.8292C77.2129 26.0023 77.1265 26.132 77.0832 26.3051C76.9968 26.5214 76.9535 26.7378 76.8671 26.9541C76.8238 27.1271 76.7374 27.3002 76.6509 27.4733C76.5644 27.6896 76.478 27.9059 76.3915 28.1222C76.305 28.2953 76.2186 28.4684 76.1321 28.6414C76.0456 28.8577 75.9592 29.0741 75.8295 29.2904C75.743 29.4634 75.6566 29.6365 75.5701 29.8096C75.4404 30.0259 75.3539 30.2422 75.2242 30.4585C75.1378 30.6316 75.0081 30.8479 74.9216 31.021C74.7919 31.2373 74.7054 31.4536 74.5757 31.67C74.5325 31.7565 74.4461 31.8863 74.4028 31.9728C74.2299 32.2757 74.057 32.5353 73.884 32.8381C73.7976 32.9679 73.7111 33.141 73.5814 33.2708C73.4085 33.5304 73.2788 33.7899 73.1059 34.0495C73.0194 34.1361 72.9762 34.2659 72.8897 34.3524C72.7168 34.6552 72.5006 34.9148 72.3277 35.2177C72.2412 35.3475 72.1547 35.434 72.1115 35.5638C71.9818 35.7369 71.8521 35.9099 71.7224 36.083C71.463 36.4291 71.2469 36.7752 70.9875 37.1213C70.8578 37.2944 70.7281 37.4675 70.5984 37.6405C70.3822 37.9434 70.166 38.203 69.9499 38.5058C69.8202 38.6789 69.6473 38.8519 69.5176 39.025C69.3014 39.2846 69.0852 39.5442 68.8691 39.8038C68.6962 39.9768 68.5665 40.1499 68.3935 40.3662C68.1774 40.5825 68.0044 40.8421 67.7883 41.0585C67.6153 41.2748 67.4424 41.4478 67.2695 41.6642C67.0966 41.8805 66.9236 42.0535 66.7507 42.2699C66.5345 42.4862 66.3616 42.7025 66.1454 42.9188C65.9725 43.0919 65.7996 43.3082 65.6267 43.4813C65.4105 43.6976 65.1943 43.9572 64.9782 44.1735C64.8052 44.3466 64.6323 44.5196 64.4594 44.6927C64.2432 44.909 63.9838 45.1686 63.7677 45.3849C63.5947 45.558 63.4218 45.7311 63.2489 45.9041C63.0327 46.1204 62.7733 46.38 62.5139 46.5964C62.341 46.7694 62.1681 46.8992 61.9951 47.0723C61.7357 47.3319 61.4764 47.5482 61.217 47.8078C61.0873 47.9376 60.9143 48.1106 60.7846 48.2404C60.482 48.5 60.1794 48.8029 59.8768 49.0625C59.7471 49.149 59.6606 49.2788 59.5309 49.3653C59.1418 49.7547 58.7095 50.1008 58.2772 50.4469C58.1907 50.5335 58.1042 50.62 58.0178 50.7065C57.6719 51.0094 57.326 51.269 57.0234 51.5718C56.8937 51.6584 56.8073 51.7882 56.6776 51.8747C56.2452 52.2208 55.8561 52.5669 55.4238 52.913C55.4238 52.913 55.4238 52.913 55.3806 52.9563C54.9483 53.3024 54.5159 53.6485 54.0836 53.9514C53.9972 54.0379 53.8675 54.1245 53.781 54.211C53.3487 54.5571 52.9164 54.86 52.484 55.2061C52.4408 55.2493 52.3543 55.2926 52.3111 55.3359C51.922 55.6387 51.5329 55.8983 51.1438 56.2012C51.0141 56.2877 50.8844 56.4175 50.7547 56.504C50.4521 56.7204 50.1495 56.9367 49.8469 57.153C49.6307 57.2828 49.4578 57.4126 49.2416 57.5857C49.0254 57.7587 48.7661 57.8885 48.5499 58.0616C48.204 58.2779 47.9014 58.4942 47.5555 58.7105C47.2529 58.9269 46.9503 59.0999 46.6477 59.3163C46.518 59.4028 46.345 59.4893 46.2153 59.6191C45.7398 59.922 45.2642 60.2248 44.7887 60.5277C44.3563 60.7873 43.924 61.0469 43.5349 61.2632C43.4052 61.3497 43.2755 61.4362 43.1026 61.4795C42.8 61.6526 42.5406 61.7824 42.238 61.9554C42.1083 62.0419 41.9786 62.1285 41.8056 62.1717C41.503 62.3448 41.1572 62.5179 40.8545 62.6909C40.7248 62.7774 40.5519 62.864 40.4222 62.9072C40.1196 63.0803 39.7737 63.2534 39.4711 63.3832C39.3414 63.4264 39.2117 63.5129 39.082 63.5562C38.6497 63.7725 38.2606 63.9456 37.8283 64.1619C37.8283 64.1619 37.785 64.1619 37.785 64.2052C37.3959 64.3782 37.0069 64.5513 36.6178 64.7244C36.4881 64.7676 36.3584 64.8109 36.2719 64.8974C35.9693 65.0272 35.6667 65.157 35.4073 65.2868C35.2776 65.3301 35.1479 65.4166 34.9749 65.4599C34.6723 65.5897 34.4129 65.6762 34.1535 65.806C34.0238 65.8493 33.8941 65.8925 33.7644 65.9358C33.4618 66.0223 33.2024 66.1521 32.943 66.2386C32.8566 66.2819 32.7701 66.2819 32.6836 66.3252C32.3378 66.455 31.9487 66.5848 31.6028 66.6713C31.4299 66.7146 31.3002 66.7578 31.1273 66.8011C30.9543 66.8443 30.7814 66.8876 30.6517 66.9309C30.4788 66.9741 30.3491 67.0174 30.2194 67.0607C30.0465 67.1039 29.9168 67.1472 29.7438 67.1905C29.4412 67.277 29.1818 67.3203 28.8792 67.4068C28.8359 67.4068 28.7927 67.4068 28.7495 67.4501C28.5333 67.4933 28.2739 67.5366 28.0578 67.5799C27.6687 67.6664 27.2796 67.7097 26.8905 67.7529C26.804 67.7529 26.7176 67.7962 26.6311 67.7962C26.2852 67.8394 25.9826 67.8827 25.68 67.8827C25.6368 67.8827 25.5935 67.8827 25.5503 67.8827C25.2477 67.926 24.945 67.926 24.6424 67.926C24.5559 67.926 24.4695 67.926 24.383 67.926C24.1669 67.926 23.9507 67.926 23.7345 67.926C23.6481 67.926 23.5616 67.926 23.4751 67.926C23.259 67.926 23.0428 67.8827 22.8267 67.8827C22.7834 67.8827 22.697 67.8827 22.6537 67.8827C22.3943 67.8394 22.1782 67.7962 21.9188 67.7529C21.8755 67.7529 21.7891 67.7096 21.7458 67.7096C21.5729 67.6664 21.4 67.6231 21.2271 67.5799C21.1406 67.5799 21.0541 67.5366 21.0109 67.4933C20.8812 67.4501 20.7515 67.4068 20.6218 67.3635C20.5353 67.3203 20.4921 67.3203 20.4056 67.277C20.2759 67.2337 20.1462 67.1472 20.0166 67.1039C19.9733 67.0607 19.8869 67.0607 19.8436 67.0174C19.6707 66.9309 19.4978 66.8011 19.3248 66.7146C19.3248 66.7146 19.2816 66.7146 19.2816 66.6713C19.1087 66.5848 18.979 66.455 18.8493 66.3252C18.806 66.2819 18.7628 66.2386 18.7196 66.1954C18.6331 66.1088 18.5034 66.0223 18.417 65.8925C18.3305 65.806 18.244 65.7195 18.1576 65.6329L30.2194 80.17C30.2626 80.2132 30.3058 80.2997 30.3923 80.343C30.4355 80.3863 30.4355 80.3863 30.4788 80.4295C30.5652 80.5161 30.6949 80.6459 30.7814 80.7324C30.8246 80.7757 30.8246 80.7757 30.8679 80.8189L30.9111 80.8622C31.0408 80.992 31.2137 81.0785 31.3434 81.2083C31.3434 81.2083 31.3434 81.2083 31.3867 81.2516C31.5596 81.3814 31.7325 81.4679 31.9054 81.5544C31.9054 81.5544 31.9487 81.5544 31.9487 81.5977C31.9919 81.641 32.0351 81.641 32.0784 81.641C32.2081 81.6842 32.3378 81.7708 32.4675 81.814C32.5107 81.814 32.5107 81.8573 32.5539 81.8573C32.5972 81.8573 32.6404 81.9006 32.6836 81.9006C32.8133 81.9438 32.943 81.9871 33.0727 82.0303C33.1159 82.0303 33.1592 82.0736 33.2024 82.0736C33.2456 82.0736 33.2456 82.0736 33.2889 82.1169C33.4618 82.1601 33.6347 82.2034 33.8077 82.2467C33.8509 82.2467 33.8941 82.2899 33.9374 82.2899H33.9806C34.1968 82.3332 34.4562 82.3765 34.7155 82.4197C34.7155 82.4197 34.7155 82.4197 34.7588 82.4197C34.802 82.4197 34.8452 82.4197 34.8885 82.4197C35.1046 82.463 35.3208 82.463 35.537 82.463C35.5802 82.463 35.6234 82.463 35.6234 82.463C35.6667 82.463 35.7099 82.463 35.7964 82.463C36.0125 82.463 36.2287 82.463 36.4448 82.463C36.4881 82.463 36.5313 82.463 36.6178 82.463C36.661 82.463 36.661 82.463 36.7042 82.463C37.0069 82.463 37.3095 82.463 37.6121 82.4197C37.6121 82.4197 37.6121 82.4197 37.6553 82.4197C37.6986 82.4197 37.6986 82.4197 37.7418 82.4197C38.0444 82.3765 38.3903 82.3765 38.6929 82.3332C38.7361 82.3332 38.7794 82.3332 38.8226 82.3332C38.8658 82.3332 38.9091 82.3332 38.9523 82.3332C39.3414 82.2899 39.7305 82.2034 40.1196 82.1601H40.1628C40.379 82.1169 40.5951 82.0736 40.8113 82.0303C40.8545 82.0303 40.8978 82.0303 40.8978 81.9871C41.1572 81.9438 41.4166 81.8573 41.7192 81.814H41.7624C41.9353 81.7708 42.065 81.7275 42.238 81.6842C42.4109 81.641 42.5406 81.5977 42.7135 81.5544C42.8865 81.5112 43.0161 81.4679 43.1891 81.4246C43.3188 81.3814 43.4485 81.3381 43.6214 81.2948H43.6646C44.0105 81.165 44.3564 81.0785 44.7454 80.9487C44.8319 80.9055 44.9184 80.9054 45.0048 80.8622C45.2642 80.7757 45.5669 80.6459 45.8263 80.5593C45.8695 80.5593 45.9127 80.5161 45.9559 80.5161C46.0424 80.4728 46.1289 80.4295 46.2153 80.4295C46.4747 80.343 46.7774 80.2132 47.08 80.0834C47.2097 80.0402 47.3394 79.9536 47.5123 79.9104C47.8149 79.7806 48.0743 79.6508 48.377 79.521C48.4634 79.4777 48.5499 79.4344 48.6364 79.3912C48.6796 79.3912 48.7228 79.3479 48.7228 79.3479C49.1119 79.1749 49.501 79.0018 49.8901 78.8287C49.8901 78.8287 49.9333 78.8287 49.9333 78.7855C50.3224 78.6124 50.7547 78.3961 51.1871 78.1798C51.2303 78.1798 51.2735 78.1365 51.2735 78.1365C51.36 78.0932 51.4464 78.05 51.5329 78.0067C51.8355 77.8336 52.1814 77.7038 52.484 77.5308C52.6137 77.4443 52.7867 77.3577 52.9164 77.2712C53.219 77.0981 53.5648 76.9251 53.8675 76.752C53.9539 76.7088 54.0404 76.6655 54.1701 76.579C54.2133 76.5357 54.2566 76.5357 54.2998 76.4924C54.5592 76.3194 54.8618 76.1896 55.1644 76.0165C55.2941 75.93 55.4238 75.8435 55.5968 75.8002C56.0291 75.5406 56.4614 75.3243 56.8505 75.0647C57.326 74.7618 57.8016 74.459 58.2772 74.1561C58.4069 74.0696 58.5798 73.9831 58.7095 73.8533C58.9256 73.7235 59.1418 73.5937 59.358 73.4639C59.4444 73.4206 59.5309 73.3341 59.6606 73.2908C60.0065 73.0745 60.3091 72.8582 60.6549 72.6418C60.8279 72.5553 60.9576 72.4255 61.1305 72.339C61.217 72.2957 61.3034 72.2525 61.3467 72.1659C61.5628 72.0361 61.7357 71.9063 61.9519 71.7333C62.1248 71.6035 62.2978 71.4737 62.5139 71.3439C62.6436 71.2574 62.7733 71.1708 62.8598 71.0843C62.9895 70.9978 63.1192 70.868 63.2489 70.7815C63.3786 70.6949 63.465 70.6084 63.5947 70.5219C63.8541 70.3055 64.1568 70.0892 64.4161 69.9162C64.4594 69.8729 64.5458 69.8296 64.5891 69.7864L64.6323 69.7431C64.9349 69.4835 65.2808 69.2672 65.5834 69.0076C65.6699 68.9211 65.7996 68.8345 65.886 68.7913C65.9725 68.7047 66.1022 68.6182 66.1887 68.5317C66.3184 68.4452 66.4048 68.3586 66.5345 68.2721C66.8372 68.0125 67.1398 67.7962 67.4424 67.5366C67.4424 67.5366 67.4856 67.5366 67.4856 67.4933C67.7883 67.2337 68.1341 66.9741 68.4368 66.7146C68.5232 66.628 68.6529 66.5415 68.7394 66.455C68.8691 66.3684 68.9555 66.2386 69.0852 66.1521C69.2149 66.0656 69.3014 65.9358 69.4311 65.8493C69.6473 65.6762 69.8634 65.4599 70.0796 65.2868C70.166 65.2003 70.2525 65.1138 70.339 65.0705C70.3822 65.0272 70.4254 65.0272 70.4254 64.984C70.7713 64.6811 71.1172 64.3783 71.463 64.0321C71.5063 63.9889 71.5063 63.9889 71.5495 63.9456C71.6792 63.8591 71.7656 63.7293 71.8953 63.6427C72.1115 63.4264 72.3709 63.2101 72.5871 63.037C72.6735 62.9505 72.7168 62.9072 72.8032 62.8207C72.9761 62.6909 73.1058 62.5179 73.2788 62.3881C73.4085 62.2583 73.5814 62.1285 73.7111 61.9987C73.8408 61.9122 73.9273 61.7824 74.057 61.6526C74.2299 61.4795 74.4028 61.3497 74.5757 61.1766C74.6622 61.0901 74.7919 60.9603 74.8784 60.8738C75.0081 60.744 75.1378 60.6142 75.3107 60.4411C75.4836 60.2681 75.6566 60.095 75.8295 59.922C75.9159 59.8354 75.9592 59.7922 76.0456 59.7056C76.2186 59.5326 76.3483 59.3595 76.5212 59.2297C76.6941 59.0567 76.8671 58.8836 76.9968 58.7105C77.04 58.6673 77.0832 58.5807 77.1697 58.5375C77.3426 58.3644 77.4723 58.1914 77.6452 58.0183C77.8182 57.8452 77.9911 57.6289 78.164 57.4559C78.2073 57.4126 78.2505 57.3693 78.2937 57.3261C78.4667 57.153 78.5964 56.9799 78.7693 56.8069C78.9422 56.5906 79.1151 56.4175 79.2881 56.2012C79.3313 56.1579 79.3745 56.1147 79.4178 56.0714C79.5475 55.8983 79.6772 55.7685 79.8501 55.5955C80.0662 55.3791 80.2392 55.1196 80.4553 54.9032C80.4986 54.86 80.5418 54.8167 80.585 54.7734C80.7147 54.6436 80.8012 54.5138 80.9309 54.3408C81.1471 54.0812 81.3632 53.8216 81.5794 53.562C81.6226 53.5188 81.6659 53.4322 81.7523 53.389C81.8388 53.2592 81.9252 53.1726 82.0117 53.0428C82.2279 52.74 82.444 52.4804 82.6602 52.1775C82.7467 52.091 82.7899 52.0045 82.8764 51.9179C82.9628 51.8314 83.0061 51.7449 83.0925 51.6584C83.3519 51.3122 83.6113 50.9661 83.8275 50.62C83.9139 50.5335 84.0004 50.4037 84.0436 50.3171C84.0869 50.2306 84.1301 50.1874 84.1733 50.1008C84.2598 49.971 84.3463 49.8845 84.3895 49.7547C84.6056 49.4518 84.7786 49.1923 84.9515 48.8894C85.038 48.8029 85.0812 48.6731 85.1677 48.5865C85.2109 48.5433 85.2541 48.5 85.2541 48.4135C85.3838 48.1972 85.5135 48.0241 85.6432 47.8078C85.7297 47.678 85.8161 47.5049 85.9026 47.3751C86.0755 47.0723 86.2485 46.7694 86.4214 46.5098C86.4646 46.4233 86.5511 46.3368 86.5943 46.207C86.5943 46.207 86.5943 46.207 86.5943 46.1637C86.724 45.9474 86.8105 45.7311 86.9402 45.558C87.0267 45.3849 87.1564 45.1686 87.2428 44.9956C87.4157 44.736 87.5022 44.5196 87.6319 44.3466Z" fill="url(#paint0_linear)"/>
<path d="M12.3644 83.6744C12.3644 83.5879 12.4076 83.4581 12.4076 83.3716C12.4509 83.1985 12.4509 83.0687 12.4941 82.8956C12.5373 82.7658 12.5373 82.636 12.5806 82.5495C12.6238 82.4197 12.667 82.2467 12.667 82.1169C12.7103 81.9871 12.7535 81.8573 12.7535 81.7275C12.7967 81.5977 12.84 81.4679 12.8832 81.2948C12.9264 81.165 12.9697 81.0352 13.0129 80.9054C13.0561 80.7757 13.0994 80.6026 13.1426 80.4728C13.1858 80.343 13.2291 80.2132 13.2723 80.0834C13.3155 79.9536 13.3588 79.7806 13.402 79.6508C13.4452 79.521 13.4885 79.3479 13.5317 79.2181C13.5749 79.0883 13.6182 78.9153 13.6614 78.7855C13.7046 78.6557 13.7478 78.4826 13.8343 78.3528C13.8775 78.223 13.9208 78.05 14.0072 77.9202C14.0505 77.7904 14.1369 77.6173 14.1802 77.4875C14.2234 77.3577 14.3099 77.1847 14.3531 77.0549C14.3963 76.9251 14.4828 76.752 14.526 76.6222C14.6125 76.4492 14.6557 76.3194 14.7422 76.1463C14.7854 76.0165 14.8719 75.8435 14.9584 75.7137C15.0448 75.5406 15.088 75.4108 15.1745 75.2377C15.261 75.1079 15.3042 74.9349 15.3907 74.8051C15.4771 74.632 15.5204 74.5022 15.6068 74.3292C15.6933 74.1994 15.7365 74.0263 15.823 73.8965C15.9095 73.7235 15.9959 73.5937 16.0392 73.4206C16.1256 73.2908 16.2121 73.1178 16.2553 72.988C16.3418 72.8149 16.4283 72.6851 16.5147 72.5121C16.6012 72.3823 16.6876 72.2092 16.7741 72.0794C16.8606 71.9063 16.947 71.7766 17.0335 71.6035C17.12 71.4304 17.2064 71.3006 17.2929 71.1276C17.3794 70.9978 17.4658 70.8247 17.5523 70.6949C17.8549 70.1757 18.1575 69.6566 18.5034 69.1374C18.5466 69.0509 18.5899 69.0076 18.6331 68.9211C18.9357 68.4019 19.2816 67.8827 19.6274 67.3635C19.6707 67.277 19.7571 67.1905 19.8004 67.0607C20.0598 66.628 20.3624 66.2386 20.6218 65.806C20.665 65.7627 20.665 65.7195 20.7083 65.6762C20.9676 65.2868 21.227 64.8974 21.5297 64.508C21.6161 64.3782 21.7026 64.2917 21.7891 64.1619C22.0052 63.9023 22.1782 63.5995 22.3943 63.3399C22.4808 63.2533 22.524 63.1236 22.6105 63.037C22.8699 62.6476 23.1725 62.3015 23.4319 61.9121C23.5184 61.8256 23.5616 61.7391 23.6481 61.6525C23.8642 61.393 24.0371 61.1334 24.2533 60.8738C24.3398 60.744 24.4695 60.6142 24.5559 60.4844C24.7289 60.2681 24.9018 60.0517 25.0747 59.7922C25.1612 59.7056 25.2476 59.5758 25.2909 59.4893C25.8097 58.8403 26.3285 58.2346 26.8472 57.5856C26.8905 57.4991 26.9769 57.4126 27.0202 57.3693C27.539 56.7636 28.0577 56.1579 28.5765 55.5522C28.663 55.4657 28.7062 55.3791 28.7927 55.3359C29.3115 54.7734 29.787 54.211 30.3058 53.6485C30.3923 53.562 30.4355 53.4755 30.522 53.389C31.0408 52.8265 31.5596 52.3073 32.0784 51.7449C32.1648 51.6584 32.2513 51.5718 32.3377 51.4853C32.8565 50.9661 33.3321 50.4469 33.8509 49.9278C33.9373 49.8412 34.0238 49.7547 34.1103 49.6682C34.6291 49.149 35.1478 48.6298 35.6666 48.1106C35.7099 48.0674 35.7963 47.9808 35.8396 47.9376C36.3584 47.4184 36.8771 46.9425 37.3959 46.4233C37.4392 46.38 37.4824 46.3368 37.5256 46.2935C38.0444 45.8176 38.52 45.3417 39.0388 44.8658C39.1252 44.7792 39.2549 44.6927 39.3414 44.6062C39.8169 44.1735 40.3357 43.6976 40.8113 43.265C40.8977 43.1784 40.9842 43.0919 41.0707 43.0054C41.503 42.616 41.8921 42.2699 42.3244 41.8805C42.4109 41.7939 42.5406 41.7074 42.627 41.6209C43.1026 41.2315 43.5781 40.7989 44.0105 40.4095C44.1402 40.3229 44.2266 40.2364 44.3563 40.1499C44.7022 39.847 45.0913 39.5442 45.4371 39.2413C45.5668 39.1548 45.6965 39.025 45.8262 38.9385C46.2586 38.5923 46.6476 38.2462 47.08 37.9001C47.1232 37.9001 47.1232 37.8568 47.1664 37.8568C47.5988 37.5107 48.0743 37.1213 48.5066 36.7752C48.6363 36.6887 48.766 36.5589 48.939 36.4724C49.2416 36.2128 49.5874 35.9964 49.8901 35.7369C50.0198 35.6071 50.1927 35.5205 50.3224 35.3907C50.6683 35.1311 51.0573 34.8283 51.4032 34.5687C51.4897 34.4822 51.5761 34.4389 51.6626 34.3524C52.1381 34.0063 52.6137 33.6169 53.0893 33.2708C53.219 33.1842 53.3487 33.0977 53.4351 33.0112C53.8674 32.7083 54.2998 32.4055 54.6889 32.1026C54.7753 32.0161 54.905 31.9295 54.9915 31.8863C55.5967 31.4536 56.2452 31.021 56.8505 30.5883C56.9369 30.5018 57.0666 30.4585 57.1531 30.372C57.9745 29.8096 58.7959 29.2904 59.6173 28.7279C59.7038 28.6847 59.747 28.6414 59.8335 28.5981C60.3955 28.252 60.9575 27.8626 61.5196 27.5165C61.6493 27.43 61.779 27.3435 61.8654 27.3002C62.4274 26.9541 63.0327 26.5647 63.5947 26.2186C64.2432 25.8292 64.9349 25.4398 65.5834 25.0504C65.7996 24.9206 66.0157 24.7908 66.2319 24.7043C66.6642 24.4447 67.0965 24.1851 67.5289 23.9688C67.745 23.839 67.9612 23.7092 68.1773 23.6227C68.6529 23.3631 69.1717 23.1035 69.6472 22.8439C69.8634 22.7141 70.1228 22.5843 70.339 22.4978C70.8145 22.2382 71.3333 21.9786 71.8089 21.719C71.9818 21.6325 72.1979 21.546 72.3709 21.4162C73.0194 21.1133 73.6678 20.7672 74.2731 20.5076C74.3163 20.5076 74.3163 20.4643 74.3596 20.4643C74.9648 20.1615 75.5701 19.9019 76.1753 19.6423C76.3482 19.5558 76.5644 19.4692 76.7373 19.3827C77.2129 19.1664 77.6452 18.9933 78.0775 18.8203C78.2937 18.7337 78.5099 18.6472 78.726 18.5607C79.1583 18.3876 79.5907 18.2146 80.023 18.0415C80.1959 17.955 80.4121 17.9117 80.585 17.8252C81.0173 17.6521 81.4497 17.5223 81.882 17.3493C82.0117 17.306 82.1414 17.2627 82.2711 17.2195C82.8331 17.0464 83.3951 16.8301 83.9139 16.657C84.1733 16.5705 84.3895 16.5272 84.6056 16.4407C84.865 16.3542 85.1244 16.2676 85.3838 16.2244C85.6 16.1378 85.8594 16.0946 86.0755 16.0513C86.3349 15.9648 86.5511 15.9215 86.8105 15.835C87.2428 15.7052 87.6751 15.6187 88.1074 15.5321C88.1507 15.5321 88.2371 15.4889 88.2804 15.4889C88.6695 15.4023 89.0153 15.3158 89.4044 15.2725C89.5341 15.2293 89.6206 15.2293 89.7503 15.2293C90.0529 15.186 90.3555 15.1427 90.6149 15.0995C90.7446 15.0995 90.8743 15.0562 91.004 15.0562C91.3066 15.0129 91.566 14.9697 91.8686 14.9264C91.9551 14.9264 92.0848 14.8832 92.1713 14.8832C92.5604 14.8399 92.9062 14.7966 93.2521 14.7966C93.2953 14.7966 93.3385 14.7966 93.425 14.7966C93.7276 14.7966 94.0303 14.7534 94.3329 14.7534C94.4194 14.7534 94.5058 14.7534 94.5923 14.7534C94.9381 14.7534 95.284 14.7534 95.5866 14.7534C95.6299 14.7534 95.6731 14.7534 95.6731 14.7534C95.9325 14.7534 96.1919 14.7534 96.4513 14.7966C96.7971 14.7966 97.0998 14.8399 97.4456 14.8832C97.5321 14.8832 97.6185 14.8832 97.705 14.9264C98.0941 14.9697 98.4832 15.0562 98.8291 15.0995C98.9155 15.0995 99.002 15.1427 99.0884 15.1427C99.3478 15.186 99.6072 15.2725 99.8666 15.3158C99.9963 15.3591 100.083 15.4023 100.212 15.4023C100.429 15.4889 100.645 15.5321 100.861 15.6187C100.991 15.6619 101.077 15.7052 101.207 15.7484C101.423 15.835 101.639 15.9215 101.812 16.008C101.899 16.0513 101.985 16.0946 102.071 16.1378C102.374 16.2676 102.633 16.4407 102.893 16.6137L102.936 16.657C103.196 16.8301 103.412 17.0031 103.628 17.1762C103.801 17.306 103.974 17.479 104.103 17.6088C104.147 17.6521 104.147 17.6521 104.19 17.6954C104.363 17.8684 104.536 18.0415 104.665 18.2146L92.9062 3.50447C92.8198 3.41794 92.7333 3.33141 92.6468 3.20161C92.5604 3.11508 92.4739 3.02856 92.3874 2.94203C92.3442 2.89876 92.3442 2.89876 92.301 2.8555C92.1713 2.7257 92.0416 2.59591 91.8686 2.46611C91.8254 2.46611 91.8254 2.42285 91.7822 2.42285C91.566 2.24979 91.3499 2.07673 91.0905 1.90367L91.0472 1.8604C90.7878 1.68734 90.5284 1.51428 90.2258 1.38449C90.1826 1.38449 90.1826 1.34122 90.1826 1.34122C90.0961 1.29796 90.0529 1.29796 89.9664 1.25469C89.7503 1.16816 89.5773 1.08163 89.3612 0.995103C89.3179 0.995103 89.2747 0.951838 89.2315 0.951838C89.1882 0.908573 89.1018 0.908573 89.0153 0.865308C88.7991 0.778778 88.583 0.735513 88.3668 0.648983C88.2804 0.605718 88.2371 0.605718 88.1507 0.562453C88.1074 0.562453 88.0642 0.519188 88.021 0.519188C87.7616 0.432658 87.5022 0.389393 87.2428 0.346129C87.1563 0.346129 87.1131 0.302864 87.0266 0.302864H86.9834C86.6375 0.216334 86.2485 0.173069 85.8594 0.129804H85.8161C85.7297 0.129804 85.6864 0.129804 85.6 0.129804C85.2973 0.0865389 84.9515 0.0865389 84.6056 0.0432739C84.5624 0.0432739 84.4759 0.0432739 84.4327 0.0432739C84.2165 0.0432739 84.0436 0.0432739 83.8274 0.0432739C83.7842 0.0432739 83.7842 0.0432739 83.741 0.0432739C83.4816 0.0432739 83.2222 0.0432739 82.9628 0.0432739C82.8763 0.0432739 82.8331 0.0432739 82.7466 0.0432739C82.6602 0.0432739 82.5737 0.0432739 82.4872 0.0432739C82.1846 0.0432739 81.882 0.0865389 81.5794 0.0865389C81.5361 0.0865389 81.4929 0.0865389 81.4497 0.0865389H81.4064C81.0606 0.129804 80.7147 0.129804 80.3689 0.173069C80.2824 0.173069 80.1527 0.216334 80.0662 0.216334C79.8933 0.216334 79.7204 0.259599 79.5907 0.259599C79.461 0.259599 79.3745 0.302864 79.2448 0.302864C79.1151 0.302864 78.9854 0.346129 78.8557 0.346129C78.5531 0.389393 78.2937 0.432658 77.9911 0.475923C77.8614 0.475923 77.7749 0.519188 77.6452 0.519188C77.602 0.519188 77.5588 0.519188 77.5155 0.519188C77.1697 0.562453 76.867 0.648983 76.5212 0.735513C76.4779 0.735513 76.3915 0.778778 76.3483 0.778778C75.9592 0.865308 75.5268 0.951838 75.0945 1.08163C75.0513 1.08163 75.0513 1.08163 75.008 1.08163C74.7486 1.1249 74.5325 1.21143 74.2731 1.29796C74.0569 1.34122 73.7975 1.42775 73.5814 1.47102C73.322 1.55755 73.0626 1.60081 72.8464 1.68734C72.6303 1.77387 72.4141 1.81714 72.1979 1.8604H72.1547C71.5927 2.03346 71.0739 2.20652 70.5119 2.42285C70.3822 2.46611 70.2525 2.50938 70.1228 2.55264C69.6905 2.68244 69.2581 2.8555 68.8258 3.02856C68.7826 3.07182 68.6961 3.07182 68.6529 3.07182C68.5232 3.11508 68.3935 3.15835 68.2638 3.24488C67.8315 3.41794 67.3992 3.591 66.9668 3.76406C66.7507 3.85059 66.5345 3.93712 66.3183 4.02365C65.886 4.19671 65.4105 4.41303 64.9781 4.58609C64.8484 4.62936 64.7188 4.71589 64.5891 4.75915C64.5458 4.80242 64.4594 4.80242 64.4161 4.84568C63.8109 5.10527 63.2056 5.36486 62.6436 5.66772C62.6004 5.66772 62.6004 5.71098 62.5571 5.71098C61.9086 6.01384 61.3034 6.31669 60.6549 6.61955C60.6117 6.66281 60.5684 6.66281 60.482 6.70608C60.3523 6.7926 60.2226 6.83587 60.0497 6.9224C59.5741 7.18199 59.0553 7.44158 58.5798 7.70117C58.3636 7.83096 58.1042 7.96076 57.888 8.04729C57.4125 8.30688 56.8937 8.56647 56.4181 8.82606C56.2884 8.91259 56.1155 8.99912 55.9858 9.04238C55.8994 9.08565 55.8561 9.12891 55.7697 9.17218C55.3373 9.43177 54.905 9.64809 54.4727 9.90768C54.2565 10.0375 54.0404 10.1673 53.8242 10.2538C53.1757 10.6432 52.5272 11.0326 51.8355 11.422C51.2303 11.7681 50.6683 12.1575 50.1062 12.5036C49.9765 12.5901 49.8468 12.6766 49.7171 12.7199C49.1551 13.066 48.5931 13.4554 48.0311 13.8015C47.9878 13.8015 47.9878 13.8448 47.9446 13.8448C47.9014 13.8881 47.8581 13.8881 47.8149 13.9313C46.9935 14.4505 46.1721 15.0129 45.3507 15.5754C45.3074 15.6187 45.2642 15.6187 45.221 15.6619C45.1777 15.7052 45.0913 15.7484 45.048 15.7917C44.4428 16.2244 43.7943 16.657 43.1891 17.0897C43.1458 17.1329 43.1458 17.1329 43.1026 17.1762C43.0161 17.2195 42.9729 17.306 42.8864 17.3493C42.4541 17.6521 42.0218 17.955 41.6327 18.2578C41.5462 18.3011 41.4598 18.3876 41.4165 18.4309C41.3733 18.4741 41.3301 18.4741 41.2868 18.5174C40.8113 18.8635 40.3357 19.2096 39.8602 19.599L39.8169 19.6423C39.7305 19.6856 39.6872 19.7721 39.6008 19.8154C39.2549 20.0749 38.8658 20.3778 38.52 20.6374C38.4767 20.6807 38.3903 20.7239 38.347 20.7672C38.2606 20.8537 38.1741 20.897 38.0876 20.9835C37.785 21.2431 37.4392 21.4594 37.1365 21.719C37.0501 21.8055 36.9636 21.8488 36.8771 21.9353C36.8339 21.9786 36.7907 22.0219 36.7474 22.0651C36.3151 22.4113 35.8396 22.8006 35.4072 23.1468C35.364 23.1468 35.364 23.19 35.3208 23.19C34.8885 23.5361 34.4994 23.8823 34.067 24.2284C34.0238 24.2716 33.9806 24.3149 33.8941 24.3582C33.8076 24.4014 33.7212 24.488 33.6779 24.5312C33.3321 24.8341 32.943 25.1369 32.5971 25.4398C32.5107 25.4831 32.4242 25.5696 32.381 25.6129C32.3377 25.6561 32.2945 25.6561 32.2945 25.6994C31.819 26.0888 31.3434 26.5214 30.9111 26.9108C30.8678 26.9541 30.8246 26.9541 30.8246 26.9973C30.7382 27.0406 30.6949 27.1271 30.6517 27.1704C30.2194 27.5598 29.8303 27.9059 29.3979 28.2953C29.3547 28.3385 29.2682 28.4251 29.225 28.4683C29.1818 28.5116 29.1818 28.5116 29.1386 28.5549C28.6198 28.9875 28.1442 29.4634 27.6687 29.8961C27.6254 29.9394 27.5822 29.9826 27.539 30.0259C27.4957 30.0691 27.4093 30.1124 27.366 30.1989C26.8472 30.6749 26.3285 31.1508 25.8529 31.6267C25.8529 31.6267 25.8097 31.6267 25.8097 31.6699C25.7664 31.7132 25.7664 31.7132 25.7232 31.7565C25.2044 32.2757 24.6856 32.7516 24.1668 33.2708C24.1236 33.314 24.0804 33.3573 24.0371 33.4005L23.9939 33.4438C23.4751 33.963 22.9563 34.4822 22.4375 35.0014C22.3943 35.0446 22.3511 35.0879 22.3078 35.1311C22.2646 35.1744 22.2214 35.2177 22.2214 35.2177C21.7026 35.7369 21.1838 36.256 20.7083 36.7752C20.665 36.8185 20.6218 36.8617 20.5786 36.905C20.5353 36.9483 20.4921 36.9915 20.4489 37.0348C19.9301 37.5972 19.4113 38.1164 18.8925 38.6789C18.8493 38.7221 18.806 38.7654 18.806 38.8087C18.7628 38.8519 18.7196 38.8952 18.6763 38.9385C18.1575 39.5009 17.6388 40.0633 17.1632 40.6258C17.12 40.6691 17.12 40.7123 17.0767 40.7123C17.0335 40.7556 16.9903 40.7989 16.947 40.8421C16.4283 41.4478 15.9095 42.0535 15.3907 42.6592C15.3474 42.7025 15.3474 42.7458 15.3042 42.789C15.261 42.8323 15.261 42.8756 15.2177 42.9188C14.699 43.5678 14.1369 44.2168 13.6614 44.8225C13.6182 44.8658 13.5749 44.909 13.5749 44.9523C13.5317 44.9956 13.4885 45.0821 13.4452 45.1253C13.2723 45.3417 13.0994 45.6013 12.9264 45.8176C12.84 45.9474 12.7103 46.0772 12.6238 46.207C12.4076 46.4666 12.2347 46.7261 12.0186 46.9857C11.9753 47.0723 11.8889 47.1588 11.8456 47.2453C11.8456 47.2453 11.8456 47.2886 11.8024 47.2886C11.4998 47.678 11.2404 48.0241 10.981 48.4135C10.8945 48.5 10.8513 48.6298 10.7648 48.7163C10.5487 48.9759 10.3757 49.2788 10.1596 49.5384C10.1163 49.5816 10.0731 49.6682 10.0299 49.7114C9.98664 49.7547 9.9434 49.8412 9.90017 49.8845C9.64078 50.2739 9.33815 50.6633 9.07876 51.0526C9.03553 51.0959 9.03553 51.1392 8.99229 51.1824C8.68967 51.6151 8.43027 52.0045 8.17088 52.4371C8.12765 52.4804 8.12765 52.5237 8.08441 52.5669C8.04118 52.6102 8.04118 52.6534 7.99795 52.6967C7.65209 53.2159 7.34947 53.7351 7.00361 54.2542C6.96038 54.3408 6.91714 54.384 6.87391 54.4706C6.52805 54.9898 6.22543 55.5089 5.9228 56.0281C5.9228 56.0281 5.9228 56.0281 5.9228 56.0714C5.83633 56.2012 5.74987 56.3742 5.66341 56.504C5.57694 56.6338 5.49048 56.8069 5.40401 56.9367C5.31755 57.1097 5.23108 57.2395 5.14462 57.4126C5.05815 57.5424 4.97169 57.7154 4.88522 57.8452C4.79876 58.0183 4.71229 58.1481 4.62583 58.3212C4.53936 58.4509 4.4529 58.624 4.40967 58.7538C4.3232 58.9269 4.23674 59.0567 4.19351 59.2297C4.10704 59.3595 4.06381 59.5326 3.97734 59.6624C3.89088 59.8354 3.80442 59.9652 3.76118 60.1383C3.67472 60.2681 3.63149 60.4411 3.54502 60.5709C3.45856 60.744 3.41532 60.8738 3.32886 61.0468C3.28563 61.1766 3.19916 61.3064 3.15593 61.4362C3.06947 61.6093 3.02623 61.7823 2.93977 61.9121C2.89654 62.0419 2.81007 62.1717 2.76684 62.3015C2.68038 62.4746 2.63714 62.6044 2.55068 62.7774C2.50745 62.9072 2.46421 63.037 2.37775 63.1668C2.33452 63.3399 2.24805 63.4697 2.20482 63.6427C2.16159 63.7725 2.11836 63.9023 2.07512 64.0321C2.03189 64.2052 1.94543 64.335 1.90219 64.508C1.85896 64.6378 1.81573 64.7676 1.7725 64.8974C1.72926 65.0705 1.68603 65.2003 1.6428 65.3733C1.59957 65.5031 1.55634 65.6329 1.5131 65.7627C1.46987 65.9358 1.42664 66.0656 1.38341 66.1954C1.34017 66.3252 1.29694 66.455 1.25371 66.5848C1.21048 66.7578 1.16724 66.8876 1.12401 67.0607C1.08078 67.1905 1.08078 67.277 1.03755 67.4068C0.994315 67.5798 0.951082 67.7096 0.90785 67.8827C0.864618 68.0125 0.864618 68.099 0.821386 68.2288C0.778153 68.4019 0.734921 68.5749 0.734921 68.748C0.734921 68.8345 0.691689 68.9211 0.691689 69.0076C0.648456 69.2672 0.605224 69.5268 0.561992 69.7864C-2.8491e-05 73.7235 0.691689 76.752 2.42098 78.872L14.4828 93.409C12.7535 91.3323 12.0618 88.3038 12.6238 84.3234C12.278 84.1503 12.3212 83.934 12.3644 83.6744Z" fill="url(#paint1_linear)"/>
<path d="M106.827 27.1271C104.449 43.5245 81.3632 69.6133 55.2509 85.4483C29.1386 101.283 9.9002 100.807 12.2347 84.4532C14.6125 68.0558 37.6986 41.967 63.8109 26.132C89.9232 10.2971 109.205 10.773 106.827 27.1271ZM29.0089 74.2859C27.4958 84.8858 39.9034 85.1454 56.8073 74.9349C73.6679 64.7244 88.583 47.851 90.0962 37.2511C91.6093 26.6512 79.2016 26.3916 62.341 36.6022C45.4372 46.8559 30.522 63.686 29.0089 74.2859Z" fill="url(#paint2_linear)"/>
<defs>
<linearGradient id="paint0_linear" x1="37.3233" y1="71.7502" x2="103.557" y2="10.2659" gradientUnits="userSpaceOnUse">
<stop offset="0.0180353" stop-color="#5E94F8"/>
<stop offset="0.145833" stop-color="#437EEB"/>
<stop offset="0.520833" stop-color="#1652BC"/>
<stop offset="1" stop-color="#417DE9"/>
</linearGradient>
<linearGradient id="paint1_linear" x1="94.9732" y1="-1.77921" x2="-0.128858" y2="83.3304" gradientUnits="userSpaceOnUse">
<stop offset="0.0104167" stop-color="#5E95F8"/>
<stop offset="0.213542" stop-color="#4781ED"/>
<stop offset="0.385417" stop-color="#2D68D4"/>
<stop offset="0.53125" stop-color="#2A69D8"/>
<stop offset="0.697917" stop-color="#215DC7"/>
<stop offset="0.833333" stop-color="#4782EA"/>
<stop offset="1" stop-color="#5E95F8"/>
</linearGradient>
<linearGradient id="paint2_linear" x1="76.2149" y1="73.9446" x2="49.5616" y2="44.9613" gradientUnits="userSpaceOnUse">
<stop offset="0.1673" stop-color="#74A2F4"/>
<stop offset="0.7823" stop-color="#3070E1"/>
</linearGradient>
</defs>
</svg>
