<svg width="42" height="41" viewBox="0 0 42 41" fill="none" xmlns="http://www.w3.org/2000/svg">
<path d="M13.4433 17.2285L21.3624 9.26662L29.2856 17.2328L33.8935 12.5998L21.3624 0L8.83545 12.5956L13.4433 17.2285Z" fill="#F3BA2F"/>
<path d="M10.1888 20.4992L5.58105 15.8663L0.973048 20.4995L5.58083 25.1324L10.1888 20.4992Z" fill="#F3BA2F"/>
<path d="M13.4432 23.7715L21.3623 31.7334L29.2852 23.7676L33.8957 28.398L33.8934 28.4006L21.3623 41L8.83505 28.4048L8.82861 28.3983L13.4432 23.7715Z" fill="#F3BA2F"/>
<path d="M37.1435 25.1346L41.7515 20.5015L37.1437 15.8686L32.5357 20.5017L37.1435 25.1346Z" fill="#F3BA2F"/>
<path d="M26.036 20.4976H26.038L21.3622 15.7963L17.9067 19.2706H17.9063L17.5095 19.6699L16.6905 20.4934L16.6841 20.4998L16.6905 20.5066L21.3622 25.2037L26.038 20.5024L26.0402 20.4998L26.036 20.4976Z" fill="#F3BA2F"/>
</svg>
