<svg width="26" height="28" viewBox="0 0 26 28" fill="none" xmlns="http://www.w3.org/2000/svg">
<path d="M3.17675 24.7287H19.8123L19.0178 22.1562C19.1356 22.2588 25.8334 28 25.8334 28V2.8875C25.7541 1.3265 24.4101 -3.8147e-06 22.7441 -3.8147e-06L3.18258 0.00349619C1.51775 0.00349619 0.166748 1.33233 0.166748 2.89333V21.84C0.166748 23.4862 1.51541 24.7287 3.17675 24.7287ZM15.4828 6.63016L15.4443 6.64416L15.4583 6.63016H15.4828ZM6.57992 8.11066C8.71842 6.55433 10.7006 6.629 10.7006 6.629L10.8604 6.7865C8.24358 7.41066 7.05708 8.57966 7.05708 8.57966C7.17842 8.554 12.4623 5.5055 18.8649 8.65666C18.8649 8.65666 17.6761 7.5635 15.2203 6.8635L15.4373 6.65C15.7768 6.65116 17.5734 6.71416 19.4961 8.12C19.4961 8.12 21.6474 11.795 21.6474 16.31C21.5763 16.2237 20.3128 18.2537 17.0613 18.3237C17.0613 18.3237 16.5106 17.7007 16.1186 17.157C18.0203 16.611 18.7319 15.519 18.7319 15.519C15.0301 17.85 11.7856 17.486 7.90408 15.911C7.86792 15.911 7.85158 15.8947 7.83292 15.876V15.869C7.81425 15.8515 7.79792 15.834 7.76175 15.834H7.69175C7.45375 15.6777 7.29508 15.6007 7.29508 15.6007C7.29508 15.6007 8.00558 16.6927 9.83142 17.2387C9.35192 17.7858 8.87708 18.4077 8.87708 18.4077C5.62675 18.3307 4.44142 16.3007 4.44142 16.3007C4.44142 11.7787 6.57992 8.11066 6.57992 8.11066Z" fill="#5C6BC0"/>
<path d="M15.6927 14.8995C16.5222 14.8995 17.1977 14.1995 17.1977 13.3362C17.1977 12.4787 16.5257 11.7787 15.6927 11.7787V11.7822C14.8667 11.7822 14.1901 12.4798 14.1877 13.3432C14.1877 14.1995 14.8632 14.8995 15.6927 14.8995Z" fill="#5C6BC0"/>
<path d="M10.305 14.8995C11.1345 14.8995 11.81 14.1995 11.81 13.3362C11.81 12.4787 11.1392 11.7787 10.3097 11.7787L10.305 11.7822C9.47555 11.7822 8.80005 12.4798 8.80005 13.3432C8.80005 14.1995 9.47555 14.8995 10.305 14.8995Z" fill="#5C6BC0"/>
</svg>
