<svg width="27" height="21" viewBox="0 0 27 21" fill="none" xmlns="http://www.w3.org/2000/svg">
<path d="M26.5186 0.98002C25.8752 0.336448 24.8337 0.336395 24.1902 0.979967L8.6427 16.5275L2.80995 10.6947C2.16654 10.0511 1.12498 10.0511 0.481514 10.6947C-0.160423 11.3366 -0.160423 12.3812 0.481514 13.023L7.47854 20.0201C8.12184 20.6634 9.16356 20.6635 9.80692 20.0201L26.5186 3.30835C27.1605 2.66642 27.1605 1.62185 26.5186 0.98002Z" fill="#B2BEFD"/>
<path d="M26.5186 0.98002C25.8752 0.336448 24.8336 0.336395 24.1902 0.979967L12.8414 12.3287V16.9855L26.5186 3.30835C27.1605 2.66642 27.1605 1.62185 26.5186 0.98002Z" fill="#7085F8"/>
</svg>
