<svg width="74" height="67" viewBox="0 0 74 67" fill="none" xmlns="http://www.w3.org/2000/svg">
<path d="M13.3948 30.6311C13.335 30.5116 13.2752 30.3921 13.2154 30.2725C13.1556 30.1231 13.0659 29.9737 13.0061 29.8243C12.9463 29.7047 12.8865 29.5852 12.8267 29.4657C12.7669 29.3162 12.7071 29.1668 12.6474 29.0473C12.5876 28.9277 12.5577 28.8082 12.4979 28.6887C12.4381 28.5392 12.3783 28.3898 12.3484 28.2404C12.3185 28.1209 12.2587 28.0312 12.2288 27.9117C12.169 27.7623 12.1391 27.6128 12.0793 27.4634C12.0494 27.3738 12.0195 27.2841 11.9896 27.1646C11.9298 26.9853 11.8999 26.8359 11.87 26.6864C11.8401 26.5968 11.8401 26.537 11.8102 26.4474C11.7504 26.2083 11.7205 25.9692 11.6906 25.76C11.4215 23.9969 11.7504 22.6521 12.5278 21.7257L20.8696 11.6548C20.0922 12.5812 19.7932 13.926 20.0324 15.6891C20.0623 15.9282 20.1221 16.1374 20.152 16.3764C20.1819 16.4661 20.1819 16.5259 20.2118 16.6155C20.2417 16.7649 20.3015 16.9442 20.3314 17.0937C20.3613 17.1833 20.3912 17.273 20.4211 17.3925C20.4809 17.5419 20.5108 17.6913 20.5706 17.8408C20.6005 17.9603 20.6603 18.05 20.6902 18.1695C20.75 18.3189 20.7799 18.4683 20.8397 18.6177C20.8696 18.7373 20.9294 18.8568 20.9892 18.9764C21.049 19.1258 21.1088 19.2752 21.1686 19.4246C21.2284 19.5442 21.2882 19.6637 21.348 19.7832C21.4078 19.9326 21.4676 20.0821 21.5573 20.2315C21.6171 20.351 21.6768 20.4706 21.7366 20.5901C21.8263 20.7395 21.8861 20.8889 21.9758 21.0384C22.0356 21.1579 22.1253 21.3073 22.1851 21.4268C22.2748 21.5763 22.3346 21.7257 22.4243 21.8751C22.4542 21.9349 22.514 22.0245 22.5439 22.0843C22.6635 22.2935 22.7831 22.4728 22.9027 22.682C22.9625 22.7716 23.0223 22.8912 23.112 22.9808C23.2316 23.1601 23.3213 23.3394 23.4409 23.5187C23.5007 23.5785 23.5306 23.6681 23.5904 23.7279C23.71 23.9371 23.8595 24.1164 23.9791 24.3256C24.0389 24.4153 24.0987 24.475 24.1286 24.5647C24.2183 24.6842 24.308 24.8037 24.3977 24.9233C24.577 25.1624 24.7265 25.4014 24.9059 25.6405C24.9956 25.76 25.0853 25.8796 25.175 25.9991C25.3245 26.2083 25.474 26.3876 25.6235 26.5968C25.7132 26.7163 25.8328 26.8359 25.9225 26.9554C26.072 27.1347 26.2215 27.314 26.371 27.4933C26.4906 27.6128 26.5803 27.7324 26.6999 27.8818C26.8494 28.0312 26.969 28.2105 27.1185 28.3599C27.2381 28.5094 27.3577 28.6289 27.4772 28.7783C27.5968 28.9277 27.7164 29.0473 27.836 29.1967C27.9855 29.3461 28.1051 29.4955 28.2546 29.645C28.3742 29.7645 28.4938 29.9139 28.6134 30.0334C28.7629 30.1829 28.9124 30.3622 29.0619 30.5116C29.1815 30.6311 29.3011 30.7507 29.4207 30.8702C29.5702 31.0196 29.7496 31.1989 29.8991 31.3483C30.0187 31.4679 30.1383 31.5874 30.2579 31.707C30.4074 31.8564 30.5867 32.0357 30.7661 32.1851C30.8857 32.3046 31.0053 32.3943 31.1249 32.5138C31.3043 32.6931 31.4837 32.8425 31.6631 33.0219C31.7528 33.1115 31.8724 33.231 31.9621 33.3207C32.1714 33.5 32.3807 33.7092 32.59 33.8885C32.6797 33.9483 32.7395 34.0379 32.8292 34.0977C33.0983 34.3666 33.3972 34.6057 33.6962 34.8448C33.756 34.9045 33.8158 34.9643 33.8756 35.0241C34.1148 35.2333 34.354 35.4126 34.5633 35.6218C34.653 35.6815 34.7128 35.7712 34.8025 35.8309C35.1015 36.07 35.3706 36.3091 35.6696 36.5482C35.6696 36.5482 35.6696 36.5482 35.6995 36.5781C35.9985 36.8171 36.2975 37.0562 36.5964 37.2654C36.6562 37.3251 36.7459 37.3849 36.8057 37.4447C37.1047 37.6838 37.4037 37.8929 37.7027 38.132C37.7326 38.1619 37.7924 38.1918 37.8223 38.2217C38.0914 38.4309 38.3605 38.6102 38.6296 38.8193C38.7193 38.8791 38.809 38.9688 38.8987 39.0285C39.108 39.178 39.3172 39.3274 39.5265 39.4768C39.676 39.5665 39.7956 39.6561 39.9451 39.7756C40.0946 39.8952 40.274 39.9848 40.4235 40.1044C40.6627 40.2538 40.872 40.4032 41.1112 40.5526C41.3205 40.702 41.5298 40.8216 41.7391 40.971C41.8288 41.0308 41.9484 41.0905 42.0381 41.1802C42.3669 41.3894 42.6958 41.5986 43.0247 41.8078C43.3237 41.9871 43.6227 42.1664 43.8918 42.3158C43.9815 42.3756 44.0712 42.4353 44.1908 42.4652C44.4001 42.5847 44.5795 42.6744 44.7888 42.7939C44.8785 42.8537 44.9682 42.9135 45.0878 42.9433C45.2971 43.0629 45.5362 43.1824 45.7455 43.302C45.8352 43.3617 45.9548 43.4215 46.0445 43.4514C46.2538 43.5709 46.493 43.6904 46.7023 43.7801C46.792 43.81 46.8817 43.8698 46.9714 43.8996C47.2704 44.0491 47.5395 44.1686 47.8385 44.318C47.8385 44.318 47.8684 44.318 47.8684 44.3479C48.1375 44.4674 48.4065 44.587 48.6756 44.7065C48.7653 44.7364 48.855 44.7663 48.9148 44.826C49.1241 44.9157 49.3334 45.0053 49.5128 45.095C49.6025 45.1249 49.6922 45.1847 49.8118 45.2145C50.0211 45.3042 50.2005 45.364 50.3799 45.4536C50.4696 45.4835 50.5593 45.5134 50.649 45.5433C50.8583 45.603 51.0377 45.6927 51.2171 45.7524C51.2768 45.7823 51.3366 45.7823 51.3964 45.8122C51.6356 45.9019 51.9047 45.9915 52.1439 46.0513C52.2635 46.0812 52.3532 46.1111 52.4728 46.1409C52.5924 46.1708 52.712 46.2007 52.8017 46.2306C52.9213 46.2605 53.011 46.2904 53.1007 46.3202C53.2203 46.3501 53.31 46.38 53.4296 46.4099C53.6389 46.4697 53.8183 46.4995 54.0276 46.5593C54.0575 46.5593 54.0874 46.5593 54.1173 46.5892C54.2667 46.6191 54.4461 46.649 54.5956 46.6789C54.8647 46.7386 55.1338 46.7685 55.4029 46.7984C55.4627 46.7984 55.5225 46.8283 55.5823 46.8283C55.8215 46.8582 56.0308 46.888 56.2401 46.888C56.27 46.888 56.2999 46.888 56.3298 46.888C56.5391 46.9179 56.7484 46.9179 56.9577 46.9179C57.0175 46.9179 57.0773 46.9179 57.137 46.9179C57.2865 46.9179 57.436 46.9179 57.5855 46.9179C57.6453 46.9179 57.7051 46.9179 57.7649 46.9179C57.9144 46.9179 58.0639 46.888 58.2134 46.888C58.2433 46.888 58.3031 46.888 58.333 46.888C58.5124 46.8582 58.6619 46.8283 58.8413 46.7984C58.8712 46.7984 58.931 46.7685 58.9609 46.7685C59.0805 46.7386 59.2001 46.7087 59.3197 46.6789C59.3795 46.6789 59.4393 46.649 59.4692 46.6191C59.5589 46.5892 59.6486 46.5593 59.7383 46.5294C59.7981 46.4995 59.828 46.4995 59.8878 46.4697C59.9775 46.4398 60.0672 46.38 60.1568 46.3501C60.1867 46.3202 60.2465 46.3202 60.2764 46.2904C60.396 46.2306 60.5156 46.1409 60.6352 46.0812C60.6352 46.0812 60.6651 46.0812 60.6651 46.0513C60.7847 45.9915 60.8744 45.9019 60.9641 45.8122C60.994 45.7823 61.0239 45.7524 61.0538 45.7226C61.1136 45.6628 61.2033 45.603 61.2631 45.5134C61.3229 45.4536 61.3827 45.3938 61.4425 45.3341L53.1007 55.3751C53.0708 55.405 53.0409 55.4648 52.9811 55.4946C52.9512 55.5245 52.9512 55.5245 52.9213 55.5544C52.8615 55.6142 52.7718 55.7038 52.712 55.7636C52.6821 55.7935 52.6821 55.7935 52.6522 55.8234L52.6223 55.8532C52.5326 55.9429 52.413 56.0027 52.3233 56.0923C52.3233 56.0923 52.3233 56.0923 52.2934 56.1222C52.1738 56.2119 52.0542 56.2716 51.9346 56.3314C51.9346 56.3314 51.9047 56.3314 51.9047 56.3613C51.8748 56.3912 51.8449 56.3912 51.815 56.3912C51.7253 56.421 51.6356 56.4808 51.5459 56.5107C51.516 56.5107 51.516 56.5406 51.4861 56.5406C51.4562 56.5406 51.4263 56.5705 51.3964 56.5705C51.3067 56.6003 51.217 56.6302 51.1274 56.6601C51.0975 56.6601 51.0676 56.69 51.0377 56.69C51.0078 56.69 51.0078 56.69 50.9779 56.7199C50.8583 56.7498 50.7387 56.7797 50.6191 56.8095C50.5892 56.8095 50.5593 56.8394 50.5294 56.8394H50.4995C50.35 56.8693 50.1706 56.8992 49.9912 56.9291C49.9912 56.9291 49.9912 56.9291 49.9613 56.9291C49.9314 56.9291 49.9015 56.9291 49.8716 56.9291C49.7221 56.959 49.5726 56.959 49.4231 56.959C49.3932 56.959 49.3633 56.959 49.3633 56.959C49.3334 56.959 49.3035 56.959 49.2437 56.959C49.0942 56.959 48.9447 56.959 48.7952 56.959C48.7653 56.959 48.7354 56.959 48.6756 56.959C48.6457 56.959 48.6457 56.959 48.6158 56.959C48.4065 56.959 48.1973 56.959 47.988 56.9291C47.988 56.9291 47.988 56.9291 47.9581 56.9291C47.9282 56.9291 47.9282 56.9291 47.8983 56.9291C47.689 56.8992 47.4498 56.8992 47.2405 56.8693C47.2106 56.8693 47.1807 56.8693 47.1508 56.8693C47.1209 56.8693 47.091 56.8693 47.0611 56.8693C46.792 56.8394 46.5229 56.7797 46.2538 56.7498H46.2239C46.0744 56.7199 45.9249 56.69 45.7754 56.6601C45.7455 56.6601 45.7156 56.6601 45.7156 56.6302C45.5362 56.6003 45.3568 56.5406 45.1476 56.5107H45.1177C44.9981 56.4808 44.9084 56.4509 44.7888 56.421C44.6692 56.3912 44.5795 56.3613 44.4599 56.3314C44.3403 56.3015 44.2506 56.2716 44.131 56.2417C44.0413 56.2119 43.9516 56.182 43.832 56.1521H43.8021C43.5629 56.0624 43.3237 56.0027 43.0546 55.913C42.9948 55.8831 42.935 55.8831 42.8752 55.8532C42.6958 55.7935 42.4865 55.7038 42.3071 55.6441C42.2773 55.6441 42.2474 55.6142 42.2175 55.6142C42.1577 55.5843 42.0979 55.5544 42.0381 55.5544C41.8587 55.4946 41.6494 55.405 41.4401 55.3153C41.3504 55.2855 41.2607 55.2257 41.1411 55.1958C40.9318 55.1061 40.7524 55.0165 40.5431 54.9268C40.4833 54.897 40.4235 54.8671 40.3637 54.8372C40.3338 54.8372 40.3039 54.8073 40.3039 54.8073C40.0348 54.6878 39.7657 54.5682 39.4966 54.4487C39.4966 54.4487 39.4667 54.4487 39.4667 54.4188C39.1977 54.2993 38.8987 54.1499 38.5997 54.0004C38.5698 54.0004 38.5399 53.9706 38.5399 53.9706C38.4801 53.9407 38.4203 53.9108 38.3605 53.8809C38.1512 53.7614 37.912 53.6717 37.7027 53.5522C37.613 53.4924 37.4934 53.4326 37.4037 53.3729C37.1944 53.2533 36.9552 53.1338 36.7459 53.0143C36.6861 52.9844 36.6263 52.9545 36.5366 52.8947C36.5067 52.8648 36.4768 52.8648 36.4469 52.835C36.2676 52.7154 36.0583 52.6258 35.849 52.5062C35.7593 52.4465 35.6696 52.3867 35.55 52.3568C35.251 52.1775 34.952 52.0281 34.6829 51.8488C34.354 51.6396 34.0251 51.4304 33.6962 51.2212C33.6065 51.1615 33.4869 51.1017 33.3972 51.012C33.2478 50.9224 33.0983 50.8327 32.9488 50.7431C32.889 50.7132 32.8292 50.6534 32.7395 50.6235C32.5003 50.4741 32.291 50.3247 32.0518 50.1753C31.9322 50.1155 31.8425 50.0259 31.7229 49.9661C31.6631 49.9362 31.6033 49.9063 31.5734 49.8466C31.4239 49.7569 31.3043 49.6673 31.1548 49.5477C31.0352 49.4581 30.9156 49.3684 30.7661 49.2788C30.6764 49.219 30.5867 49.1592 30.5269 49.0995C30.4373 49.0397 30.3476 48.95 30.2579 48.8903C30.1682 48.8305 30.1084 48.7707 30.0187 48.711C29.8393 48.5615 29.63 48.4121 29.4506 48.2926C29.4207 48.2627 29.3609 48.2328 29.331 48.2029L29.3011 48.173C29.0918 47.9937 28.8526 47.8443 28.6433 47.665C28.5835 47.6053 28.4938 47.5455 28.434 47.5156C28.3742 47.4558 28.2845 47.3961 28.2247 47.3363C28.135 47.2765 28.0752 47.2168 27.9855 47.157C27.7762 46.9777 27.5669 46.8283 27.3577 46.649C27.3577 46.649 27.3278 46.649 27.3278 46.6191C27.1185 46.4398 26.8793 46.2605 26.67 46.0812C26.6102 46.0214 26.5205 45.9616 26.4607 45.9019C26.371 45.8421 26.3112 45.7524 26.2215 45.6927C26.1318 45.6329 26.072 45.5433 25.9823 45.4835C25.8328 45.364 25.6833 45.2145 25.5338 45.095C25.474 45.0352 25.4142 44.9755 25.3544 44.9456C25.3245 44.9157 25.2946 44.9157 25.2946 44.8858C25.0554 44.6766 24.8162 44.4674 24.577 44.2284C24.5471 44.1985 24.5471 44.1985 24.5173 44.1686C24.4276 44.1088 24.3678 44.0192 24.2781 43.9594C24.1286 43.81 23.9492 43.6606 23.7997 43.541C23.7399 43.4813 23.71 43.4514 23.6502 43.3916C23.5306 43.302 23.4409 43.1824 23.3213 43.0928C23.2316 43.0031 23.112 42.9135 23.0223 42.8238C22.9326 42.764 22.8728 42.6744 22.7831 42.5847C22.6635 42.4652 22.5439 42.3755 22.4243 42.256C22.3645 42.1962 22.2748 42.1066 22.215 42.0468C22.1253 41.9572 22.0356 41.8675 21.916 41.748C21.7964 41.6285 21.6768 41.5089 21.5573 41.3894C21.4975 41.3296 21.4676 41.2997 21.4078 41.24C21.2882 41.1204 21.1985 41.0009 21.0789 40.9112C20.9593 40.7917 20.8397 40.6722 20.75 40.5526C20.7201 40.5227 20.6902 40.463 20.6304 40.4331C20.5108 40.3136 20.4211 40.194 20.3015 40.0745C20.1819 39.9549 20.0623 39.8055 19.9427 39.686C19.9128 39.6561 19.8829 39.6262 19.853 39.5963C19.7334 39.4768 19.6437 39.3573 19.5241 39.2377C19.4045 39.0883 19.2849 38.9688 19.1653 38.8193C19.1354 38.7895 19.1055 38.7596 19.0756 38.7297C18.9859 38.6102 18.8962 38.5205 18.7766 38.401C18.6271 38.2516 18.5075 38.0723 18.3581 37.9228C18.3282 37.8929 18.2983 37.8631 18.2684 37.8332C18.1787 37.7435 18.1189 37.6539 18.0292 37.5343C17.8797 37.355 17.7302 37.1757 17.5807 36.9964C17.5508 36.9665 17.5209 36.9068 17.4611 36.8769C17.4013 36.7872 17.3415 36.7275 17.2817 36.6378C17.1322 36.4286 16.9827 36.2493 16.8332 36.0401C16.7734 35.9804 16.7435 35.9206 16.6837 35.8608C16.6239 35.8011 16.594 35.7413 16.5342 35.6815C16.3548 35.4425 16.1754 35.2034 16.0259 34.9643C15.9661 34.9045 15.9063 34.8149 15.8764 34.7551C15.8465 34.6954 15.8166 34.6655 15.7867 34.6057C15.7269 34.5161 15.6671 34.4563 15.6372 34.3666C15.4878 34.1574 15.3682 33.9781 15.2486 33.769C15.1888 33.7092 15.1589 33.6195 15.0991 33.5598C15.0692 33.5299 15.0393 33.5 15.0393 33.4402C14.9496 33.2908 14.8599 33.1713 14.7702 33.0219C14.7104 32.9322 14.6506 32.8127 14.5908 32.723C14.4712 32.5138 14.3516 32.3046 14.232 32.1253C14.2021 32.0656 14.1423 32.0058 14.1124 31.9161C14.1124 31.9161 14.1124 31.9161 14.1124 31.8863C14.0227 31.7368 13.9629 31.5874 13.8732 31.4679C13.8134 31.3483 13.7237 31.1989 13.6639 31.0794C13.5443 30.9001 13.4845 30.7507 13.3948 30.6311Z" fill="url(#paint0_linear)"/>
<path d="M65.4489 57.7957C65.4489 57.736 65.419 57.6463 65.419 57.5865C65.3891 57.467 65.3891 57.3773 65.3592 57.2578C65.3293 57.1682 65.3293 57.0785 65.2994 57.0187C65.2695 56.9291 65.2396 56.8095 65.2396 56.7199C65.2097 56.6302 65.1798 56.5406 65.1798 56.4509C65.1499 56.3613 65.12 56.2716 65.0901 56.1521C65.0603 56.0624 65.0304 55.9728 65.0005 55.8831C64.9706 55.7935 64.9407 55.674 64.9108 55.5843C64.8809 55.4946 64.851 55.405 64.8211 55.3153C64.7912 55.2257 64.7613 55.1062 64.7314 55.0165C64.7015 54.9269 64.6716 54.8073 64.6417 54.7177C64.6118 54.628 64.5819 54.5085 64.552 54.4188C64.5221 54.3292 64.4922 54.2096 64.4324 54.12C64.4025 54.0303 64.3726 53.9108 64.3128 53.8211C64.2829 53.7315 64.2231 53.612 64.1932 53.5223C64.1633 53.4327 64.1035 53.3131 64.0736 53.2235C64.0437 53.1338 63.9839 53.0143 63.954 52.9246C63.8942 52.8051 63.8643 52.7154 63.8045 52.5959C63.7746 52.5062 63.7148 52.3867 63.655 52.2971C63.5952 52.1775 63.5653 52.0879 63.5055 51.9683C63.4457 51.8787 63.4158 51.7591 63.356 51.6695C63.2962 51.55 63.2663 51.4603 63.2065 51.3408C63.1467 51.2511 63.1168 51.1316 63.057 51.0419C62.9972 50.9224 62.9374 50.8327 62.9075 50.7132C62.8477 50.6236 62.7879 50.504 62.758 50.4144C62.6982 50.2948 62.6384 50.2052 62.5786 50.0856C62.5188 49.996 62.459 49.8764 62.3992 49.7868C62.3394 49.6673 62.2796 49.5776 62.2198 49.4581C62.16 49.3385 62.1003 49.2489 62.0405 49.1293C61.9807 49.0397 61.9209 48.9202 61.8611 48.8305C61.6518 48.4719 61.4425 48.1133 61.2033 47.7547C61.1734 47.6949 61.1435 47.665 61.1136 47.6053C60.9043 47.2467 60.6651 46.888 60.4259 46.5294C60.396 46.4697 60.3362 46.4099 60.3063 46.3202C60.1269 46.0214 59.9176 45.7525 59.7382 45.4536C59.7083 45.4237 59.7083 45.3938 59.6784 45.364C59.499 45.095 59.3196 44.826 59.1104 44.5571C59.0506 44.4674 58.9908 44.4077 58.931 44.318C58.7815 44.1387 58.6619 43.9295 58.5124 43.7502C58.4526 43.6905 58.4227 43.6008 58.3629 43.541C58.1835 43.2721 57.9742 43.033 57.7948 42.764C57.735 42.7043 57.7051 42.6445 57.6453 42.5847C57.4958 42.4054 57.3762 42.2261 57.2267 42.0468C57.1669 41.9572 57.0772 41.8675 57.0174 41.7779C56.8978 41.6285 56.7782 41.479 56.6586 41.2997C56.5988 41.24 56.539 41.1503 56.5091 41.0905C56.1504 40.6423 55.7916 40.2239 55.4328 39.7756C55.4029 39.7159 55.3431 39.6561 55.3132 39.6262C54.9544 39.2079 54.5956 38.7895 54.2368 38.3711C54.177 38.3113 54.1471 38.2516 54.0873 38.2217C53.7285 37.8332 53.3996 37.4447 53.0409 37.0562C52.9811 36.9964 52.9512 36.9367 52.8914 36.8769C52.5326 36.4884 52.1738 36.1298 51.815 35.7413C51.7552 35.6815 51.6954 35.6218 51.6356 35.562C51.2768 35.2034 50.9479 34.8448 50.5891 34.4862C50.5293 34.4264 50.4695 34.3666 50.4097 34.3069C50.051 33.9483 49.6922 33.5896 49.3334 33.231C49.3035 33.2012 49.2437 33.1414 49.2138 33.1115C48.855 32.7529 48.4962 32.4242 48.1374 32.0656C48.1075 32.0357 48.0776 32.0058 48.0477 31.9759C47.6889 31.6472 47.36 31.3185 47.0013 30.9897C46.9415 30.93 46.8518 30.8702 46.792 30.8104C46.4631 30.5116 46.1043 30.1829 45.7754 29.884C45.7156 29.8243 45.6558 29.7645 45.596 29.7047C45.297 29.4358 45.0279 29.1967 44.7289 28.9277C44.6691 28.868 44.5794 28.8082 44.5196 28.7484C44.1908 28.4795 43.8619 28.1806 43.5629 27.9117C43.4732 27.8519 43.4134 27.7921 43.3237 27.7324C43.0845 27.5232 42.8154 27.314 42.5762 27.1048C42.4865 27.045 42.3968 26.9554 42.3071 26.8956C42.0081 26.6566 41.739 26.4175 41.44 26.1784C41.4101 26.1784 41.4101 26.1485 41.3803 26.1485C41.0813 25.9095 40.7524 25.6405 40.4534 25.4014C40.3637 25.3417 40.274 25.252 40.1544 25.1922C39.9451 25.0129 39.7059 24.8635 39.4966 24.6842C39.4069 24.5946 39.2873 24.5348 39.1976 24.4451C38.9584 24.2658 38.6893 24.0566 38.4501 23.8773C38.3904 23.8176 38.3306 23.7877 38.2708 23.7279C37.9419 23.4888 37.613 23.2199 37.2841 22.9808C37.1944 22.9211 37.1047 22.8613 37.0449 22.8015C36.7459 22.5923 36.4469 22.3831 36.1778 22.1739C36.118 22.1142 36.0283 22.0544 35.9685 22.0245C35.5499 21.7257 35.1015 21.4268 34.6829 21.128C34.6231 21.0682 34.5334 21.0384 34.4736 20.9786C33.9055 20.5901 33.3374 20.2315 32.7693 19.843C32.7095 19.8131 32.6796 19.7832 32.6199 19.7533C32.2312 19.5143 31.8425 19.2453 31.4538 19.0062C31.3641 18.9465 31.2744 18.8867 31.2146 18.8568C30.8259 18.6177 30.4073 18.3488 30.0186 18.1097C29.5701 17.8408 29.0918 17.5718 28.6433 17.3029C28.4938 17.2132 28.3443 17.1235 28.1948 17.0638C27.8958 16.8845 27.5968 16.7052 27.2978 16.5557C27.1483 16.4661 26.9988 16.3764 26.8493 16.3167C26.5205 16.1374 26.1617 15.9581 25.8328 15.7788C25.6833 15.6891 25.5039 15.5995 25.3544 15.5397C25.0255 15.3604 24.6667 15.1811 24.3378 15.0018C24.2182 14.942 24.0687 14.8822 23.9491 14.7926C23.5007 14.5834 23.0522 14.3443 22.6336 14.165C22.6037 14.165 22.6037 14.1351 22.5738 14.1351C22.1552 13.926 21.7366 13.7467 21.318 13.5673C21.1984 13.5076 21.0489 13.4478 20.9293 13.388C20.6005 13.2386 20.3015 13.1191 20.0025 12.9995C19.853 12.9398 19.7035 12.88 19.554 12.8202C19.255 12.7007 18.956 12.5812 18.657 12.4616C18.5374 12.4019 18.3879 12.372 18.2683 12.3122C17.9693 12.1927 17.6704 12.103 17.3714 11.9835C17.2817 11.9536 17.192 11.9237 17.1023 11.8938C16.7136 11.7743 16.3249 11.6249 15.9661 11.5053C15.7867 11.4456 15.6372 11.4157 15.4877 11.3559C15.3083 11.2962 15.1289 11.2364 14.9495 11.2065C14.8 11.1467 14.6207 11.1169 14.4712 11.087C14.2918 11.0272 14.1423 10.9973 13.9629 10.9376C13.6639 10.8479 13.3649 10.7881 13.0659 10.7284C13.036 10.7284 12.9762 10.6985 12.9463 10.6985C12.6772 10.6387 12.438 10.5789 12.1689 10.5491C12.0792 10.5192 12.0194 10.5192 11.9297 10.5192C11.7205 10.4893 11.5112 10.4594 11.3318 10.4295C11.2421 10.4295 11.1524 10.3996 11.0627 10.3996C10.8534 10.3698 10.674 10.3399 10.4647 10.31C10.4049 10.31 10.3152 10.2801 10.2554 10.2801C9.98631 10.2502 9.74712 10.2203 9.50793 10.2203C9.47803 10.2203 9.44813 10.2203 9.38833 10.2203C9.17904 10.2203 8.96975 10.1904 8.76045 10.1904C8.70065 10.1904 8.64085 10.1904 8.58106 10.1904C8.34187 10.1904 8.10268 10.1904 7.89338 10.1904C7.86348 10.1904 7.83359 10.1904 7.83359 10.1904C7.65419 10.1904 7.47479 10.1904 7.2954 10.2203C7.05621 10.2203 6.84692 10.2502 6.60773 10.2801C6.54793 10.2801 6.48813 10.2801 6.42833 10.31C6.15924 10.3399 5.89015 10.3996 5.65096 10.4295C5.59116 10.4295 5.53136 10.4594 5.47157 10.4594C5.29218 10.4893 5.11278 10.5491 4.93338 10.5789C4.84369 10.6088 4.78389 10.6387 4.69419 10.6387C4.54469 10.6985 4.3952 10.7284 4.2457 10.7881C4.15601 10.818 4.09621 10.8479 4.00652 10.8778C3.85702 10.9376 3.70753 10.9973 3.58793 11.0571C3.52813 11.087 3.46833 11.1169 3.40853 11.1467C3.19924 11.2364 3.01984 11.3559 2.84045 11.4755L2.81055 11.5053C2.63116 11.6249 2.48167 11.7444 2.33217 11.864C2.21258 11.9536 2.09298 12.0731 2.00328 12.1628C1.97338 12.1927 1.97338 12.1927 1.94348 12.2226C1.82389 12.3421 1.70429 12.4616 1.61459 12.5812L9.74712 2.4206C9.80692 2.36083 9.86671 2.30106 9.92651 2.21141C9.98631 2.15164 10.0461 2.09188 10.1059 2.03211C10.1358 2.00222 10.1358 2.00222 10.1657 1.97234C10.2554 1.88269 10.3451 1.79303 10.4647 1.70338C10.4946 1.70338 10.4946 1.6735 10.5245 1.6735C10.674 1.55396 10.8235 1.43443 11.0029 1.31489L11.0328 1.28501C11.2122 1.16547 11.3916 1.04593 11.6009 0.956282C11.6308 0.956282 11.6308 0.926398 11.6308 0.926398C11.6906 0.896514 11.7205 0.896514 11.7803 0.86663C11.9297 0.806862 12.0493 0.747094 12.1988 0.687326C12.2287 0.687326 12.2586 0.657442 12.2885 0.657442C12.3184 0.627558 12.3782 0.627557 12.438 0.597673C12.5875 0.537905 12.737 0.508021 12.8865 0.448253C12.9463 0.418369 12.9762 0.418369 13.036 0.388485C13.0659 0.388485 13.0958 0.358601 13.1257 0.358601C13.3051 0.298833 13.4845 0.268949 13.6639 0.239065C13.7237 0.239065 13.7536 0.209181 13.8134 0.209181H13.8433C14.0825 0.149413 14.3516 0.119529 14.6207 0.0896448H14.6506C14.7104 0.0896448 14.7403 0.0896448 14.8 0.0896448C15.0093 0.0597608 15.2485 0.0597607 15.4877 0.0298767C15.5176 0.0298767 15.5774 0.0298767 15.6073 0.0298767C15.7568 0.0298767 15.8764 0.0298767 16.0259 0.0298767C16.0558 0.0298767 16.0558 0.0298767 16.0857 0.0298767C16.2651 0.0298767 16.4445 0.0298767 16.6239 0.0298767C16.6837 0.0298767 16.7136 0.0298767 16.7734 0.0298767C16.8332 0.0298767 16.893 0.0298767 16.9528 0.0298767C17.1621 0.0298767 17.3714 0.0597607 17.5807 0.0597607C17.6106 0.0597607 17.6405 0.0597607 17.6704 0.0597607H17.7003C17.9394 0.0896448 18.1786 0.0896448 18.4178 0.119529C18.4776 0.119529 18.5673 0.149413 18.6271 0.149413C18.7467 0.149413 18.8663 0.179297 18.956 0.179297C19.0457 0.179297 19.1055 0.209181 19.1952 0.209181C19.2849 0.209181 19.3746 0.239065 19.4643 0.239065C19.6736 0.268949 19.853 0.298833 20.0623 0.328717C20.152 0.328717 20.2118 0.358601 20.3015 0.358601C20.3314 0.358601 20.3613 0.358601 20.3912 0.358601C20.6304 0.388485 20.8396 0.448253 21.0788 0.508021C21.1087 0.508021 21.1685 0.537905 21.1984 0.537905C21.4675 0.597673 21.7665 0.657441 22.0655 0.747094C22.0954 0.747094 22.0954 0.747094 22.1253 0.747094C22.3047 0.776978 22.4542 0.836746 22.6336 0.896514C22.7831 0.926398 22.9625 0.986166 23.112 1.01605C23.2914 1.07582 23.4708 1.1057 23.6203 1.16547C23.7697 1.22524 23.9192 1.25512 24.0687 1.28501H24.0986C24.4873 1.40454 24.8461 1.52408 25.2348 1.6735C25.3245 1.70338 25.4142 1.73327 25.5039 1.76315C25.8029 1.8528 26.1019 1.97234 26.4009 2.09188C26.4308 2.12176 26.4906 2.12176 26.5205 2.12176C26.6101 2.15164 26.6998 2.18153 26.7895 2.2413C27.0885 2.36083 27.3875 2.48037 27.6865 2.5999C27.836 2.65967 27.9855 2.71944 28.135 2.77921C28.434 2.89874 28.7629 3.04816 29.0619 3.1677C29.1516 3.19758 29.2413 3.25735 29.331 3.28724C29.3609 3.31712 29.4207 3.31712 29.4506 3.347C29.8691 3.52631 30.2877 3.70561 30.6764 3.9148C30.7063 3.9148 30.7063 3.94469 30.7362 3.94469C31.1847 4.15387 31.6033 4.36306 32.0518 4.57225C32.0817 4.60213 32.1116 4.60213 32.1714 4.63202C32.2611 4.69179 32.3508 4.72167 32.4704 4.78144C32.7992 4.96074 33.158 5.14005 33.4869 5.31935C33.6364 5.409 33.8158 5.49866 33.9653 5.55842C34.2942 5.73773 34.653 5.91703 34.9819 6.09634C35.0716 6.1561 35.1912 6.21587 35.2809 6.24576C35.3407 6.27564 35.3706 6.30552 35.4304 6.33541C35.7293 6.51471 36.0283 6.66413 36.3273 6.84344C36.4768 6.93309 36.6263 7.02274 36.7758 7.08251C37.2243 7.35147 37.6728 7.62042 38.1512 7.88938C38.5697 8.12845 38.9584 8.39741 39.3471 8.63648C39.4368 8.69625 39.5265 8.75602 39.6162 8.7859C40.0049 9.02497 40.3936 9.29393 40.7823 9.533C40.8122 9.533 40.8122 9.56288 40.8421 9.56288C40.872 9.59277 40.9019 9.59277 40.9318 9.62265C41.4998 9.98126 42.0679 10.3698 42.636 10.7582C42.6659 10.7881 42.6958 10.7881 42.7257 10.818C42.7556 10.8479 42.8154 10.8778 42.8453 10.9077C43.2639 11.2065 43.7124 11.5053 44.131 11.8042C44.1609 11.8341 44.1609 11.8341 44.1908 11.864C44.2506 11.8938 44.2805 11.9536 44.3403 11.9835C44.6392 12.1927 44.9382 12.4019 45.2073 12.6111C45.2671 12.6409 45.3269 12.7007 45.3568 12.7306C45.3867 12.7605 45.4166 12.7605 45.4465 12.7904C45.7754 13.0294 46.1043 13.2685 46.4332 13.5375L46.4631 13.5673C46.5229 13.5972 46.5528 13.657 46.6126 13.6869C46.8518 13.8662 47.1209 14.0754 47.3601 14.2547C47.3899 14.2846 47.4497 14.3144 47.4796 14.3443C47.5394 14.4041 47.5992 14.434 47.659 14.4938C47.8683 14.6731 48.1075 14.8225 48.3168 15.0018C48.3766 15.0615 48.4364 15.0914 48.4962 15.1512C48.5261 15.1811 48.556 15.211 48.5859 15.2409C48.8849 15.4799 49.2138 15.7489 49.5128 15.988C49.5427 15.988 49.5427 16.0178 49.5726 16.0178C49.8716 16.2569 50.1407 16.496 50.4396 16.7351C50.4695 16.7649 50.4994 16.7948 50.5592 16.8247C50.619 16.8546 50.6788 16.9144 50.7087 16.9442C50.9479 17.1534 51.217 17.3626 51.4562 17.5718C51.516 17.6017 51.5758 17.6615 51.6057 17.6913C51.6356 17.7212 51.6655 17.7212 51.6655 17.7511C51.9944 18.0201 52.3233 18.3189 52.6223 18.5879C52.6522 18.6177 52.6821 18.6177 52.6821 18.6476C52.7419 18.6775 52.7718 18.7373 52.8017 18.7672C53.1007 19.0361 53.3697 19.2752 53.6687 19.5442C53.6986 19.574 53.7584 19.6338 53.7883 19.6637C53.8182 19.6936 53.8182 19.6936 53.8481 19.7235C54.2069 20.0223 54.5358 20.351 54.8647 20.6499C54.8946 20.6797 54.9245 20.7096 54.9544 20.7395C54.9843 20.7694 55.0441 20.7993 55.074 20.8591C55.4328 21.1878 55.7916 21.5165 56.1205 21.8452C56.1205 21.8452 56.1504 21.8452 56.1504 21.8751C56.1803 21.905 56.1803 21.905 56.2101 21.9349C56.5689 22.2935 56.9277 22.6222 57.2865 22.9808C57.3164 23.0107 57.3463 23.0406 57.3762 23.0705L57.4061 23.1004C57.7649 23.459 58.1237 23.8176 58.4825 24.1762C58.5124 24.2061 58.5423 24.2359 58.5722 24.2658C58.6021 24.2957 58.632 24.3256 58.632 24.3256C58.9908 24.6842 59.3495 25.0428 59.6784 25.4014C59.7083 25.4313 59.7382 25.4612 59.7681 25.4911C59.798 25.521 59.8279 25.5508 59.8578 25.5807C60.2166 25.9692 60.5754 26.3278 60.9342 26.7163C60.9641 26.7462 60.994 26.7761 60.994 26.806C61.0239 26.8359 61.0538 26.8657 61.0837 26.8956C61.4425 27.2841 61.8013 27.6726 62.1301 28.0611C62.16 28.091 62.16 28.1209 62.1899 28.1209C62.2198 28.1508 62.2497 28.1806 62.2796 28.2105C62.6384 28.6289 62.9972 29.0473 63.356 29.4657C63.3859 29.4955 63.3859 29.5254 63.4158 29.5553C63.4457 29.5852 63.4457 29.6151 63.4756 29.645C63.8344 30.0932 64.2231 30.5415 64.552 30.9599C64.5819 30.9897 64.6118 31.0196 64.6118 31.0495C64.6417 31.0794 64.6716 31.1392 64.7015 31.169C64.8211 31.3185 64.9407 31.4978 65.0603 31.6472C65.12 31.7368 65.2097 31.8265 65.2695 31.9161C65.419 32.0955 65.5386 32.2748 65.6881 32.4541C65.718 32.5138 65.7778 32.5736 65.8077 32.6334C65.8077 32.6334 65.8077 32.6632 65.8376 32.6632C66.0469 32.9322 66.2263 33.1713 66.4057 33.4402C66.4655 33.5 66.4954 33.5896 66.5552 33.6494C66.7047 33.8287 66.8243 34.0379 66.9738 34.2172C67.0037 34.2471 67.0336 34.3069 67.0635 34.3368C67.0934 34.3666 67.1233 34.4264 67.1532 34.4563C67.3326 34.7252 67.5419 34.9942 67.7213 35.2632C67.7512 35.293 67.7512 35.3229 67.7811 35.3528C67.9904 35.6516 68.1697 35.9206 68.3491 36.2194C68.379 36.2493 68.379 36.2792 68.4089 36.3091C68.4388 36.339 68.4388 36.3689 68.4687 36.3988C68.7079 36.7574 68.9172 37.116 69.1564 37.4746C69.1863 37.5343 69.2162 37.5642 69.2461 37.624C69.4853 37.9826 69.6946 38.3412 69.9039 38.6998C69.9039 38.6998 69.9039 38.6998 69.9039 38.7297C69.9637 38.8194 70.0235 38.9389 70.0833 39.0285C70.1431 39.1182 70.2029 39.2377 70.2627 39.3274C70.3225 39.4469 70.3823 39.5366 70.4421 39.6561C70.5019 39.7458 70.5617 39.8653 70.6215 39.9549C70.6813 40.0745 70.7411 40.1641 70.8009 40.2837C70.8607 40.3733 70.9205 40.4929 70.9504 40.5825C71.0101 40.702 71.0699 40.7917 71.0998 40.9112C71.1596 41.0009 71.1895 41.1204 71.2493 41.2101C71.3091 41.3296 71.3689 41.4193 71.3988 41.5388C71.4586 41.6285 71.4885 41.748 71.5483 41.8376C71.6081 41.9572 71.638 42.0468 71.6978 42.1664C71.7277 42.256 71.7875 42.3457 71.8174 42.4353C71.8772 42.5549 71.9071 42.6744 71.9669 42.764C71.9968 42.8537 72.0566 42.9434 72.0865 43.033C72.1463 43.1525 72.1762 43.2422 72.236 43.3617C72.2659 43.4514 72.2958 43.541 72.3556 43.6307C72.3855 43.7502 72.4453 43.8399 72.4752 43.9594C72.5051 44.0491 72.535 44.1387 72.5649 44.2284C72.5948 44.3479 72.6546 44.4376 72.6845 44.5571C72.7144 44.6467 72.7443 44.7364 72.7742 44.826C72.8041 44.9456 72.834 45.0352 72.8639 45.1548C72.8938 45.2444 72.9237 45.3341 72.9536 45.4237C72.9835 45.5433 73.0134 45.6329 73.0433 45.7226C73.0732 45.8122 73.1031 45.9019 73.133 45.9915C73.1629 46.1111 73.1928 46.2007 73.2227 46.3202C73.2526 46.4099 73.2526 46.4697 73.2825 46.5593C73.3124 46.6789 73.3423 46.7685 73.3722 46.888C73.4021 46.9777 73.4021 47.0375 73.432 47.1271C73.4619 47.2467 73.4918 47.3662 73.4918 47.4857C73.4918 47.5455 73.5217 47.6053 73.5217 47.665C73.5516 47.8443 73.5815 48.0236 73.6114 48.2029C74 50.9224 73.5217 53.0143 72.3257 54.4786L63.9839 64.5196C65.1798 63.0852 65.6582 60.9933 65.2695 58.244C65.5087 58.1244 65.4788 57.975 65.4489 57.7957Z" fill="url(#paint1_linear)"/>
<path d="M0.119583 18.7373C1.76403 30.0633 17.7301 48.0834 35.7891 59.021C53.8481 69.9585 67.1531 69.6298 65.5386 58.3336C63.8941 47.0076 47.9281 28.9875 29.8691 18.05C11.8101 7.1124 -1.52486 7.44112 0.119583 18.7373ZM53.9378 51.3109C54.9842 58.6325 46.4032 58.8118 34.7127 51.7591C23.0521 44.7065 12.737 33.0517 11.6905 25.7301C10.644 18.4086 19.225 18.2293 30.8856 25.2819C42.5761 32.3644 52.8913 43.9893 53.9378 51.3109Z" fill="url(#paint2_linear)"/>
<defs>
<linearGradient id="paint0_linear" x1="48.1877" y1="49.5594" x2="2.43448" y2="7.03364" gradientUnits="userSpaceOnUse">
<stop offset="0.0180353" stop-color="#5E94F8"/>
<stop offset="0.145833" stop-color="#437EEB"/>
<stop offset="0.520833" stop-color="#1652BC"/>
<stop offset="1" stop-color="#417DE9"/>
</linearGradient>
<linearGradient id="paint1_linear" x1="8.31762" y1="-1.22895" x2="74.0157" y2="57.64" gradientUnits="userSpaceOnUse">
<stop offset="0.0104167" stop-color="#5E95F8"/>
<stop offset="0.213542" stop-color="#4781ED"/>
<stop offset="0.385417" stop-color="#2D68D4"/>
<stop offset="0.53125" stop-color="#2A69D8"/>
<stop offset="0.697917" stop-color="#215DC7"/>
<stop offset="0.833333" stop-color="#4782EA"/>
<stop offset="1" stop-color="#5E95F8"/>
</linearGradient>
<linearGradient id="paint2_linear" x1="21.2906" y1="51.0751" x2="39.6987" y2="31.0327" gradientUnits="userSpaceOnUse">
<stop offset="0.1673" stop-color="#74A2F4"/>
<stop offset="0.7823" stop-color="#3070E1"/>
</linearGradient>
</defs>
</svg>
