<svg width="12" height="12" viewBox="0 0 12 12" fill="none" xmlns="http://www.w3.org/2000/svg">
<path d="M7.09939 6.00981L11.772 1.33711C12.076 1.03317 12.076 0.541737 11.772 0.237797C11.468 -0.0661431 10.9766 -0.0661431 10.6727 0.237797L5.99994 4.9105L1.32737 0.237797C1.02329 -0.0661431 0.532003 -0.0661431 0.228062 0.237797C-0.0760207 0.541737 -0.0760207 1.03317 0.228062 1.33711L4.90063 6.00981L0.228062 10.6825C-0.0760207 10.9865 -0.0760207 11.4779 0.228062 11.7818C0.379534 11.9334 0.578697 12.0096 0.777717 12.0096C0.976738 12.0096 1.17576 11.9334 1.32737 11.7818L5.99994 7.10912L10.6727 11.7818C10.8243 11.9334 11.0233 12.0096 11.2223 12.0096C11.4213 12.0096 11.6203 11.9334 11.772 11.7818C12.076 11.4779 12.076 10.9865 11.772 10.6825L7.09939 6.00981Z" fill="#BCBDC7"/>
</svg>
