<svg width="21" height="21" viewBox="0 0 21 21" fill="none" xmlns="http://www.w3.org/2000/svg">
<path d="M12.4239 10.5172L20.6009 2.33996C21.1331 1.80806 21.1331 0.948059 20.6009 0.416164C20.069 -0.115731 19.209 -0.115731 18.6771 0.416164L10.4999 8.5934L2.3229 0.416164C1.79076 -0.115731 0.931005 -0.115731 0.399109 0.416164C-0.133036 0.948059 -0.133036 1.80806 0.399109 2.33996L8.5761 10.5172L0.399109 18.6944C-0.133036 19.2263 -0.133036 20.0863 0.399109 20.6182C0.664185 20.8836 1.01272 21.0168 1.36101 21.0168C1.70929 21.0168 2.05758 20.8836 2.3229 20.6182L10.4999 12.441L18.6771 20.6182C18.9425 20.8836 19.2908 21.0168 19.639 21.0168C19.9873 21.0168 20.3356 20.8836 20.6009 20.6182C21.1331 20.0863 21.1331 19.2263 20.6009 18.6944L12.4239 10.5172Z" fill="white"/>
</svg>
