<svg width="292" height="189" viewBox="0 0 292 189" fill="none" xmlns="http://www.w3.org/2000/svg">
<path d="M82.3498 152.006C79.1853 150.136 79.1853 147.187 82.2779 145.317L142.476 110.363C145.64 108.493 150.819 108.493 153.983 110.363L214.541 145.317C217.705 147.115 217.705 150.136 214.541 152.006L154.415 186.959C151.25 188.829 146.072 188.829 142.907 186.959L82.3498 152.006Z" fill="url(#paint0_linear)"/>
<path d="M88.4631 149.596L3.23645 31.2857L0 0H292V27.6897L208.571 149.596H88.4631Z" fill="url(#paint1_linear)"/>
<path d="M90.5526 151.815C87.7771 150.172 87.7771 147.581 90.4895 145.938L143.286 115.227C146.061 113.584 150.603 113.584 153.378 115.227L206.49 145.938C209.265 147.518 209.265 150.172 206.49 151.815L153.757 182.526C150.981 184.169 146.44 184.169 143.664 182.526L90.5526 151.815Z" fill="white"/>
<g clip-path="url(#clip0)">
<path d="M149.093 156.645C148.661 156.645 148.23 156.573 147.942 156.357L137.945 150.603C137.585 150.387 137.369 150.028 137.369 149.668C137.369 149.309 137.585 149.021 137.945 148.805L147.87 143.051C148.517 142.692 149.524 142.692 150.171 143.051L160.168 148.805C160.528 149.021 160.744 149.381 160.744 149.74C160.744 150.1 160.528 150.459 160.168 150.675L150.171 156.429C149.956 156.573 149.524 156.645 149.093 156.645ZM149.093 143.555C148.805 143.555 148.517 143.627 148.373 143.699L138.448 149.452C138.232 149.596 138.161 149.668 138.161 149.74C138.161 149.812 138.232 149.884 138.376 149.956L148.373 155.71C148.733 155.925 149.452 155.925 149.884 155.71L159.809 149.956C159.953 149.884 160.025 149.812 160.025 149.74C160.025 149.668 159.953 149.596 159.809 149.524L149.812 143.771C149.596 143.627 149.38 143.555 149.093 143.555Z" fill="url(#paint2_linear)"/>
<path d="M149.093 153.983C148.805 153.983 148.517 153.911 148.301 153.768L142.404 150.387C142.116 150.243 141.972 149.956 141.972 149.668C141.972 149.38 142.116 149.165 142.404 149.021L148.301 145.569C148.733 145.353 149.452 145.353 149.812 145.569L155.781 149.021C156.069 149.165 156.213 149.38 156.213 149.668C156.213 149.956 156.069 150.172 155.781 150.387L149.884 153.839C149.668 153.911 149.38 153.983 149.093 153.983ZM142.907 149.74L148.805 153.12C148.949 153.192 149.308 153.192 149.524 153.12L155.35 149.74L149.452 146.36C149.308 146.288 148.877 146.288 148.733 146.36L142.907 149.74Z" fill="url(#paint3_linear)"/>
</g>
<defs>
<linearGradient id="paint0_linear" x1="148.444" y1="188.366" x2="148.444" y2="108.996" gradientUnits="userSpaceOnUse">
<stop stop-color="#F1F4FE"/>
<stop offset="0.5797" stop-color="#F7F9FE"/>
<stop offset="1" stop-color="white"/>
</linearGradient>
<linearGradient id="paint1_linear" x1="146.719" y1="61.8522" x2="146.719" y2="149.596" gradientUnits="userSpaceOnUse">
<stop stop-color="#FBFCFF" stop-opacity="0.42"/>
<stop offset="1" stop-color="#DCE1FD"/>
</linearGradient>
<linearGradient id="paint2_linear" x1="137.369" y1="149.718" x2="160.82" y2="149.718" gradientUnits="userSpaceOnUse">
<stop stop-color="#437FEC"/>
<stop offset="0.5438" stop-color="#48B2ED"/>
<stop offset="1" stop-color="#4CD9ED"/>
</linearGradient>
<linearGradient id="paint3_linear" x1="141.987" y1="149.72" x2="156.218" y2="149.72" gradientUnits="userSpaceOnUse">
<stop stop-color="#437FEC"/>
<stop offset="0.5438" stop-color="#48B2ED"/>
<stop offset="1" stop-color="#4CD9ED"/>
</linearGradient>
<clipPath id="clip0">
<rect width="23.4463" height="13.8808" fill="white" transform="translate(137.369 142.764)"/>
</clipPath>
</defs>
</svg>
