<svg width="56" height="56" viewBox="0 0 56 56" fill="none" xmlns="http://www.w3.org/2000/svg">
<path d="M0.5 28C0.5 12.836 12.836 0.5 28 0.5C43.164 0.5 55.5 12.8382 55.5 28C55.5 43.1618 43.164 55.5 28 55.5C12.836 55.5 0.5 43.164 0.5 28ZM3.8377 28C3.8377 41.3241 14.6782 52.1623 28 52.1623C41.3218 52.1623 52.1623 41.3241 52.1623 28C52.1623 14.676 41.324 3.8377 28 3.8377C14.6782 3.8377 3.8377 14.6759 3.8377 28Z" fill="#D02F2F" stroke="white"/>
<path d="M29.4239 28.5L37.6009 20.3227C38.1331 19.7908 38.1331 18.9308 37.6009 18.3989C37.069 17.867 36.209 17.867 35.6771 18.3989L27.4999 26.5762L19.3229 18.3989C18.7908 17.867 17.931 17.867 17.3991 18.3989C16.867 18.9308 16.867 19.7908 17.3991 20.3227L25.5761 28.5L17.3991 36.6772C16.867 37.2091 16.867 38.0691 17.3991 38.601C17.6642 38.8663 18.0127 38.9996 18.361 38.9996C18.7093 38.9996 19.0576 38.8663 19.3229 38.601L27.4999 30.4237L35.6771 38.601C35.9425 38.8663 36.2908 38.9996 36.639 38.9996C36.9873 38.9996 37.3356 38.8663 37.6009 38.601C38.1331 38.0691 38.1331 37.2091 37.6009 36.6772L29.4239 28.5Z" fill="#D02F2F"/>
</svg>
