<svg width="25" height="23" viewBox="0 0 25 23" fill="none" xmlns="http://www.w3.org/2000/svg">
<path d="M22.4999 0.250004C21.122 0.247514 20.0029 1.36255 20.0004 2.74053C19.9993 3.38999 20.2514 4.01436 20.7033 4.48086L16.1358 13.6142C16.0357 13.5976 15.9347 13.5873 15.8333 13.5834C15.5105 13.584 15.191 13.6475 14.8925 13.7701L11.3466 9.78257C11.5536 9.4166 11.6638 9.00386 11.6666 8.5834C11.6666 7.20269 10.5474 6.0834 9.16664 6.0834C7.78592 6.0834 6.66664 7.20269 6.66664 8.5834C6.66908 9.18018 6.8869 9.75601 7.27997 10.2051L2.94662 17.795C2.79935 17.7667 2.64989 17.7516 2.49994 17.75C1.11923 17.75 -6.10352e-05 18.8693 -6.10352e-05 20.25C-6.10352e-05 21.6307 1.11923 22.75 2.49994 22.75C3.88065 22.75 4.99994 21.6307 4.99994 20.25C4.9975 19.6532 4.77968 19.0774 4.38661 18.6283L8.71996 11.0383C9.18514 11.1302 9.66718 11.0809 10.1041 10.8967L13.65 14.8842C13.4442 15.2504 13.3351 15.6632 13.3333 16.0834C13.3292 17.4641 14.4451 18.5867 15.8258 18.5909C17.2065 18.595 18.3291 17.4792 18.3333 16.0984C18.3352 15.4471 18.0829 14.8207 17.63 14.3525L22.1974 5.21919C22.2975 5.23579 22.3986 5.2461 22.4999 5.25C23.8807 5.25 24.9999 4.13072 24.9999 2.75C24.9999 1.36929 23.8807 0.250004 22.4999 0.250004ZM2.49994 21.0834C2.03969 21.0834 1.66659 20.7103 1.66659 20.25C1.66659 19.7897 2.03969 19.4167 2.49994 19.4167C2.96019 19.4167 3.33329 19.7897 3.33329 20.25C3.33329 20.7103 2.96019 21.0834 2.49994 21.0834ZM9.16659 9.41665C8.70634 9.41665 8.33324 9.04356 8.33324 8.5833C8.33324 8.12305 8.70634 7.74996 9.16659 7.74996C9.62684 7.74996 9.99994 8.12305 9.99994 8.5833C9.99994 9.04356 9.62684 9.41665 9.16659 9.41665ZM15.8333 16.9167C15.373 16.9167 14.9999 16.5436 14.9999 16.0833C14.9999 15.623 15.373 15.25 15.8333 15.25C16.2935 15.25 16.6666 15.623 16.6666 16.0833C16.6666 16.5436 16.2935 16.9167 15.8333 16.9167ZM22.4999 3.58335C22.0397 3.58335 21.6666 3.21026 21.6666 2.75C21.6666 2.28975 22.0397 1.91665 22.4999 1.91665C22.9602 1.91665 23.3333 2.28975 23.3333 2.75C23.3333 3.21026 22.9602 3.58335 22.4999 3.58335Z" fill="#316AD1"/>
</svg>
