<svg width="177" height="159" viewBox="0 0 177 159" fill="none" xmlns="http://www.w3.org/2000/svg">
<path d="M177 122.265C177 122.309 177 122.309 177 122.354C177 122.399 177 122.444 177 122.489C177 122.534 177 122.578 177 122.623V122.668V122.713C177 122.713 177 122.713 177 122.758C177 122.758 177 122.758 177 122.803V122.847V122.892V122.937V122.982V123.027V123.072C177 123.072 177 123.072 177 123.116C177 123.161 177 123.161 177 123.206C177 123.251 177 123.296 177 123.296C177 123.341 177 123.385 177 123.43V123.475V123.52C177 123.565 177 123.61 177 123.654C177 123.699 177 123.744 177 123.789C177 123.789 177 123.789 177 123.834C177 123.834 177 123.834 177 123.879V123.923C177 123.968 177 123.968 177 124.013C177 124.013 177 124.013 177 124.058V124.103V124.148V124.192C177 124.237 177 124.237 177 124.282C177 124.327 177 124.372 177 124.417C177 124.417 177 124.417 177 124.461V124.506V124.551C177 124.596 177 124.596 177 124.641V124.686C177 124.686 177 124.686 177 124.73C177 124.775 177 124.775 177 124.82C177 124.82 177 124.82 177 124.865C177 124.865 177 124.865 177 124.91C177 124.91 177 124.91 177 124.955C177 124.955 177 124.955 177 124.999C177 124.999 177 124.999 177 125.044C177 125.089 177 125.089 177 125.134C177 125.179 177 125.179 177 125.224V125.268C177 125.268 177 125.268 177 125.313V125.358C177 125.403 177 125.403 177 125.448C177 125.493 177 125.493 177 125.538V125.582C177 125.627 177 125.627 177 125.672C177 125.717 177 125.717 177 125.762C177 125.762 177 125.762 177 125.807V125.851C177 125.851 177 125.851 177 125.896V125.941V125.986C177 126.031 177 126.031 177 126.076C177 126.12 177 126.165 177 126.21C177 126.21 177 126.21 177 126.255C177 126.255 177 126.255 177 126.3C177 126.345 177 126.345 177 126.389V126.434V126.479V126.524C177 126.569 177 126.569 177 126.614C177 126.658 177 126.658 177 126.703C177 126.703 177 126.703 177 126.748V126.793V126.838V126.883V126.927C177 126.972 177 126.972 176.955 127.017C176.955 127.062 176.955 127.107 176.91 127.107V127.152V127.196V127.241V127.286V127.331V127.376C176.91 127.376 176.91 127.376 176.91 127.421V127.465V127.51V127.555C176.91 127.555 176.91 127.555 176.91 127.6C176.91 127.645 176.91 127.645 176.865 127.69V127.734C176.865 127.734 176.865 127.734 176.865 127.779C176.865 127.779 176.865 127.779 176.865 127.824C176.865 127.869 176.865 127.869 176.82 127.914C176.82 127.959 176.82 127.959 176.775 128.003V128.048V128.093V128.138V128.183C176.775 128.183 176.775 128.228 176.73 128.228C176.73 128.272 176.73 128.272 176.684 128.317V128.362V128.407C176.684 128.407 176.684 128.407 176.684 128.452C176.684 128.452 176.684 128.452 176.684 128.497C176.684 128.497 176.684 128.541 176.639 128.541C176.639 128.541 176.639 128.586 176.594 128.586V128.631C176.594 128.631 176.594 128.631 176.594 128.676C176.594 128.676 176.594 128.721 176.549 128.721C176.549 128.721 176.549 128.766 176.504 128.766C176.504 128.766 176.504 128.81 176.459 128.81V128.855C176.459 128.855 176.459 128.855 176.459 128.9C176.459 128.9 176.459 128.945 176.414 128.945V128.99V129.035V129.079C176.414 129.079 176.414 129.079 176.414 129.124C176.414 129.124 176.414 129.124 176.414 129.169C176.414 129.169 176.414 129.214 176.369 129.214C176.369 129.214 176.369 129.259 176.324 129.259V129.304C176.324 129.304 176.324 129.348 176.279 129.348C176.279 129.348 176.279 129.393 176.234 129.393C176.234 129.393 176.234 129.393 176.234 129.438V129.483C176.234 129.483 176.234 129.528 176.189 129.528C176.189 129.528 176.189 129.528 176.189 129.573C176.189 129.573 176.189 129.617 176.144 129.617C176.144 129.617 176.144 129.617 176.144 129.662C176.144 129.662 176.144 129.707 176.099 129.707C176.099 129.707 176.099 129.752 176.053 129.752C176.053 129.752 176.053 129.797 176.008 129.797C176.008 129.797 176.008 129.797 176.008 129.842C176.008 129.842 176.008 129.886 175.963 129.886C175.963 129.886 175.963 129.931 175.918 129.931C175.918 129.931 175.918 129.976 175.873 129.976C175.873 130.021 175.828 130.021 175.828 130.066C175.828 130.066 175.828 130.111 175.783 130.111L175.738 130.155C175.738 130.155 175.738 130.2 175.693 130.2C175.693 130.2 175.693 130.2 175.693 130.245C175.693 130.245 175.693 130.29 175.648 130.29C175.648 130.29 175.648 130.29 175.648 130.335C175.648 130.335 175.648 130.335 175.648 130.38L175.603 130.424C175.603 130.424 175.603 130.424 175.558 130.469L175.513 130.514C175.513 130.514 175.513 130.514 175.513 130.559L175.467 130.604L175.422 130.649C175.422 130.649 175.422 130.649 175.422 130.694L175.377 130.738C175.377 130.738 175.377 130.738 175.332 130.783C175.332 130.783 175.332 130.783 175.332 130.828C175.332 130.828 175.332 130.828 175.287 130.873C175.287 130.873 175.287 130.873 175.242 130.918C175.242 130.918 175.242 130.918 175.197 130.963C175.197 130.963 175.197 130.963 175.152 131.007C175.152 131.007 175.152 131.052 175.107 131.052C175.107 131.052 175.107 131.097 175.062 131.097C175.062 131.097 175.062 131.142 175.017 131.142L174.972 131.187L174.927 131.232L174.882 131.276L174.836 131.321L174.791 131.366C174.791 131.366 174.791 131.366 174.791 131.411C174.656 131.545 174.566 131.635 174.431 131.77C169.969 135.625 167.85 137.508 164.695 139.75C164.064 140.199 163.478 140.647 162.892 141.05C159.782 143.202 155.455 145.803 152.075 147.507C151.489 147.776 150.768 148.179 149.821 148.627C146.26 150.331 142.88 151.766 138.057 153.38C137.246 153.649 136.39 153.918 135.488 154.187C132.153 155.173 128.412 156.115 124.4 156.787C122.778 157.056 120.704 157.415 118.856 157.639C116.738 157.908 114.89 158.043 112.862 158.132C112.591 158.132 112.321 158.177 112.005 158.177L108.895 158.222C107.859 158.222 106.732 158.267 105.47 158.267C103.487 158.312 101.098 158.132 98.799 157.908C96.6356 157.774 95.1482 157.594 92.8945 157.236C92.8495 157.236 92.8044 157.236 92.7593 157.236C90.6409 156.967 87.8915 156.474 84.8265 155.711C83.3391 155.353 81.4912 154.859 80.0939 154.501C79.4178 154.321 78.6967 154.097 77.9304 153.828C77.7051 153.783 77.4797 153.694 77.2994 153.649L76.9388 153.514C73.7838 152.528 70.7188 151.362 68.0595 150.152C67.3835 149.838 66.6623 149.524 65.8961 149.165L64.7242 148.627C64.3185 148.403 63.8678 148.179 63.372 147.955C62.741 147.641 62.11 147.327 61.524 147.013C60.5324 146.52 59.4958 145.893 58.5042 145.354C57.7379 144.906 57.0168 144.503 56.4308 144.144C50.2559 140.423 42.7738 134.998 35.4721 127.062C34.9763 126.569 34.5706 126.076 34.1199 125.582L34.0298 125.448C33.9396 125.358 33.8495 125.224 33.7142 125.089C33.6241 124.999 33.534 124.91 33.4438 124.82C33.3987 124.73 33.3086 124.686 33.2635 124.596C32.9029 124.192 32.5424 123.744 32.1818 123.341C32.1818 123.341 32.1818 123.341 32.1818 123.296C31.7311 122.803 31.0099 121.906 30.2437 120.875L30.1986 120.83C30.1986 120.83 30.1986 120.785 30.1535 120.785C29.4774 119.933 28.8013 118.992 28.1703 118.185C27.7647 117.647 27.359 117.019 26.9083 116.391L26.097 115.225C25.9618 115.001 25.7815 114.732 25.6012 114.463C25.1054 113.701 24.6096 112.939 24.1138 112.132C23.7983 111.684 23.4828 111.146 23.1673 110.563C21.9954 108.59 20.6883 106.214 19.3812 103.524C19.3361 103.434 19.291 103.344 19.2459 103.21C19.2459 103.21 19.2459 103.165 19.2009 103.165C19.0206 102.761 18.7952 102.313 18.5699 101.865C18.5248 101.73 18.4797 101.641 18.3896 101.506C18.3445 101.372 18.2544 101.192 18.2093 101.058C17.8487 100.251 17.4881 99.3988 17.0825 98.5021C17.0374 98.4124 16.9923 98.3228 16.9472 98.2331C16.6768 97.6054 16.4064 96.9777 16.181 96.2604C15.8204 95.3637 15.5049 94.4221 15.1443 93.4806C15.1443 93.4358 15.0993 93.3909 15.0993 93.3909L14.6485 92.1356C14.6936 92.2252 14.7387 92.3597 14.7387 92.4494C14.5584 91.8665 14.333 91.2837 14.1527 90.7008C14.1077 90.5663 14.0626 90.4767 14.0175 90.3422C13.7471 89.4903 13.4316 88.4591 13.1612 87.4279C12.9358 86.576 12.6654 85.6794 12.44 84.7827C12.3949 84.6481 12.3498 84.5136 12.3498 84.3791C11.854 82.5409 11.3582 80.075 11.0427 78.1919C11.0427 78.1023 10.9977 78.0574 10.9977 77.9678V77.9229C10.9977 77.8781 10.9977 77.8781 10.9977 77.8333L10.9526 77.5642C10.9075 77.2952 10.8625 77.0711 10.8174 76.8021V76.7124V76.7572C10.8174 76.6675 10.7723 76.6227 10.7723 76.533C10.5469 75.3673 10.4117 74.3361 10.2765 73.0359C10.2314 72.7669 10.2314 72.4531 10.1864 72.1841V72.1392C10.0962 71.5564 10.0511 70.9735 10.0061 70.3458V70.301C9.961 69.8975 9.91593 69.5388 9.91593 69.0905C9.78071 67.2971 9.64549 65.414 9.60042 63.5309V63.4861V63.0378C9.60042 62.8584 9.60042 62.6791 9.60042 62.4997C9.60042 62.4549 9.60042 62.4101 9.60042 62.3204V61.7375C9.60042 61.603 9.60042 61.4237 9.60042 61.2892V61.1099V61.2444C9.60042 59.72 9.60042 58.1956 9.69056 56.6712C9.73564 55.64 9.78071 54.5191 9.87085 53.3983C10.1864 49.1838 10.7723 45.0142 11.6287 40.9342C12.1696 38.2889 12.9358 35.285 13.702 32.7743C15.0091 28.5149 16.5867 24.3005 18.5248 20.2205C18.8403 19.548 19.1558 18.8755 19.4262 18.2478C19.5615 17.9339 19.7417 17.6201 19.877 17.3062C20.6432 15.7819 21.4996 14.1678 22.4461 12.5089C22.5813 12.3296 22.6715 12.1054 22.8067 11.8812C22.8518 11.8364 22.8518 11.7916 22.8968 11.7467C22.8968 11.7467 22.8968 11.7467 22.8968 11.7019C24.2039 9.50498 25.6913 7.12874 27.4942 4.61799L27.8097 4.21447C27.8548 4.16964 27.8999 4.1248 27.8999 4.07997C27.945 4.03513 27.945 4.03513 27.99 3.9903C28.0351 3.94546 28.0351 3.94546 28.0802 3.90063C28.1252 3.85579 28.1252 3.85579 28.1703 3.81096C28.2154 3.72129 28.3055 3.67646 28.3506 3.58679C28.3957 3.54195 28.4408 3.49712 28.4858 3.40745C28.5309 3.36261 28.5309 3.36261 28.576 3.31778C28.621 3.27294 28.6661 3.22811 28.7112 3.18327L28.7563 3.13844C28.8013 3.13844 28.8013 3.0936 28.8464 3.0936C28.8915 3.04877 28.9366 3.00393 28.9816 2.9591C29.0267 2.91426 29.0718 2.86943 29.1168 2.82459C29.1619 2.77976 29.207 2.73492 29.2521 2.69009C29.3422 2.64525 29.3873 2.55558 29.4774 2.51075C29.5676 2.46592 29.6126 2.42108 29.7028 2.33141C28.8464 2.60042 28.8464 2.55558 28.8915 2.55558C28.9816 2.51075 29.0267 2.46592 29.1168 2.37625C29.1619 2.33141 29.2521 2.28658 29.2971 2.24174C29.4324 2.15207 29.5676 2.0624 29.7028 1.97273C29.7929 1.9279 29.838 1.88306 29.9282 1.83823C29.9732 1.79339 30.0183 1.79339 30.1084 1.74856C30.469 1.56922 30.8747 1.34504 31.2803 1.21054C31.3254 1.16571 31.4155 1.16571 31.4606 1.12087C31.5958 1.07604 31.686 1.0312 31.8212 0.986366H31.8663H31.9113H31.9564C31.9564 0.986366 31.9564 0.986366 32.0015 0.986366C32.0015 0.986366 32.0015 0.986366 32.0466 0.986366C32.0466 0.986366 32.0466 0.986366 32.0916 0.986366H32.1367H32.1818C32.2269 0.986366 32.2269 0.986366 32.2719 0.986366C32.317 0.986366 32.317 0.986366 32.3621 0.941531H32.4071C32.4071 0.941531 32.4071 0.941531 32.4522 0.941531C32.4973 0.941531 32.5424 0.941531 32.5424 0.896696C32.5874 0.896696 32.5874 0.896696 32.6325 0.851862C32.6776 0.851862 32.6776 0.851862 32.7226 0.807027C32.7677 0.807027 32.7677 0.807027 32.8128 0.807027C32.8128 0.807027 32.8128 0.807027 32.8579 0.807027H32.9029H32.948H32.9931H33.0382H33.0832C33.0832 0.807027 33.0832 0.807027 33.1283 0.807027C33.1283 0.807027 33.1283 0.807027 33.1734 0.807027C33.2184 0.807027 33.2184 0.807027 33.2635 0.762192C33.3086 0.762192 33.3537 0.762192 33.3987 0.717357H33.4438C33.4889 0.717357 33.4889 0.717357 33.534 0.717357C33.579 0.717357 33.579 0.717357 33.6241 0.717357C33.6241 0.717357 33.6241 0.717357 33.6692 0.717357H33.7142H33.7593C33.8044 0.717357 33.8495 0.717357 33.8945 0.672522C33.9396 0.672522 33.9847 0.672522 34.0298 0.627688C34.0748 0.627688 34.0748 0.627688 34.1199 0.627688H34.165C34.21 0.627688 34.21 0.627688 34.2551 0.627688C34.2551 0.627688 34.2551 0.627688 34.3002 0.627688C34.3453 0.627688 34.3453 0.627688 34.3903 0.627688C34.4354 0.627688 34.4354 0.627688 34.4805 0.627688H34.5256H34.5706H34.6157C34.6608 0.627688 34.7058 0.627688 34.7509 0.627688C34.796 0.627688 34.8411 0.627688 34.8861 0.582853H34.9312H34.9763C35.0213 0.582853 35.0214 0.582853 35.0664 0.582853H35.1115H35.1566H35.2016C35.2467 0.582853 35.2918 0.582853 35.2918 0.582853C35.3369 0.582853 35.3369 0.582853 35.3819 0.582853H35.427C35.4721 0.582853 35.4721 0.582853 35.5171 0.582853H35.5622H35.6073C35.6524 0.582853 35.6524 0.582853 35.6974 0.582853C35.6974 0.582853 35.6974 0.582853 35.7425 0.582853H35.7876H35.8327H35.8777C35.9228 0.582853 35.9679 0.582853 36.0129 0.582853C36.058 0.582853 36.1031 0.582853 36.1482 0.582853H36.1932C36.2383 0.582853 36.2834 0.582853 36.3285 0.582853C36.3735 0.582853 36.3735 0.582853 36.4186 0.582853C36.4186 0.582853 36.4186 0.582853 36.4637 0.582853C36.5087 0.582853 36.5538 0.582853 36.5989 0.582853C36.644 0.582853 36.7341 0.582853 36.7792 0.582853C36.8243 0.582853 36.8693 0.582853 36.9144 0.582853H36.9595C37.0045 0.582853 37.0045 0.582853 37.0496 0.582853C37.0947 0.582853 37.1398 0.582853 37.1398 0.582853C37.1848 0.582853 37.1848 0.582853 37.1848 0.582853C37.1848 0.582853 37.1848 0.582853 37.2299 0.582853C37.275 0.582853 37.275 0.582853 37.3201 0.582853C37.3651 0.582853 37.4102 0.582853 37.4553 0.582853C37.5003 0.582853 37.5454 0.582853 37.5905 0.582853H37.6356C37.6806 0.582853 37.7708 0.582853 37.8158 0.582853C37.8609 0.582853 37.9511 0.582853 37.9961 0.582853H38.0412C38.0412 0.582853 38.0412 0.582853 38.0863 0.582853C38.1314 0.582853 38.1764 0.582853 38.2215 0.582853H38.2666C38.3116 0.582853 38.3116 0.582853 38.3116 0.582853H38.3567C38.4018 0.582853 38.4469 0.582853 38.4919 0.582853C38.5821 0.582853 38.6272 0.582853 38.7173 0.582853C38.7173 0 38.7624 0 38.7624 0C38.8074 0 38.8525 0 38.8976 0C38.9427 0 38.9427 0 38.9877 0C39.0328 0 39.0779 0 39.123 0C39.168 0 39.2131 0 39.2582 0C39.3032 0 39.3032 0 39.3483 0C39.3934 0 39.3934 0 39.4385 0H39.4835C39.5286 0 39.5286 0 39.5737 0C39.5737 0 39.5737 0 39.6188 0C39.6638 0 39.6638 0 39.7089 0C39.754 0 39.799 0 39.8892 0C39.9343 0 39.9343 0 39.9793 0C39.9793 0 39.9793 0 40.0244 0H40.0695C40.1146 0 40.1596 0 40.1596 0H40.2047C40.2498 0 40.2948 0 40.3399 0C40.385 0 40.4301 0 40.4751 0C40.5202 0 40.5653 0 40.6103 0C40.6554 0 40.6554 0 40.7005 0C40.7456 0 40.7906 0 40.8357 0C40.8808 0 40.8808 0 40.9259 0C40.9709 0 40.9709 0 41.016 0C41.0611 0 41.0611 0 41.1061 0C41.1512 0 41.1963 0 41.2414 0C41.2864 0 41.2864 0 41.3315 0C41.3766 0 41.3766 0 41.4217 0C41.4667 0 41.5118 0 41.5118 0C41.5569 0 41.647 0 41.6921 0C41.7822 0 41.8273 0 41.9175 0C41.9625 0 41.9625 0 42.0076 0H42.0527C42.0527 0 42.0527 0 42.0977 0C42.1428 0 42.233 0 42.278 0.0448348C42.3231 0.0448348 42.3682 0.0448348 42.4133 0.0448348H42.4583C42.4583 0.0448348 42.4583 0.0448348 42.5034 0.0448348C42.5485 0.0448348 42.5485 0.0448348 42.5935 0.0448348C42.6837 0.0448348 42.8189 0.0896696 42.909 0.0896696C42.9992 0.0896696 43.0893 0.0896697 43.1795 0.134504C43.2246 0.134504 43.2696 0.134504 43.3598 0.134504C43.4048 0.134504 43.495 0.134504 43.5401 0.179339C43.5851 0.179339 43.6302 0.179339 43.6753 0.179339C43.7204 0.179339 43.7204 0.179339 43.7654 0.179339C43.8105 0.179339 43.8556 0.179339 43.9007 0.179339C43.9457 0.179339 43.9908 0.179339 44.0359 0.224174C44.126 0.224174 44.2162 0.269009 44.3063 0.269009C44.3514 0.269009 44.4415 0.269009 44.4866 0.313844H44.5317C44.5767 0.313844 44.6669 0.313844 44.7119 0.358679C44.8021 0.358679 44.8472 0.403513 44.9373 0.403513C44.9824 0.403513 45.0275 0.403513 45.0725 0.448348C45.1176 0.448348 45.1627 0.448348 45.2528 0.493183C45.2979 0.493183 45.388 0.493183 45.4331 0.538018C45.4782 0.538018 45.5233 0.538018 45.5683 0.582853C45.6134 0.582853 45.7035 0.627688 45.7486 0.627688C45.8388 0.627688 45.8838 0.672522 45.974 0.672522C46.0191 0.672522 46.0641 0.672522 46.1092 0.717357C46.1543 0.717357 46.1543 0.717357 46.1993 0.717357H46.2444C46.2895 0.717357 46.3346 0.717357 46.3796 0.762192C46.5599 0.807027 46.7402 0.851862 46.9205 0.896696C46.9656 0.896696 47.0107 0.896696 47.0557 0.941531C47.1008 0.941531 47.1459 0.941531 47.1909 0.986366H47.236H47.2811C47.3262 0.986366 47.4163 1.0312 47.4614 1.0312C47.5515 1.0312 47.6417 1.07604 47.7769 1.12087C47.9572 1.16571 48.0924 1.21054 48.2727 1.25538C48.3628 1.30021 48.4981 1.30021 48.5882 1.34504C48.6333 1.34504 48.6783 1.34504 48.7234 1.38988C48.7685 1.38988 48.8136 1.43471 48.8586 1.43471C48.9037 1.43471 48.9488 1.47955 48.9938 1.47955C49.084 1.52438 49.2192 1.52438 49.3094 1.56922C49.4446 1.61405 49.5798 1.65889 49.715 1.65889C49.8502 1.70372 49.9854 1.70372 50.0756 1.74856H50.1207H50.1657C50.2108 1.74856 50.2559 1.74856 50.301 1.79339C50.346 1.79339 50.3911 1.83823 50.4362 1.83823C50.5263 1.88306 50.6615 1.88306 50.7517 1.9279C51.0221 2.01757 51.2475 2.0624 51.5179 2.15207C51.6081 2.15207 51.6531 2.19691 51.7433 2.19691C51.7883 2.19691 51.7883 2.19691 51.8334 2.24174C51.8785 2.24174 51.9236 2.28658 51.9686 2.28658C52.0137 2.28658 52.0588 2.33141 52.1039 2.33141C52.3743 2.42108 52.6447 2.51075 52.9152 2.60042C52.9602 2.60042 53.0053 2.64525 53.0504 2.64525C53.1405 2.69009 53.2307 2.69009 53.3208 2.73492C53.411 2.77976 53.5011 2.77976 53.6363 2.82459C53.6814 2.82459 53.7265 2.86943 53.7715 2.86943C53.8617 2.91426 53.9518 2.91426 54.042 2.9591C54.1772 3.00393 54.2673 3.04877 54.4026 3.0936C54.4927 3.13844 54.6279 3.18327 54.7181 3.18327C54.8533 3.22811 55.0336 3.27294 55.1688 3.31778C55.304 3.36261 55.4392 3.40745 55.6195 3.45228C55.7547 3.49712 55.89 3.54195 56.0702 3.58679C56.1153 3.58679 56.2055 3.63162 56.2505 3.63162C56.2956 3.63162 56.3407 3.67646 56.3857 3.67646C56.521 3.72129 56.7013 3.76613 56.8365 3.85579C57.0618 3.94546 57.2421 3.9903 57.4675 4.07997C57.5576 4.1248 57.6478 4.16964 57.7379 4.16964C57.8281 4.21447 57.9182 4.21447 58.0084 4.25931C58.0534 4.25931 58.0985 4.30414 58.1887 4.30414C58.5042 4.43865 58.8647 4.57315 59.1802 4.70766C59.2253 4.75249 59.3155 4.75249 59.3605 4.79733C59.7662 4.97667 60.1718 5.11117 60.6226 5.29051C60.8029 5.33534 60.9381 5.42501 61.1184 5.46985C61.4339 5.60435 61.7945 5.73886 62.11 5.87336C62.2903 5.96303 62.4705 6.00787 62.6508 6.09754C62.9663 6.23204 63.2818 6.36654 63.6424 6.50105C63.8227 6.59072 64.003 6.63555 64.1382 6.72522C64.2284 6.77006 64.2734 6.77006 64.3636 6.81489C73.333 10.8052 83.2039 16.4095 93.4354 23.2693C93.4354 23.2693 93.4805 23.2693 93.4805 23.3141C94.2016 23.8073 94.9228 24.3005 95.644 24.7937C95.8693 24.9282 96.0496 25.0627 96.275 25.242C96.8158 25.6007 97.3567 26.0042 97.8976 26.3629C98.1229 26.5422 98.3483 26.6767 98.5737 26.8561C99.1596 27.2596 99.7906 27.7079 100.377 28.1563C100.377 28.1563 100.377 28.1563 100.422 28.1563C100.467 28.2011 100.512 28.2459 100.602 28.2908C100.692 28.3356 100.737 28.3804 100.827 28.4253C101.143 28.6495 101.503 28.9185 101.819 29.1426C102.089 29.322 102.36 29.5462 102.585 29.7255C102.72 29.8152 102.856 29.9048 102.991 30.0393C103.171 30.1738 103.396 30.3532 103.577 30.4877C103.667 30.5325 103.757 30.6222 103.802 30.667C104.027 30.8464 104.253 31.0257 104.478 31.205C104.704 31.3844 104.974 31.5637 105.199 31.7431C105.335 31.8327 105.425 31.9224 105.56 32.0121C105.56 32.0121 105.605 32.0121 105.605 32.0569C105.74 32.1466 105.921 32.2811 106.056 32.4156C106.191 32.5052 106.326 32.5949 106.416 32.6846C106.552 32.7743 106.687 32.8639 106.822 32.9984C107.137 33.2226 107.453 33.4916 107.768 33.7158C107.904 33.8055 108.039 33.94 108.174 34.0296C108.264 34.0745 108.309 34.1193 108.399 34.209C108.49 34.2986 108.58 34.3435 108.67 34.4331C109.031 34.7022 109.346 34.9712 109.707 35.2402C109.887 35.3747 110.067 35.5092 110.202 35.6437C110.247 35.6885 110.293 35.7334 110.338 35.7334C110.383 35.7782 110.428 35.823 110.473 35.8679C110.518 35.8679 110.518 35.9127 110.563 35.9127C110.878 36.1817 111.194 36.4507 111.555 36.6749C111.78 36.8542 112.005 37.0336 112.231 37.2129C112.321 37.2577 112.366 37.3474 112.456 37.3922C112.546 37.4819 112.681 37.5716 112.772 37.6613C112.862 37.7061 112.907 37.7958 112.997 37.8406C113.087 37.9303 113.177 37.9751 113.267 38.0648C113.267 38.0648 113.312 38.0648 113.312 38.1096C113.403 38.1993 113.493 38.2441 113.583 38.3338C113.718 38.4683 113.853 38.5579 113.988 38.6925C114.079 38.7821 114.169 38.8718 114.304 38.9166C114.349 38.9615 114.439 39.0063 114.484 39.0511C114.62 39.1856 114.8 39.3201 114.935 39.4098C114.98 39.4546 115.07 39.4995 115.115 39.5443C115.251 39.6788 115.386 39.7685 115.521 39.903C115.611 39.9478 115.656 40.0375 115.746 40.0823C115.746 40.0823 115.746 40.0823 115.791 40.1272C115.927 40.2168 116.017 40.3065 116.152 40.441C116.287 40.5755 116.467 40.71 116.603 40.7997C116.738 40.8894 116.828 41.0239 116.963 41.1135C117.144 41.248 117.324 41.4274 117.504 41.5619C117.594 41.6067 117.684 41.6964 117.73 41.7412C117.82 41.8309 117.91 41.9206 118.045 42.0102C118.135 42.0551 118.18 42.1447 118.27 42.1896C118.361 42.2792 118.451 42.3241 118.541 42.4137C118.631 42.4586 118.676 42.5482 118.766 42.5931L118.811 42.6379C118.901 42.6828 118.946 42.7724 119.037 42.8173C119.127 42.9069 119.217 42.9966 119.307 43.0863C119.442 43.1759 119.577 43.3104 119.668 43.4001C119.803 43.5346 119.938 43.6691 120.118 43.7588C120.209 43.8485 120.299 43.8933 120.389 43.983C120.479 44.0278 120.524 44.1175 120.614 44.1623C120.749 44.2968 120.885 44.4313 121.065 44.521C121.155 44.6106 121.245 44.6555 121.335 44.7452C121.425 44.79 121.471 44.8797 121.561 44.9245C121.606 44.9693 121.651 45.0142 121.696 45.059C121.831 45.1487 121.921 45.2832 122.056 45.3728C122.192 45.5073 122.327 45.6418 122.507 45.7315C122.552 45.7764 122.597 45.8212 122.688 45.866C122.778 45.9557 122.913 46.0454 123.003 46.135C123.138 46.2695 123.273 46.3592 123.409 46.4937C123.454 46.5385 123.499 46.5834 123.544 46.6282C123.634 46.7179 123.724 46.8076 123.814 46.8524C123.95 46.9421 124.04 47.0766 124.175 47.1662C124.22 47.1662 124.22 47.2111 124.265 47.2111C124.31 47.2111 124.31 47.2559 124.355 47.2559C124.4 47.3007 124.445 47.3456 124.49 47.3904C124.626 47.4801 124.716 47.6146 124.806 47.7043C124.941 47.7939 125.031 47.9284 125.167 48.0181L125.212 48.0629C125.302 48.1526 125.392 48.2423 125.527 48.3319C125.572 48.3768 125.617 48.3768 125.617 48.4216C125.662 48.4664 125.707 48.5113 125.752 48.5561C125.888 48.6906 126.023 48.8251 126.158 48.9596C126.338 49.0941 126.474 49.2735 126.654 49.408C126.744 49.4976 126.789 49.5425 126.879 49.6321C126.879 49.6321 126.879 49.6321 126.924 49.677C126.969 49.7218 126.969 49.7218 127.014 49.7667C127.105 49.8563 127.15 49.9012 127.24 49.9908C127.33 50.0805 127.42 50.1702 127.51 50.2598C127.6 50.3495 127.645 50.3943 127.736 50.484C127.871 50.6185 128.006 50.753 128.141 50.8875C128.186 50.9324 128.231 50.9772 128.277 50.9772C128.322 51.022 128.322 51.022 128.367 51.0669C128.457 51.1117 128.502 51.2014 128.592 51.2462C128.637 51.291 128.682 51.3359 128.772 51.3807L128.817 51.4255C128.862 51.4704 128.908 51.5152 128.953 51.56C129.133 51.6945 129.268 51.8739 129.448 52.0084C129.539 52.0981 129.584 52.1429 129.674 52.2326C129.719 52.2774 129.764 52.3222 129.854 52.3671C129.944 52.4567 129.989 52.5016 130.079 52.5912C130.124 52.6361 130.215 52.6809 130.26 52.7706C130.305 52.8154 130.35 52.8603 130.395 52.9051C130.44 52.9499 130.485 52.9499 130.485 52.9948C130.53 53.0396 130.53 53.0396 130.575 53.0844C130.575 53.0844 130.575 53.0844 130.62 53.1293C130.665 53.1741 130.665 53.1741 130.71 53.2189C130.981 53.4431 131.206 53.7121 131.477 53.9363C131.792 54.2501 132.108 54.5191 132.423 54.833C133.144 55.5055 133.866 56.2229 134.542 56.8954C134.722 57.0747 134.947 57.2989 135.128 57.4782C135.398 57.7472 135.623 57.9714 135.894 58.2404C136.164 58.5094 136.435 58.7785 136.705 59.0475C136.976 59.3165 137.201 59.5406 137.471 59.8097C137.516 59.8545 137.516 59.8545 137.561 59.8993C137.787 60.1235 138.012 60.3477 138.238 60.5718C138.283 60.6167 138.283 60.6167 138.328 60.6615C138.508 60.8409 138.688 61.065 138.914 61.2444C138.959 61.2892 139.049 61.3789 139.094 61.4237C139.319 61.6479 139.545 61.8721 139.77 62.0962C139.86 62.1859 139.905 62.2307 139.995 62.3204C140.086 62.4549 140.221 62.5446 140.356 62.6791C140.356 62.6791 140.356 62.6791 140.401 62.7239L140.446 62.7688C140.491 62.8136 140.581 62.9033 140.626 62.9481C140.807 63.1723 141.032 63.3516 141.212 63.5758C141.438 63.8 141.618 64.0241 141.843 64.2483C141.888 64.2931 141.888 64.2931 141.934 64.338C141.979 64.3828 142.024 64.4276 142.069 64.4725C142.249 64.6518 142.429 64.876 142.655 65.0553C142.835 65.2347 142.97 65.3692 143.15 65.5485C143.196 65.5933 143.241 65.6382 143.241 65.6382C143.286 65.683 143.331 65.7279 143.376 65.7727C143.421 65.8175 143.466 65.9072 143.556 65.952C143.691 66.1314 143.872 66.2659 144.007 66.4452C144.142 66.6245 144.322 66.759 144.458 66.9384C144.503 66.9832 144.548 67.0281 144.593 67.0729C144.638 67.1626 144.728 67.2074 144.773 67.2971C144.818 67.3867 144.908 67.4316 144.953 67.5212C145.089 67.6557 145.224 67.7903 145.359 67.9696C145.494 68.1041 145.629 68.2386 145.765 68.3731C145.81 68.4179 145.81 68.4179 145.855 68.4628C145.9 68.5076 145.945 68.5524 145.99 68.5973C146.08 68.687 146.125 68.7766 146.215 68.8214C146.26 68.9111 146.351 68.956 146.396 69.0456C146.486 69.1801 146.621 69.2698 146.711 69.4043C146.801 69.494 146.891 69.6285 147.027 69.7181C147.072 69.763 147.072 69.763 147.117 69.8078C147.162 69.8527 147.252 69.9423 147.297 69.9872C147.387 70.0768 147.477 70.2113 147.568 70.301C147.658 70.3907 147.703 70.4803 147.793 70.5252C147.883 70.6148 147.973 70.7045 148.018 70.7942C148.108 70.8839 148.154 70.9735 148.244 71.0184C148.289 71.0632 148.289 71.108 148.334 71.108C148.424 71.1977 148.469 71.2874 148.559 71.377C148.559 71.4219 148.604 71.4219 148.604 71.4667L148.649 71.5115C148.739 71.6012 148.785 71.6909 148.875 71.7806C148.965 71.8702 149.01 71.9599 149.1 72.0496C149.145 72.0944 149.235 72.1841 149.28 72.2289C149.325 72.2737 149.37 72.3186 149.416 72.3634C149.461 72.4082 149.506 72.4531 149.506 72.4979C149.551 72.5427 149.596 72.5876 149.641 72.6772C149.686 72.7669 149.776 72.8118 149.821 72.9014C149.911 73.0359 150.047 73.1704 150.137 73.2601C150.227 73.3498 150.317 73.4394 150.362 73.5291C150.407 73.5739 150.407 73.6188 150.452 73.6188C150.452 73.6636 150.497 73.6636 150.497 73.7084C150.542 73.7533 150.587 73.7981 150.633 73.8429C150.678 73.8878 150.723 73.9326 150.768 73.9775C150.813 74.0223 150.813 74.0671 150.858 74.112C150.903 74.1568 150.948 74.2016 150.993 74.2465C151.038 74.3361 151.128 74.381 151.173 74.4706C151.264 74.5603 151.309 74.65 151.399 74.7396C151.444 74.8293 151.534 74.8742 151.579 74.9638L151.624 75.0087C151.624 75.0087 151.624 75.0535 151.669 75.0535C151.714 75.0983 151.714 75.0983 151.759 75.1432C151.804 75.188 151.849 75.2777 151.895 75.3225C151.94 75.4122 152.03 75.457 152.075 75.5467C152.165 75.6363 152.21 75.726 152.3 75.8157C152.39 75.9054 152.435 75.995 152.526 76.0847C152.616 76.1744 152.706 76.264 152.751 76.3537C152.796 76.3985 152.796 76.3985 152.841 76.4434C152.841 76.4434 152.841 76.4434 152.886 76.4882C152.886 76.4882 152.886 76.4882 152.931 76.533C152.976 76.5779 153.021 76.6227 153.021 76.6675C153.066 76.7124 153.111 76.802 153.157 76.8469C153.247 76.9366 153.337 77.0262 153.382 77.1607C153.472 77.2504 153.562 77.3849 153.652 77.4746L153.697 77.5194L153.743 77.5642C153.788 77.6091 153.788 77.6539 153.833 77.6987C153.878 77.7436 153.878 77.7436 153.923 77.7884C153.968 77.8333 153.968 77.8781 154.013 77.8781C154.058 77.9229 154.058 77.9678 154.103 78.0126L154.148 78.0574C154.148 78.1023 154.193 78.1023 154.193 78.1471C154.238 78.2368 154.328 78.3264 154.374 78.3713C154.464 78.4609 154.554 78.5954 154.644 78.6851C154.689 78.7299 154.689 78.7748 154.734 78.7748C154.779 78.8196 154.824 78.8645 154.824 78.9093C154.869 78.9541 154.869 78.999 154.914 78.999C154.959 79.0438 155.005 79.0886 155.05 79.1335C155.095 79.2231 155.185 79.268 155.23 79.3576C155.275 79.4025 155.275 79.4025 155.32 79.4473C155.32 79.4473 155.32 79.4473 155.365 79.4921C155.41 79.537 155.455 79.5818 155.5 79.6266C155.59 79.7612 155.681 79.8508 155.771 79.9853L155.816 80.0302C155.861 80.075 155.861 80.1198 155.906 80.1647L155.951 80.2095C155.996 80.2543 156.041 80.2992 156.041 80.344C156.086 80.3888 156.086 80.4337 156.131 80.4785C156.176 80.5682 156.267 80.6578 156.312 80.7475L156.357 80.7924C156.402 80.8372 156.447 80.882 156.492 80.9269C156.492 80.9269 156.492 80.9269 156.492 80.9717L156.537 81.0165C156.537 81.0165 156.537 81.0614 156.582 81.0614C156.627 81.151 156.717 81.1959 156.762 81.2855C156.807 81.3304 156.853 81.42 156.898 81.4649L156.943 81.5097C156.988 81.5545 156.988 81.5545 157.033 81.5994C157.078 81.6442 157.078 81.6442 157.123 81.689C157.168 81.7339 157.213 81.8236 157.258 81.8684C157.303 81.9581 157.393 82.0029 157.438 82.0926C157.484 82.1374 157.484 82.1374 157.529 82.1822C157.574 82.2271 157.574 82.2719 157.619 82.2719C157.619 82.3167 157.664 82.3167 157.664 82.3616C157.709 82.4064 157.754 82.4512 157.799 82.4961C157.844 82.5409 157.889 82.5857 157.934 82.6306C157.934 82.6754 157.979 82.6754 157.979 82.7202C158.024 82.7651 158.024 82.8099 158.069 82.8548C158.115 82.8996 158.115 82.8996 158.16 82.9444C158.205 82.9893 158.205 83.0341 158.25 83.0789C158.295 83.1238 158.295 83.1238 158.34 83.1686C158.385 83.2583 158.475 83.3479 158.52 83.3928C158.565 83.4824 158.655 83.5721 158.701 83.6618C158.746 83.7066 158.791 83.7514 158.791 83.7963C158.791 83.7963 158.791 83.8411 158.836 83.8411C158.836 83.8411 158.836 83.886 158.881 83.886L158.926 83.9308C158.971 83.9756 159.016 84.0205 159.016 84.0653C159.061 84.1101 159.106 84.1998 159.151 84.2446C159.151 84.2446 159.151 84.2446 159.151 84.2895C159.196 84.3343 159.196 84.3791 159.241 84.424C159.286 84.4688 159.286 84.4688 159.332 84.5136C159.377 84.6033 159.467 84.693 159.512 84.7378C159.557 84.8275 159.647 84.9172 159.692 84.962C159.737 85.0068 159.737 85.0517 159.782 85.0965L159.827 85.1413C159.827 85.1413 159.827 85.1413 159.827 85.1862L159.872 85.231L159.917 85.2758C159.917 85.2758 159.917 85.3207 159.963 85.3207C160.008 85.3655 160.008 85.4103 160.053 85.4103C160.098 85.4552 160.098 85.5 160.143 85.5C160.143 85.5448 160.188 85.5448 160.188 85.5897C160.233 85.6793 160.278 85.7242 160.368 85.8139C160.413 85.8587 160.413 85.9035 160.458 85.9484C160.458 85.9484 160.458 85.9484 160.458 85.9932C160.503 86.0829 160.548 86.1277 160.594 86.2174C160.594 86.2174 160.594 86.2174 160.594 86.2622C160.594 86.2622 160.594 86.307 160.639 86.307C160.639 86.3519 160.684 86.3519 160.684 86.3967C160.684 86.4415 160.729 86.4415 160.729 86.4864L160.774 86.5312C160.774 86.5312 160.774 86.576 160.819 86.576C160.864 86.6209 160.864 86.6657 160.909 86.6657C160.954 86.7105 160.999 86.7554 160.999 86.8002C161.044 86.8451 161.089 86.8899 161.089 86.9347C161.134 87.0244 161.179 87.0692 161.27 87.1589C161.315 87.2486 161.405 87.3382 161.45 87.3831C161.45 87.3831 161.45 87.3831 161.45 87.4279C161.45 87.4279 161.45 87.4727 161.495 87.4727L161.54 87.5176C161.54 87.5176 161.54 87.5624 161.585 87.5624L161.63 87.6072C161.675 87.6969 161.72 87.7418 161.765 87.7866C161.811 87.8763 161.856 87.9211 161.946 88.0108C161.991 88.0556 161.991 88.0556 162.036 88.1004C162.036 88.1453 162.081 88.1453 162.081 88.1901C162.081 88.1901 162.081 88.1901 162.126 88.2349C162.171 88.2798 162.171 88.3246 162.216 88.3694L162.261 88.4143L162.306 88.4591C162.306 88.5039 162.351 88.5039 162.351 88.5488L162.396 88.5936C162.442 88.6384 162.442 88.6833 162.487 88.7281C162.487 88.7729 162.532 88.7729 162.532 88.8178C162.577 88.9075 162.622 88.9971 162.712 89.042C162.712 89.0868 162.757 89.0868 162.757 89.1316C162.802 89.1765 162.847 89.2661 162.892 89.311L162.937 89.3558C162.937 89.3558 162.937 89.4006 162.982 89.4006L163.027 89.4455C163.027 89.4903 163.073 89.4903 163.073 89.5351C163.073 89.58 163.118 89.58 163.118 89.6248C163.118 89.6248 163.118 89.6696 163.163 89.6696L163.208 89.7145C163.253 89.7593 163.298 89.8041 163.298 89.8938C163.343 89.9387 163.388 90.0283 163.433 90.0732C163.433 90.118 163.478 90.118 163.478 90.1628C163.523 90.2077 163.523 90.2525 163.568 90.2525C163.613 90.2973 163.658 90.387 163.704 90.4318C163.749 90.4767 163.749 90.5215 163.794 90.5663C163.839 90.6112 163.839 90.656 163.884 90.656C163.884 90.7008 163.929 90.7008 163.929 90.7457C163.929 90.7905 163.974 90.7905 163.974 90.8354C163.974 90.8802 164.019 90.8802 164.019 90.925C164.019 90.925 164.019 90.925 164.019 90.9698C164.019 90.9698 164.019 90.9699 164.019 91.0147C164.019 91.0147 164.019 91.0595 164.064 91.0595C164.109 91.1044 164.154 91.1492 164.154 91.194C164.199 91.2389 164.244 91.3285 164.289 91.3734C164.289 91.4182 164.335 91.4182 164.335 91.463C164.335 91.463 164.335 91.5079 164.38 91.5079C164.425 91.5975 164.515 91.6872 164.56 91.7769C164.56 91.7769 164.56 91.8217 164.605 91.8217C164.65 91.8666 164.65 91.9114 164.695 91.9562C164.695 92.0011 164.74 92.0011 164.74 92.0459L164.785 92.0907C164.785 92.0907 164.785 92.1356 164.83 92.1356C164.875 92.1804 164.875 92.2252 164.921 92.2701L164.966 92.3149L165.011 92.3597C165.011 92.4046 165.056 92.4046 165.056 92.4494C165.056 92.4942 165.101 92.4942 165.101 92.5391C165.146 92.5839 165.146 92.6287 165.191 92.6736C165.236 92.7184 165.281 92.8081 165.326 92.8529C165.371 92.8978 165.371 92.9426 165.416 92.9874C165.416 92.9874 165.416 93.0323 165.461 93.0323C165.461 93.0771 165.506 93.0771 165.506 93.1219C165.552 93.1668 165.552 93.2116 165.597 93.2564C165.597 93.3013 165.642 93.3461 165.687 93.3461C165.687 93.3909 165.732 93.3909 165.732 93.4358C165.732 93.4806 165.777 93.4806 165.777 93.5254C165.822 93.5703 165.822 93.6151 165.867 93.6599L165.912 93.7048C165.912 93.7048 165.912 93.7048 165.912 93.7496C165.912 93.7944 165.957 93.7944 165.957 93.8393C166.002 93.8841 166.002 93.929 166.047 93.929C166.092 93.9738 166.092 94.0186 166.137 94.0635C166.137 94.1083 166.183 94.1083 166.183 94.1531C166.228 94.198 166.228 94.2428 166.273 94.2876C166.318 94.3325 166.318 94.3773 166.363 94.4221L166.408 94.467C166.408 94.5118 166.453 94.5118 166.453 94.5566C166.498 94.6015 166.498 94.6463 166.543 94.6463C166.543 94.6911 166.588 94.6911 166.588 94.736C166.633 94.7808 166.633 94.8257 166.678 94.8705C166.678 94.9153 166.723 94.9602 166.723 94.9602C166.768 95.005 166.768 95.0498 166.814 95.0498C166.814 95.0498 166.814 95.0947 166.859 95.0947C166.859 95.0947 166.859 95.0947 166.859 95.1395C166.859 95.1843 166.904 95.1843 166.904 95.2292L166.949 95.274C166.994 95.3188 166.994 95.3637 167.039 95.4533C167.084 95.4982 167.084 95.543 167.129 95.5878C167.129 95.5878 167.129 95.6327 167.174 95.6327C167.174 95.6775 167.219 95.7223 167.219 95.7223C167.264 95.7672 167.264 95.812 167.309 95.8568C167.354 95.9465 167.4 96.0362 167.445 96.1259C167.445 96.1259 167.445 96.1707 167.49 96.1707C167.49 96.1707 167.49 96.2155 167.535 96.2155C167.535 96.2155 167.535 96.2604 167.58 96.2604C167.58 96.2604 167.58 96.2604 167.58 96.3052C167.58 96.3052 167.58 96.35 167.625 96.35C167.625 96.3949 167.67 96.4397 167.67 96.4397C167.67 96.4845 167.715 96.4845 167.715 96.5294C167.715 96.5294 167.715 96.5742 167.76 96.5742C167.76 96.619 167.805 96.6639 167.805 96.6639C167.85 96.7087 167.85 96.7535 167.895 96.7984C167.94 96.8432 167.985 96.9329 168.031 96.9777C168.076 97.0674 168.121 97.1122 168.166 97.2019C168.166 97.2019 168.166 97.2467 168.211 97.2467C168.211 97.2916 168.256 97.3364 168.256 97.3364C168.256 97.3812 168.301 97.3812 168.301 97.4261C168.301 97.4261 168.301 97.4709 168.346 97.4709L168.391 97.5157L168.436 97.5606C168.436 97.5606 168.436 97.6054 168.481 97.6054C168.526 97.6502 168.526 97.6951 168.571 97.7399C168.571 97.7399 168.571 97.7399 168.571 97.7848C168.571 97.7848 168.571 97.8296 168.616 97.8296C168.616 97.8744 168.662 97.8744 168.662 97.9193C168.662 97.9641 168.707 98.0089 168.707 98.0089C168.752 98.0538 168.752 98.0986 168.797 98.1434C168.842 98.1883 168.842 98.2331 168.887 98.2779C168.932 98.3228 168.932 98.3676 168.977 98.4124C168.977 98.4573 169.022 98.4573 169.022 98.5021C169.067 98.5469 169.067 98.5918 169.112 98.6814C169.112 98.6814 169.112 98.6814 169.112 98.7263C169.112 98.7263 169.112 98.7263 169.112 98.7711C169.112 98.8159 169.157 98.8159 169.157 98.8608C169.157 98.9056 169.202 98.9056 169.202 98.9505C169.202 98.9953 169.247 98.9953 169.247 99.0401V99.085C169.247 99.1298 169.293 99.1746 169.293 99.1746L169.338 99.2195C169.338 99.2195 169.338 99.2643 169.383 99.2643C169.428 99.3091 169.428 99.354 169.473 99.3988C169.473 99.4436 169.518 99.4436 169.518 99.4885C169.518 99.4885 169.518 99.4885 169.518 99.5333C169.518 99.5333 169.518 99.5333 169.518 99.5781C169.563 99.623 169.563 99.7126 169.608 99.7575C169.653 99.8472 169.698 99.9368 169.743 100.026L169.788 100.071C169.788 100.071 169.788 100.071 169.788 100.116C169.788 100.116 169.788 100.116 169.788 100.161C169.788 100.161 169.788 100.206 169.833 100.206C169.833 100.251 169.878 100.251 169.878 100.295C169.878 100.34 169.924 100.34 169.924 100.385C169.924 100.43 169.969 100.43 169.969 100.475C169.969 100.475 169.969 100.52 170.014 100.52C170.014 100.52 170.014 100.565 170.059 100.565C170.059 100.609 170.104 100.609 170.104 100.654C170.104 100.699 170.149 100.744 170.149 100.744C170.149 100.789 170.194 100.834 170.239 100.878C170.239 100.878 170.239 100.923 170.284 100.923C170.284 100.968 170.329 100.968 170.329 101.013C170.329 101.058 170.374 101.058 170.374 101.103C170.374 101.147 170.419 101.192 170.419 101.192C170.419 101.237 170.464 101.282 170.464 101.327C170.464 101.327 170.464 101.327 170.464 101.372C170.464 101.372 170.464 101.372 170.464 101.416C170.464 101.416 170.464 101.461 170.51 101.461C170.51 101.506 170.555 101.506 170.555 101.551C170.555 101.551 170.555 101.596 170.6 101.596L170.645 101.641C170.645 101.685 170.69 101.685 170.69 101.73C170.69 101.73 170.69 101.775 170.735 101.775C170.78 101.82 170.78 101.865 170.825 101.91C170.825 101.954 170.87 101.954 170.87 101.999C170.915 102.089 170.96 102.134 171.005 102.223C171.005 102.268 171.05 102.268 171.05 102.313C171.095 102.358 171.095 102.403 171.141 102.448C171.141 102.492 171.186 102.492 171.186 102.537C171.186 102.537 171.186 102.537 171.186 102.582C171.186 102.582 171.186 102.582 171.186 102.627C171.186 102.627 171.186 102.672 171.231 102.672C171.231 102.672 171.231 102.717 171.276 102.717C171.276 102.761 171.321 102.761 171.321 102.806C171.321 102.851 171.366 102.851 171.366 102.896C171.411 102.941 171.411 102.986 171.456 103.075C171.456 103.12 171.501 103.12 171.501 103.165C171.501 103.165 171.501 103.165 171.501 103.21C171.501 103.255 171.546 103.299 171.546 103.344C171.591 103.434 171.636 103.479 171.636 103.568C171.636 103.613 171.681 103.658 171.681 103.703C171.681 103.703 171.681 103.703 171.681 103.748C171.681 103.748 171.681 103.748 171.681 103.793V103.837C171.681 103.882 171.726 103.882 171.726 103.927C171.772 103.972 171.772 104.062 171.817 104.106C171.817 104.151 171.862 104.151 171.862 104.196C171.862 104.196 171.862 104.241 171.907 104.241C171.907 104.241 171.907 104.241 171.907 104.286V104.331C171.952 104.42 171.997 104.465 171.997 104.555C172.042 104.644 172.087 104.734 172.132 104.824C172.132 104.869 172.177 104.913 172.177 104.913C172.177 104.913 172.177 104.958 172.222 104.958C172.222 104.958 172.222 104.958 172.222 105.003C172.222 105.003 172.222 105.003 172.222 105.048C172.222 105.048 172.222 105.048 172.222 105.093C172.222 105.093 172.222 105.138 172.267 105.138C172.267 105.138 172.267 105.182 172.312 105.182C172.312 105.227 172.357 105.227 172.357 105.272C172.403 105.317 172.403 105.362 172.448 105.407C172.448 105.452 172.493 105.496 172.493 105.496V105.541C172.493 105.541 172.493 105.586 172.538 105.586C172.538 105.631 172.583 105.676 172.583 105.721C172.583 105.765 172.628 105.81 172.628 105.855C172.628 105.9 172.673 105.945 172.673 105.99C172.673 105.99 172.673 105.99 172.673 106.034V106.079C172.673 106.124 172.718 106.124 172.718 106.169C172.718 106.214 172.763 106.214 172.763 106.259C172.808 106.348 172.808 106.393 172.853 106.483C172.898 106.572 172.898 106.617 172.943 106.707C172.943 106.752 172.988 106.797 172.988 106.797C172.988 106.841 173.034 106.841 173.034 106.886V106.931C173.034 106.976 173.079 106.976 173.079 107.021C173.079 107.066 173.124 107.066 173.124 107.11C173.124 107.11 173.124 107.11 173.124 107.155C173.124 107.155 173.124 107.155 173.124 107.2C173.124 107.2 173.124 107.245 173.169 107.245C173.169 107.29 173.214 107.29 173.214 107.335C173.214 107.379 173.259 107.379 173.259 107.424V107.469C173.259 107.514 173.304 107.514 173.304 107.559C173.349 107.604 173.349 107.693 173.394 107.738C173.394 107.783 173.439 107.783 173.439 107.828C173.439 107.873 173.484 107.917 173.484 107.917C173.484 107.962 173.529 107.962 173.529 108.007C173.529 108.052 173.574 108.097 173.574 108.142C173.574 108.186 173.62 108.186 173.62 108.231V108.276C173.62 108.321 173.62 108.321 173.665 108.366C173.665 108.411 173.665 108.411 173.71 108.455C173.71 108.5 173.755 108.5 173.755 108.545C173.755 108.59 173.8 108.59 173.8 108.635V108.68C173.8 108.68 173.8 108.68 173.8 108.724C173.8 108.769 173.845 108.814 173.845 108.859C173.845 108.904 173.89 108.949 173.89 108.993C173.89 109.038 173.935 109.038 173.935 109.083C173.935 109.128 173.98 109.173 173.98 109.218V109.262V109.307C173.98 109.307 173.98 109.352 174.025 109.352V109.397V109.442V109.487V109.531C174.025 109.576 174.07 109.621 174.07 109.666C174.07 109.711 174.115 109.756 174.115 109.8C174.115 109.845 174.16 109.89 174.16 109.935C174.16 109.98 174.205 110.025 174.205 110.069C174.205 110.114 174.251 110.159 174.251 110.204V110.249C174.251 110.249 174.251 110.249 174.251 110.294C174.251 110.294 174.251 110.294 174.251 110.339C174.251 110.339 174.251 110.338 174.251 110.383C174.251 110.383 174.251 110.428 174.296 110.428C174.296 110.428 174.296 110.428 174.296 110.473V110.518V110.563C174.296 110.608 174.341 110.652 174.341 110.652C174.341 110.652 174.341 110.652 174.341 110.697C174.341 110.742 174.386 110.787 174.386 110.832C174.386 110.877 174.431 110.921 174.431 110.966C174.476 111.011 174.476 111.101 174.521 111.146C174.521 111.19 174.566 111.235 174.566 111.235V111.28V111.325C174.566 111.325 174.566 111.325 174.566 111.37C174.566 111.37 174.566 111.415 174.611 111.415V111.459V111.504C174.611 111.549 174.656 111.594 174.656 111.639C174.656 111.684 174.701 111.728 174.701 111.728C174.701 111.773 174.746 111.818 174.746 111.863C174.746 111.908 174.746 111.908 174.791 111.953V111.997V112.042C174.791 112.087 174.836 112.132 174.836 112.132C174.836 112.177 174.836 112.177 174.882 112.222V112.266V112.311C174.882 112.356 174.882 112.356 174.927 112.401C174.927 112.446 174.972 112.491 174.972 112.491V112.535V112.58C174.972 112.625 174.972 112.625 175.017 112.67V112.715C175.017 112.76 175.017 112.76 175.062 112.804C175.062 112.849 175.107 112.939 175.107 112.984C175.107 113.029 175.107 113.029 175.152 113.073V113.118V113.163C175.152 113.208 175.152 113.208 175.152 113.253V113.298C175.152 113.342 175.152 113.342 175.197 113.387V113.432C175.197 113.477 175.242 113.522 175.242 113.567C175.242 113.611 175.242 113.611 175.287 113.656C175.287 113.701 175.287 113.701 175.287 113.746C175.287 113.791 175.332 113.836 175.332 113.925V113.97C175.332 114.015 175.332 114.015 175.332 114.06C175.332 114.06 175.332 114.06 175.332 114.105V114.149V114.194V114.239C175.332 114.284 175.332 114.284 175.377 114.329C175.377 114.374 175.422 114.418 175.422 114.463C175.422 114.508 175.467 114.553 175.467 114.598C175.467 114.643 175.513 114.687 175.513 114.732V114.777V114.822C175.513 114.822 175.513 114.822 175.513 114.867C175.513 114.867 175.513 114.867 175.513 114.912V114.956C175.513 115.001 175.558 115.046 175.558 115.091C175.558 115.136 175.558 115.136 175.603 115.181V115.225V115.27C175.603 115.315 175.603 115.36 175.648 115.36C175.648 115.405 175.648 115.45 175.693 115.45C175.693 115.494 175.738 115.539 175.738 115.584C175.738 115.629 175.738 115.629 175.738 115.674C175.738 115.674 175.738 115.674 175.738 115.719V115.764C175.738 115.808 175.738 115.808 175.738 115.853C175.738 115.898 175.738 115.943 175.783 115.988C175.783 116.033 175.783 116.033 175.828 116.077C175.828 116.077 175.828 116.077 175.828 116.122V116.167C175.828 116.212 175.828 116.257 175.873 116.302C175.873 116.346 175.873 116.346 175.873 116.391V116.436C175.873 116.436 175.873 116.436 175.873 116.481V116.526C175.873 116.571 175.873 116.571 175.873 116.615C175.873 116.66 175.873 116.66 175.873 116.705C175.873 116.705 175.873 116.705 175.873 116.75C175.873 116.795 175.873 116.795 175.873 116.84C175.873 116.884 175.873 116.929 175.918 116.974C175.918 117.019 175.918 117.019 175.918 117.064C175.918 117.109 175.918 117.153 175.963 117.198C175.963 117.243 175.963 117.243 175.963 117.288C175.963 117.288 175.963 117.288 175.963 117.333C175.963 117.333 175.963 117.333 175.963 117.378C175.963 117.378 175.963 117.378 175.963 117.422V117.467V117.512C175.963 117.557 175.963 117.557 175.963 117.602C175.963 117.647 175.963 117.647 175.963 117.691V117.736V117.781C175.963 117.826 175.963 117.826 175.963 117.871C175.963 117.916 175.963 117.96 176.008 118.005C176.008 118.05 176.008 118.095 176.008 118.14V118.185V118.229V118.274V118.319C176.008 118.364 176.008 118.409 176.008 118.454C176.008 118.498 176.008 118.543 176.008 118.588C176.008 118.633 176.008 118.633 176.008 118.678C176.008 118.723 176.008 118.723 176.008 118.767V118.812V118.857V118.902C176.008 118.947 176.008 118.947 176.008 118.992C176.008 119.036 176.008 119.036 176.008 119.081C176.008 119.081 176.008 119.081 176.008 119.126C176.008 119.126 176.008 119.126 176.008 119.171C176.008 119.216 176.008 119.261 176.008 119.261C176.008 119.305 176.008 119.395 176.053 119.44C176.053 119.485 176.053 119.53 176.053 119.574V119.619C176.053 119.619 176.053 119.619 176.053 119.664V119.709C176.053 119.709 176.053 119.709 176.053 119.754C176.053 119.754 176.053 119.754 176.053 119.799V119.843C176.053 119.888 176.053 119.933 176.053 119.978V120.023C176.053 120.023 176.053 120.023 176.053 120.068V120.112C176.053 120.157 176.053 120.202 176.053 120.247C176.053 120.292 176.053 120.292 176.053 120.337V120.382C176.053 120.426 176.053 120.426 176.053 120.471V120.516C176.053 120.561 176.053 120.561 176.053 120.606C176.053 120.651 176.053 120.651 176.053 120.695C176.053 120.74 176.053 120.785 176.053 120.83C176.053 120.875 176.053 120.92 176.053 120.964C176.053 120.964 176.053 120.964 176.053 121.009C176.053 121.009 176.053 121.009 176.053 121.054C176.053 121.099 176.053 121.099 176.053 121.144V121.189V121.233V121.278V121.323V121.368C176.053 121.413 176.053 121.458 176.053 121.502C176.053 121.547 176.053 121.547 176.053 121.592C176.053 121.592 176.053 121.592 176.053 121.637C176.053 121.637 176.053 121.637 176.053 121.682V121.727C177 122.22 177 122.265 177 122.265Z" fill="url(#paint0_linear)"/>
<path d="M170.194 134.056C152.841 141.185 107.678 117.243 69.3217 80.5232C30.9649 43.8035 13.8824 8.38402 31.2353 1.25528C48.5883 -5.87345 93.751 18.0683 132.153 54.7432C170.555 91.4181 187.547 126.927 170.194 134.056Z" fill="url(#paint1_radial)"/>
<g opacity="0.9">
<path opacity="0.9" d="M170.194 134.056C168.211 134.863 166.002 135.267 163.839 135.356C161.675 135.446 159.512 135.312 157.348 134.953C153.066 134.325 148.875 133.115 144.773 131.68C136.615 128.766 128.817 124.865 121.29 120.561C113.763 116.257 106.552 111.459 99.5203 106.393C92.534 101.282 85.728 95.9017 79.2376 90.2077C72.7021 84.5137 66.4821 78.5058 60.4423 72.2738C54.4928 65.9969 48.7235 59.5407 43.495 52.6361C40.8808 49.2735 38.4018 45.7316 36.0581 42.0999C33.7143 38.4683 31.5057 34.747 29.6578 30.8464L28.9817 29.3668C28.7563 28.8737 28.531 28.3805 28.3056 27.8873C27.8549 26.9009 27.4943 25.8697 27.0886 24.8834C26.3224 22.8658 25.6914 20.8034 25.1956 18.6962C24.7449 16.5889 24.4293 14.4368 24.4744 12.2848C24.5195 10.1327 24.9251 7.9358 25.9167 6.05273C24.9702 7.98063 24.6096 10.1775 24.6096 12.2848C24.6096 14.4368 24.9702 16.5889 25.466 18.6513C26.0069 20.7586 26.683 22.7761 27.4492 24.7937C27.8549 25.7801 28.2605 26.7664 28.7112 27.7528C28.9366 28.246 29.162 28.7392 29.3873 29.2323L30.1085 30.6671C32.0466 34.5229 34.2552 38.1993 36.5989 41.8309C38.9878 45.4177 41.5119 48.9148 44.1261 52.3223C54.7181 65.9072 66.8877 78.2816 79.9137 89.6248C92.8946 100.968 106.822 111.325 121.696 120.068C129.133 124.417 136.885 128.362 144.998 131.366C149.055 132.846 153.202 134.101 157.484 134.818C159.602 135.177 161.765 135.356 163.929 135.312C166.002 135.177 168.211 134.863 170.194 134.056Z" fill="url(#paint2_linear)"/>
</g>
<g opacity="0.9">
<path opacity="0.9" d="M121.471 56.4022C100.061 35.9575 74.8656 22.5519 65.1749 26.5422C55.4843 30.5325 64.9947 50.3495 86.4041 70.7941C107.814 91.2837 133.009 104.644 142.7 100.654C152.39 96.6638 142.88 76.8917 121.471 56.4022ZM140.086 79.8059C144.277 86.576 146.215 92.3597 145.539 95.9913C145.179 97.8744 144.142 99.1746 142.384 99.8919C141.438 100.295 140.311 100.475 139.049 100.52C134.316 100.654 127.42 98.4572 119.352 94.1531C108.805 88.5487 97.3117 80.0301 86.9901 70.2113C78.8319 62.4549 72.2063 54.5639 67.7892 47.3904C63.5974 40.6203 61.6593 34.8366 62.3354 31.205C62.696 29.3219 63.7326 28.0217 65.4905 27.3044C69.8625 25.511 78.2911 27.5734 88.5225 33.0432C99.0695 38.6476 110.563 47.1662 120.885 56.985C129.043 64.7863 135.668 72.6772 140.086 79.8059Z" fill="url(#paint3_linear)"/>
</g>
<path d="M121.471 56.4022C100.061 35.9575 74.8655 22.5519 65.1749 26.5422C55.4843 30.5325 64.9946 50.3495 86.4041 70.7942C107.814 91.2837 133.009 104.644 142.7 100.654C152.39 96.6638 142.88 76.8917 121.471 56.4022Z" fill="white" fill-opacity="0.72"/>
<defs>
<linearGradient id="paint0_linear" x1="167.303" y1="156.107" x2="3.49757" y2="27.324" gradientUnits="userSpaceOnUse">
<stop offset="0.1054" stop-color="#A7C6FF"/>
<stop offset="0.348958" stop-color="#417CE9"/>
<stop offset="0.630208" stop-color="#1A56C0"/>
<stop offset="0.822917" stop-color="#2A6DEA"/>
<stop offset="1" stop-color="#8DB1F2"/>
</linearGradient>
<radialGradient id="paint1_radial" cx="0" cy="0" r="1" gradientUnits="userSpaceOnUse" gradientTransform="translate(177.088 117.006) rotate(-1.5513) scale(133.806 133.101)">
<stop stop-color="#F4FDFD"/>
<stop offset="0.0001" stop-color="#EFF5FF"/>
<stop offset="0.9665" stop-color="#407DED"/>
</radialGradient>
<linearGradient id="paint2_linear" x1="25.6213" y1="72.5591" x2="168.587" y2="68.6463" gradientUnits="userSpaceOnUse">
<stop stop-color="white"/>
<stop offset="0.041192" stop-color="white" stop-opacity="0.9588"/>
<stop offset="1" stop-color="white" stop-opacity="0"/>
</linearGradient>
<linearGradient id="paint3_linear" x1="60.5884" y1="31.2419" x2="147.067" y2="96.4176" gradientUnits="userSpaceOnUse">
<stop stop-color="white"/>
<stop offset="0.041192" stop-color="white" stop-opacity="0.9588"/>
<stop offset="1" stop-color="white" stop-opacity="0"/>
</linearGradient>
</defs>
</svg>
