<svg width="141" height="53" viewBox="0 0 141 53" fill="none" xmlns="http://www.w3.org/2000/svg">
<path d="M134.336 31.5733L118.041 26.4717C118.657 26.6417 119.329 26.7551 120.057 26.6984C120.617 26.6417 121.121 26.6984 121.625 26.8685L137.92 31.9701C137.416 31.8 136.912 31.7433 136.352 31.8C135.624 31.8567 134.952 31.8 134.336 31.5733Z" fill="url(#paint0_linear)"/>
<path d="M134.336 31.5733L118.041 26.4717C118.209 26.5284 118.377 26.585 118.545 26.585L134.84 31.6867C134.672 31.6867 134.504 31.63 134.336 31.5733Z" fill="url(#paint1_linear)"/>
<path d="M134.84 31.7433L118.545 26.6417C119.049 26.7551 119.553 26.7551 120.057 26.6984C120.449 26.6417 120.897 26.6984 121.233 26.7551L137.528 31.8567C137.136 31.8 136.744 31.7433 136.352 31.8C135.792 31.8567 135.288 31.8 134.84 31.7433Z" fill="url(#paint2_linear)"/>
<path d="M137.528 31.8567L121.233 26.7551C121.345 26.7551 121.513 26.8118 121.625 26.8685L137.92 31.9701C137.808 31.9134 137.696 31.9134 137.528 31.8567Z" fill="url(#paint3_linear)"/>
<path d="M131.201 41.7765L114.905 36.6749C108.354 34.6342 104.658 27.492 101.522 21.5401C98.4424 15.6449 96.2025 11.677 93.1227 10.7134L109.418 15.815C112.498 16.7786 114.737 20.7465 117.817 26.6417C120.953 32.5936 124.649 39.7358 131.201 41.7765Z" fill="url(#paint4_linear)"/>
<path d="M131.201 41.7765L114.905 36.6749C108.354 34.6342 104.658 27.492 101.522 21.5401C98.4424 15.6449 96.2025 11.677 93.1227 10.7134L109.418 15.815C112.498 16.7786 114.737 20.7465 117.817 26.6417C120.953 32.5936 124.649 39.7358 131.201 41.7765Z" fill="url(#paint5_linear)"/>
<path d="M108.97 5.1016C109.25 5.1016 109.586 5.1016 109.866 5.15829C109.978 5.15829 110.09 5.15829 110.202 5.21497C110.594 5.27166 110.93 5.32834 111.266 5.38503H111.322C111.714 5.44171 112.106 5.55508 112.498 5.66845L96.2025 0.566845C95.8106 0.453476 95.4186 0.340107 95.0266 0.283422H94.9706C94.6346 0.226738 94.2426 0.170053 93.9067 0.113369C93.7947 0.113369 93.6827 0.113369 93.5707 0.0566845C93.2907 0.0566845 93.0107 0 92.6747 0C92.5627 0 92.4507 0 92.2828 0C91.8908 0 91.4428 0 90.9948 0.0566845C90.5468 0.113369 90.1549 0.170053 89.7629 0.226738C89.6509 0.226738 89.5949 0.283422 89.4829 0.283422C89.0909 0.340107 88.699 0.453476 88.307 0.566845H88.251C87.915 0.680214 87.523 0.793583 87.187 0.906952C87.075 0.963636 87.019 0.963636 86.9071 1.02032C86.5711 1.13369 86.1791 1.30374 85.8431 1.4738C85.8431 1.4738 85.8431 1.4738 85.7871 1.4738C85.7311 1.53048 85.6751 1.53048 85.6191 1.58717C85.3951 1.70053 85.2272 1.8139 85.0032 1.92727C84.8912 1.98396 84.8352 2.04064 84.7232 2.09733C84.5552 2.2107 84.3872 2.32406 84.2192 2.43743C84.1072 2.49412 83.9952 2.5508 83.9392 2.60749C83.7712 2.72086 83.6032 2.83422 83.4353 2.94759C83.3233 3.00428 83.2673 3.06096 83.1553 3.17433C82.9873 3.2877 82.8193 3.45775 82.6513 3.57112C82.5953 3.62781 82.5393 3.68449 82.4833 3.68449L82.4273 3.74118C82.2033 3.91123 81.9793 4.13797 81.8113 4.30802L81.7553 4.36471C81.5314 4.59144 81.3074 4.81818 81.0834 4.98823C81.0274 5.04492 80.9714 5.15829 80.8594 5.21497C80.6914 5.38503 80.5794 5.4984 80.4114 5.66845C80.3554 5.78182 80.2434 5.8385 80.1874 5.95187C80.0754 6.12192 79.9075 6.23529 79.7955 6.40535C79.7395 6.46203 79.7395 6.46203 79.6835 6.51872C79.6275 6.5754 79.6275 6.5754 79.5715 6.63208C79.2915 6.97219 79.0675 7.3123 78.7875 7.65241C78.7875 7.70909 78.7315 7.70909 78.7315 7.76577C78.5075 8.10588 78.2275 8.44599 78.0036 8.7861C77.9476 8.84278 77.9476 8.89946 77.8916 8.95615C77.6676 9.29626 77.4436 9.69305 77.2196 10.0332C77.1636 10.0898 77.1076 10.2032 77.1076 10.2599C76.8836 10.6567 76.6596 10.9968 76.4356 11.3936C76.4356 11.3936 76.4356 11.3936 76.4356 11.4503C76.0997 12.0738 75.7637 12.6973 75.4277 13.2642C75.4277 13.3209 75.3717 13.3775 75.3717 13.4342C75.0357 14.0578 74.6997 14.6813 74.4198 15.3048C74.4198 15.3048 74.4198 15.3048 74.4198 15.3615C74.0838 15.985 73.8038 16.6086 73.5238 17.2321C73.4678 17.2888 73.4678 17.3455 73.4118 17.4021C73.1318 18.0257 72.8519 18.5925 72.5719 19.216C72.2919 19.7829 72.0119 20.4064 71.7879 20.9166C71.7319 21.0866 71.6199 21.2567 71.5639 21.3701C71.3399 21.8235 71.1159 22.2203 70.948 22.6738C70.892 22.7872 70.836 22.9572 70.78 23.0706C70.5 23.5807 70.276 24.0909 69.996 24.5444C69.94 24.6578 69.884 24.7144 69.828 24.8278C69.604 25.2246 69.436 25.5647 69.2121 25.9048C69.1001 26.0749 69.0441 26.2449 68.9321 26.3583C68.8761 26.4717 68.7641 26.585 68.7081 26.6984C68.5961 26.8684 68.4841 27.0952 68.3721 27.2652C68.3161 27.3786 68.2041 27.492 68.1481 27.6053C68.0361 27.7754 67.9241 28.0021 67.7561 28.1722C67.7001 28.2856 67.6441 28.3422 67.5881 28.4556C67.4202 28.6824 67.1962 28.9658 67.0282 29.1925C67.0282 29.1925 67.0282 29.1925 66.9722 29.2492C66.7482 29.4759 66.5802 29.7027 66.3562 29.9294C66.3002 29.9861 66.1882 30.0428 66.1322 30.1561C65.9642 30.3262 65.8522 30.4396 65.6843 30.5529C65.5723 30.6096 65.5163 30.723 65.4043 30.7797C65.2923 30.893 65.1243 31.0064 65.0123 31.0631C64.9003 31.1198 64.7883 31.1765 64.7323 31.2332C64.6203 31.2898 64.4523 31.4032 64.3403 31.4599C64.1723 31.5733 63.9484 31.6299 63.7804 31.7433C63.7804 31.7433 63.7804 31.7433 63.7244 31.7433C63.5004 31.8 63.3324 31.8567 63.1084 31.9134C63.0524 31.9134 62.9964 31.9134 62.9404 31.9701C62.7164 32.0267 62.4924 32.0834 62.2684 32.0834C62.0445 32.0834 61.8205 32.0834 61.5965 32.0834C61.5405 32.0834 61.4845 32.0834 61.4285 32.0834C61.2045 32.0834 60.9805 32.0267 60.7565 32.0267C60.5885 31.9701 60.4206 31.9701 60.2526 31.9134L76.5476 37.015C76.7156 37.0717 76.8836 37.1283 77.0516 37.1283C77.2756 37.185 77.4996 37.185 77.7236 37.185C77.7796 37.185 77.8356 37.185 77.8916 37.185C78.1156 37.185 78.3395 37.185 78.5635 37.185C78.7875 37.185 79.0115 37.1283 79.2355 37.0717C79.2915 37.0717 79.3475 37.0717 79.4035 37.015C79.6275 36.9583 79.7955 36.9016 80.0194 36.8449C80.0194 36.8449 80.0194 36.8449 80.0754 36.8449C80.2434 36.7882 80.4114 36.7315 80.5794 36.6182C80.6354 36.6182 80.6354 36.5615 80.6914 36.5615C80.8034 36.5048 80.9714 36.3914 81.0834 36.3348C81.1954 36.2781 81.3074 36.2214 81.3634 36.1647C81.4754 36.0513 81.6434 35.9946 81.7553 35.8813C81.8113 35.8246 81.9233 35.7679 81.9793 35.7112L82.0353 35.6545C82.2033 35.5412 82.3153 35.3711 82.4833 35.2578C82.5393 35.2011 82.6513 35.1444 82.7073 35.031C82.9313 34.8043 83.0993 34.5775 83.3233 34.3508C83.3233 34.3508 83.3233 34.3508 83.3793 34.2941C83.5472 34.0674 83.7712 33.8406 83.9392 33.5572C83.9952 33.4438 84.0512 33.3872 84.1072 33.2738C84.2192 33.1037 84.3312 32.9337 84.4992 32.707C84.5552 32.5936 84.6672 32.4802 84.7232 32.3668C84.8352 32.1968 84.9472 31.9701 85.0592 31.8C85.1152 31.6866 85.2272 31.5733 85.2831 31.4599C85.3391 31.4032 85.3951 31.2898 85.4511 31.2332C85.5071 31.1765 85.5071 31.0631 85.5631 31.0064C85.7871 30.6663 85.9551 30.2695 86.1791 29.9294C86.2351 29.816 86.2911 29.7594 86.3471 29.646C86.5711 29.1925 86.8511 28.6824 87.131 28.1722C87.187 28.0588 87.243 27.8888 87.299 27.7754C87.523 27.3786 87.691 26.9251 87.915 26.4717C87.971 26.3016 88.083 26.1315 88.139 26.0182C88.419 25.4513 88.699 24.8845 88.9229 24.3176C89.2029 23.7508 89.4829 23.1273 89.7629 22.5037C89.7629 22.4471 89.8189 22.3904 89.8189 22.3337C90.0989 21.7102 90.4349 21.0866 90.7148 20.4631C91.0508 19.8396 91.3308 19.216 91.6668 18.5925C91.6668 18.5358 91.7228 18.4791 91.7228 18.4225C92.0588 17.7989 92.3947 17.1754 92.7307 16.5519C92.7307 16.5519 92.7307 16.5519 92.7307 16.4952C92.9547 16.0984 93.1787 15.7583 93.4027 15.3615C93.4587 15.3048 93.5147 15.1914 93.5147 15.1348C93.7387 14.7947 93.9627 14.3979 94.1866 14.0578C94.2426 14.0011 94.2426 13.9444 94.2986 13.8877C94.5226 13.5476 94.7466 13.2075 95.0266 12.8674C95.0266 12.8107 95.0826 12.8107 95.0826 12.754C95.3626 12.4139 95.5866 12.0738 95.8665 11.7337C95.9225 11.677 95.9785 11.5636 96.0345 11.507C96.1465 11.3369 96.3145 11.2235 96.4265 11.0535C96.4825 10.9401 96.5945 10.8834 96.6505 10.7701C96.8185 10.6 96.9305 10.4299 97.0985 10.3166C97.1545 10.2599 97.2105 10.1465 97.3225 10.0898C97.5465 9.8631 97.7704 9.63636 97.9944 9.46631L98.0504 9.40963C98.2744 9.23957 98.4424 9.01283 98.6664 8.84278C98.7224 8.7861 98.8344 8.72941 98.8904 8.67273C99.0584 8.55936 99.2264 8.3893 99.3943 8.27594C99.5063 8.21925 99.5623 8.16257 99.6743 8.0492C99.8423 7.93583 100.01 7.82246 100.178 7.70909C100.29 7.65241 100.402 7.59572 100.458 7.53904C100.626 7.42567 100.794 7.3123 100.962 7.19893C101.074 7.14225 101.13 7.08556 101.242 7.02888C101.466 6.91551 101.634 6.80214 101.858 6.68877C101.914 6.63209 101.97 6.63209 102.082 6.5754C102.418 6.40535 102.754 6.23529 103.146 6.12192C103.258 6.06524 103.314 6.06524 103.426 6.00856C103.762 5.89519 104.098 5.78182 104.49 5.66845H104.546C104.938 5.55508 105.33 5.4984 105.722 5.38503C105.834 5.38503 105.89 5.32834 106.002 5.32834C106.394 5.27166 106.842 5.21497 107.234 5.15829C107.794 5.1016 108.242 5.1016 108.634 5.1016C108.746 5.1016 108.858 5.1016 108.97 5.1016Z" fill="url(#paint6_linear)"/>
<path d="M73.4678 47.1048L57.1727 42.0032C50.6211 39.9626 46.9253 32.8204 43.8454 26.8685C40.7656 20.9733 38.5257 17.0054 35.4459 16.0417L51.741 21.1434C54.8208 22.107 57.0607 26.0749 60.1405 31.9701C63.2203 37.922 66.9161 45.0642 73.4678 47.1048Z" fill="url(#paint7_linear)"/>
<path d="M73.4678 47.1048L57.1727 42.0032C50.6211 39.9626 46.9253 32.8204 43.8454 26.8685C40.7656 20.9733 38.5257 17.0054 35.4459 16.0417L51.741 21.1434C54.8208 22.107 57.0607 26.0749 60.1405 31.9701C63.2203 37.922 66.9161 45.0642 73.4678 47.1048Z" fill="url(#paint8_linear)"/>
<path d="M52.189 10.4867C52.301 10.4867 52.413 10.4867 52.525 10.5433C52.917 10.6 53.253 10.6567 53.589 10.7134H53.645C54.0369 10.7701 54.4289 10.8834 54.8209 10.9968L38.5258 5.89521C38.1338 5.78185 37.7419 5.66848 37.3499 5.61179H37.2939C36.9579 5.55511 36.5659 5.49842 36.2299 5.44174C36.118 5.44174 36.006 5.44174 35.894 5.38505C35.614 5.38505 35.334 5.32837 34.998 5.32837C34.886 5.32837 34.774 5.32837 34.606 5.32837C34.2141 5.32837 33.7661 5.32837 33.3181 5.38505C32.8701 5.44174 32.4782 5.49842 32.0862 5.55511C31.9742 5.55511 31.9182 5.61179 31.8062 5.61179C31.4142 5.66848 31.0222 5.78185 30.6303 5.89521H30.5743C30.2383 6.00858 29.8463 6.12195 29.5103 6.23532C29.3983 6.29201 29.3423 6.29201 29.2303 6.34869C28.8944 6.46206 28.5024 6.63211 28.1664 6.80217C28.1664 6.80217 28.1664 6.80217 28.1104 6.80217C28.0544 6.85885 27.9984 6.85885 27.9424 6.91554C27.7184 7.0289 27.5504 7.14227 27.3264 7.25564C27.2145 7.31233 27.1585 7.36901 27.0465 7.4257C26.8785 7.53906 26.7105 7.65243 26.5425 7.7658C26.4305 7.82249 26.3185 7.87917 26.2625 7.93586C26.0945 8.04923 25.9265 8.16259 25.7585 8.27596C25.6465 8.33265 25.5905 8.38933 25.4786 8.5027C25.3106 8.61607 25.1426 8.78612 24.9746 8.89949C24.9186 8.95618 24.8626 9.01286 24.8066 9.01286L24.7506 9.06955C24.5266 9.2396 24.3026 9.46634 24.1346 9.63639L24.0786 9.69308C23.8546 9.91981 23.6307 10.1466 23.4067 10.3166C23.3507 10.3733 23.2947 10.43 23.1827 10.5433C23.0147 10.7134 22.9027 10.8268 22.7347 10.9968C22.6787 11.1102 22.5667 11.1669 22.5107 11.2802C22.3987 11.4503 22.2307 11.5637 22.1187 11.7337C22.0627 11.7904 22.0627 11.7904 22.0068 11.8471C21.9508 11.9038 21.9508 11.9038 21.8948 11.9605C21.6148 12.3006 21.3908 12.6407 21.1108 12.9808C21.1108 13.0375 21.0548 13.0375 21.0548 13.0941C20.8308 13.4343 20.5508 13.7744 20.3268 14.1145C20.2708 14.1712 20.2708 14.2278 20.2149 14.2845C19.9909 14.6246 19.7669 15.0214 19.5429 15.3615C19.4869 15.4182 19.4309 15.5316 19.4309 15.5883C19.2069 15.9851 18.9829 16.3252 18.7589 16.722C18.7589 16.722 18.7589 16.722 18.7589 16.7786C18.423 17.4022 18.087 18.0257 17.751 18.5925C17.751 18.6492 17.695 18.7059 17.695 18.7626C17.359 19.3861 17.023 20.0097 16.743 20.6332C16.4071 21.2567 16.1271 21.8802 15.8471 22.5038C15.7911 22.5605 15.7911 22.6171 15.7351 22.6738C15.4551 23.2974 15.1751 23.8642 14.8952 24.4877C14.6152 25.0546 14.3352 25.6214 14.1112 26.1883C14.0552 26.3583 13.9432 26.5284 13.8872 26.6984C13.6632 27.1519 13.4392 27.5487 13.2712 28.0022C13.2153 28.1155 13.1593 28.2856 13.1033 28.399C12.8233 28.9091 12.5993 29.4193 12.3193 29.8728C12.2633 29.9861 12.2073 30.0428 12.1513 30.1562C11.9273 30.553 11.7593 30.8931 11.5353 31.2332C11.4234 31.4032 11.3674 31.5733 11.2554 31.6867C11.1994 31.8 11.0874 31.9134 11.0314 32.0268C10.9194 32.1968 10.8074 32.4236 10.6954 32.5936C10.6394 32.707 10.5274 32.8203 10.4714 32.9337C10.3594 33.1038 10.1914 33.3305 10.0794 33.5006C10.0234 33.6139 9.96743 33.6706 9.91144 33.784C9.74345 34.0107 9.51946 34.2941 9.35147 34.5209C9.35147 34.5209 9.35147 34.5209 9.29547 34.5776C9.07149 34.8043 8.90349 35.031 8.67951 35.2578C8.62351 35.3145 8.51152 35.3711 8.45552 35.4845C8.28753 35.6546 8.17554 35.7679 8.00755 35.8813C7.89555 35.938 7.83956 36.0514 7.72756 36.1081C7.61557 36.2214 7.44758 36.3348 7.33558 36.3915C7.22359 36.4482 7.1116 36.5048 7.0556 36.5615C6.94361 36.6182 6.77562 36.7316 6.66362 36.7883C6.49563 36.9016 6.27164 36.9583 6.10365 37.0717C6.10365 37.0717 6.10365 37.0717 6.04766 37.0717C5.82367 37.1284 5.65568 37.1851 5.43169 37.2417C5.37569 37.2417 5.3197 37.2417 5.2637 37.2984C5.03971 37.3551 4.81573 37.4118 4.59174 37.4118C4.36775 37.4118 4.08777 37.4685 3.86378 37.5252C3.80778 37.5252 3.80778 37.5252 3.75179 37.5818C3.5278 37.6385 3.30381 37.7519 3.07983 37.8086H3.02383C2.96783 37.8086 2.96783 37.8653 2.91183 37.8653C2.79984 37.922 2.68785 37.9786 2.57585 38.0353C2.51986 38.092 2.46386 38.092 2.40786 38.1487C2.29587 38.2621 2.12788 38.3187 2.01589 38.4321L1.95989 38.4888C1.7359 38.7155 1.51191 38.9423 1.28793 39.169C1.11994 39.3957 0.951946 39.6225 0.783956 39.9059C0.783956 39.9059 0.783956 39.9059 0.783956 39.9626C0.727959 40.076 0.671962 40.1893 0.615965 40.3027C0.615965 40.3594 0.559968 40.4161 0.559968 40.4728C0.391978 40.8129 0.279984 41.0963 0.223987 41.4364C0.0559968 42.0032 0 42.5134 0 43.0802C0 45.3476 1.28793 47.1615 3.07983 47.7284L19.3749 52.83C17.583 52.2631 16.2951 50.4492 16.2951 48.1818C16.2951 47.615 16.3511 47.1048 16.5191 46.5947C16.5751 46.4246 16.6311 46.2546 16.6871 46.0845C16.743 45.9145 16.799 45.7444 16.911 45.5744C16.911 45.5177 16.967 45.461 16.967 45.4043C17.023 45.2909 17.079 45.1776 17.135 45.1209L17.191 45.0642C17.359 44.7808 17.527 44.554 17.695 44.3273C17.919 44.1006 18.143 43.8738 18.367 43.6471L18.423 43.5904C18.535 43.477 18.6469 43.4203 18.8149 43.307C18.8709 43.2503 18.9269 43.2503 18.9829 43.1936C19.0949 43.1369 19.2069 43.0802 19.3189 43.0236C19.3749 43.0236 19.4309 42.9669 19.4869 42.9669C19.7109 42.8535 19.9349 42.7968 20.1589 42.7401C20.2149 42.7401 20.2149 42.7401 20.2709 42.6835C20.4948 42.6268 20.7748 42.5701 20.9988 42.5701C21.2228 42.5701 21.4468 42.5134 21.6708 42.4567C21.7268 42.4567 21.7828 42.4567 21.8388 42.4C22.0627 42.3433 22.2307 42.2867 22.4547 42.23C22.4547 42.23 22.4547 42.23 22.5107 42.23C22.6787 42.1733 22.8467 42.1166 23.0147 42.0032C23.0707 42.0032 23.0707 41.9466 23.1267 41.9466C23.2387 41.8899 23.4067 41.7765 23.5187 41.7198C23.6307 41.6631 23.7427 41.6064 23.7987 41.5498C23.9106 41.4364 24.0786 41.323 24.1906 41.2663C24.2466 41.2097 24.3586 41.153 24.4146 41.0963L24.4706 41.0396C24.6386 40.9262 24.7506 40.7562 24.9186 40.6428C24.9746 40.5861 25.0866 40.5294 25.1426 40.4161C25.3666 40.1893 25.5346 39.9626 25.7585 39.7359C25.7585 39.7359 25.7585 39.7359 25.8145 39.6792C25.9825 39.4524 26.2065 39.2257 26.3745 38.9423C26.4305 38.8289 26.4865 38.7722 26.5425 38.6588C26.6545 38.4888 26.7665 38.3187 26.9345 38.092C26.9905 37.9786 27.1025 37.8653 27.1585 37.7519C27.2705 37.5818 27.3824 37.3551 27.4944 37.1851C27.5504 37.0717 27.6624 36.9583 27.7184 36.8449C27.7744 36.7883 27.8304 36.6749 27.8864 36.6182C27.9424 36.5615 27.9424 36.4482 27.9984 36.3915C28.2224 36.0514 28.3904 35.6546 28.6144 35.3145C28.6704 35.2011 28.7264 35.1444 28.7824 35.031C29.0064 34.5776 29.2863 34.0674 29.5663 33.5572C29.6223 33.4439 29.6783 33.2738 29.7343 33.1605C29.9583 32.7637 30.1263 32.3102 30.3503 31.8567C30.4063 31.6867 30.5183 31.5166 30.5743 31.4032C30.8542 30.8364 31.1342 30.2695 31.3582 29.7027C31.6382 29.1359 31.9182 28.5123 32.1982 27.8888C32.1982 27.8321 32.2542 27.7754 32.2542 27.7187C32.5342 27.0952 32.8701 26.4717 33.1501 25.8482C33.4861 25.2246 33.7661 24.6011 34.1021 23.9776C34.1021 23.9209 34.1581 23.8642 34.1581 23.8075C34.494 23.184 34.83 22.5605 35.166 21.9936V21.9369C35.39 21.5401 35.614 21.2 35.838 20.8032C35.894 20.7466 35.95 20.6332 35.95 20.5765C36.1739 20.2364 36.3979 19.8396 36.6219 19.4995C36.6779 19.4428 36.6779 19.3861 36.7339 19.3294C36.9579 18.9893 37.1819 18.6492 37.4619 18.3091C37.4619 18.2524 37.5179 18.2524 37.5179 18.1957C37.7979 17.8556 38.0218 17.5155 38.3018 17.1754C38.3578 17.1187 38.4138 17.0054 38.4698 16.9487C38.5818 16.7786 38.6938 16.6653 38.8618 16.4952C38.9178 16.3818 39.0298 16.3252 39.0858 16.2118C39.2538 16.0417 39.3658 15.8717 39.5338 15.7583C39.5898 15.7016 39.6458 15.5883 39.7577 15.5316C39.9817 15.3048 40.2057 15.0781 40.4297 14.908L40.4857 14.8514C40.7097 14.6813 40.8777 14.4546 41.1017 14.2845C41.1577 14.2278 41.2697 14.1712 41.3257 14.1145C41.4936 14.0011 41.6616 13.831 41.8296 13.7177C41.9416 13.661 41.9976 13.6043 42.1096 13.4909C42.2776 13.3776 42.4456 13.2642 42.6136 13.1508C42.7256 13.0941 42.8376 13.0375 42.8936 12.9808C43.0616 12.8674 43.2295 12.754 43.3975 12.6407C43.5095 12.584 43.5655 12.5273 43.6775 12.4706C43.9015 12.3572 44.0695 12.2439 44.2935 12.1305C44.3495 12.0738 44.4055 12.0738 44.5175 12.0171C44.8535 11.8471 45.1894 11.677 45.5814 11.5637C45.6934 11.507 45.7494 11.507 45.8614 11.4503C46.1974 11.3369 46.5334 11.2236 46.9253 11.1102H46.9813C47.3733 10.9968 47.7653 10.9401 48.1573 10.8268C48.2693 10.8268 48.3253 10.7701 48.4373 10.7701C48.8292 10.7134 49.2772 10.6567 49.6692 10.6C50.1172 10.5433 50.5091 10.5433 50.9571 10.5433C51.0691 10.5433 51.1811 10.5433 51.3491 10.5433C51.5731 10.43 51.8531 10.4867 52.189 10.4867Z" fill="url(#paint9_linear)"/>
<path d="M107.346 5.15834C117.257 4.25139 122.073 13.4343 125.881 20.8033C129.577 27.8888 132.152 32.1968 136.296 31.8C138.872 31.5733 140.944 33.7273 140.944 36.6182C140.944 39.5091 138.872 42.0599 136.352 42.2867C126.441 43.1936 121.681 34.0107 117.817 26.6418C114.122 19.5562 111.602 15.2482 107.402 15.645C103.202 16.0418 100.738 20.8033 97.0985 28.569C93.3467 36.6749 88.643 46.7081 78.6755 47.615C68.7081 48.522 63.9484 39.3391 60.1406 31.9701C56.4448 24.8845 53.8689 20.5765 49.7252 20.9733C45.5254 21.3701 43.0616 26.1316 39.4218 33.8974C35.67 42.0033 30.9662 52.0364 20.9988 52.9434C18.423 53.1701 16.3511 51.0161 16.3511 48.1252C16.3511 45.2343 18.423 42.6835 20.9428 42.4567C25.1426 42.0599 27.6064 37.2984 31.2462 29.5327C34.998 21.4268 39.7017 11.3936 49.6692 10.4867C59.5806 9.57973 64.3963 18.7626 68.2041 26.1316C71.8999 33.2172 74.4198 37.5252 78.6195 37.1284C82.8193 36.7316 85.2832 31.9701 88.923 24.2043C92.7307 16.1551 97.4345 6.06529 107.346 5.15834Z" fill="url(#paint10_linear)"/>
<defs>
<linearGradient id="paint0_linear" x1="118.023" y1="29.2311" x2="137.922" y2="29.2311" gradientUnits="userSpaceOnUse">
<stop stop-color="#3556A8"/>
<stop offset="0.0113061" stop-color="#4564B2"/>
<stop offset="0.0469178" stop-color="#718CCD"/>
<stop offset="0.081209" stop-color="#94ABE3"/>
<stop offset="0.1134" stop-color="#AEC2F2"/>
<stop offset="0.1426" stop-color="#BDCFFC"/>
<stop offset="0.1662" stop-color="#C2D4FF"/>
<stop offset="0.2163" stop-color="#B8CCFB"/>
<stop offset="0.3023" stop-color="#9CB5F1"/>
<stop offset="0.4132" stop-color="#6F90E1"/>
<stop offset="0.4653" stop-color="#587DD9"/>
<stop offset="0.7552" stop-color="#3A60BD"/>
<stop offset="1" stop-color="#E4ECFF"/>
</linearGradient>
<linearGradient id="paint1_linear" x1="118.023" y1="29.1118" x2="134.821" y2="29.1118" gradientUnits="userSpaceOnUse">
<stop stop-color="#3556A8"/>
<stop offset="0.0113061" stop-color="#4564B2"/>
<stop offset="0.0469178" stop-color="#718CCD"/>
<stop offset="0.081209" stop-color="#94ABE3"/>
<stop offset="0.1134" stop-color="#AEC2F2"/>
<stop offset="0.1426" stop-color="#BDCFFC"/>
<stop offset="0.1662" stop-color="#C2D4FF"/>
<stop offset="0.2163" stop-color="#B8CCFB"/>
<stop offset="0.3023" stop-color="#9CB5F1"/>
<stop offset="0.4132" stop-color="#6F90E1"/>
<stop offset="0.4653" stop-color="#587DD9"/>
<stop offset="0.7552" stop-color="#3A60BD"/>
<stop offset="1" stop-color="#E4ECFF"/>
</linearGradient>
<linearGradient id="paint2_linear" x1="118.51" y1="29.245" x2="137.544" y2="29.245" gradientUnits="userSpaceOnUse">
<stop stop-color="#3556A8"/>
<stop offset="0.0113061" stop-color="#4564B2"/>
<stop offset="0.0469178" stop-color="#718CCD"/>
<stop offset="0.081209" stop-color="#94ABE3"/>
<stop offset="0.1134" stop-color="#AEC2F2"/>
<stop offset="0.1426" stop-color="#BDCFFC"/>
<stop offset="0.1662" stop-color="#C2D4FF"/>
<stop offset="0.2163" stop-color="#B8CCFB"/>
<stop offset="0.3023" stop-color="#9CB5F1"/>
<stop offset="0.4132" stop-color="#6F90E1"/>
<stop offset="0.4653" stop-color="#587DD9"/>
<stop offset="0.7552" stop-color="#3A60BD"/>
<stop offset="1" stop-color="#E4ECFF"/>
</linearGradient>
<linearGradient id="paint3_linear" x1="121.234" y1="29.3643" x2="137.922" y2="29.3643" gradientUnits="userSpaceOnUse">
<stop stop-color="#3556A8"/>
<stop offset="0.0113061" stop-color="#4564B2"/>
<stop offset="0.0469178" stop-color="#718CCD"/>
<stop offset="0.081209" stop-color="#94ABE3"/>
<stop offset="0.1134" stop-color="#AEC2F2"/>
<stop offset="0.1426" stop-color="#BDCFFC"/>
<stop offset="0.1662" stop-color="#C2D4FF"/>
<stop offset="0.2163" stop-color="#B8CCFB"/>
<stop offset="0.3023" stop-color="#9CB5F1"/>
<stop offset="0.4132" stop-color="#6F90E1"/>
<stop offset="0.4653" stop-color="#587DD9"/>
<stop offset="0.7552" stop-color="#3A60BD"/>
<stop offset="1" stop-color="#E4ECFF"/>
</linearGradient>
<linearGradient id="paint4_linear" x1="124.129" y1="43.6112" x2="112.861" y2="27.6654" gradientUnits="userSpaceOnUse">
<stop stop-color="#AABEF3"/>
<stop offset="0.3907" stop-color="#81A0F3"/>
<stop offset="1" stop-color="#5475C7"/>
</linearGradient>
<linearGradient id="paint5_linear" x1="124.129" y1="43.6112" x2="112.861" y2="27.6654" gradientUnits="userSpaceOnUse">
<stop stop-color="#AABEF3"/>
<stop offset="0.3907" stop-color="#81A0F3"/>
<stop offset="1" stop-color="#5475C7"/>
</linearGradient>
<linearGradient id="paint6_linear" x1="79.3937" y1="34.3197" x2="98.9331" y2="-7.81582" gradientUnits="userSpaceOnUse">
<stop stop-color="#3556A8"/>
<stop offset="0.0113061" stop-color="#4564B2"/>
<stop offset="0.0469178" stop-color="#718CCD"/>
<stop offset="0.081209" stop-color="#94ABE3"/>
<stop offset="0.1134" stop-color="#AEC2F2"/>
<stop offset="0.1426" stop-color="#BDCFFC"/>
<stop offset="0.1662" stop-color="#C2D4FF"/>
<stop offset="0.2163" stop-color="#B8CCFB"/>
<stop offset="0.3023" stop-color="#9CB5F1"/>
<stop offset="0.4132" stop-color="#6F90E1"/>
<stop offset="0.4653" stop-color="#587DD9"/>
<stop offset="0.7552" stop-color="#3A60BD"/>
<stop offset="1" stop-color="#E4ECFF"/>
</linearGradient>
<linearGradient id="paint7_linear" x1="63.8476" y1="52.2783" x2="54.9821" y2="33.2525" gradientUnits="userSpaceOnUse">
<stop stop-color="#AABEF3"/>
<stop offset="0.3907" stop-color="#81A0F3"/>
<stop offset="1" stop-color="#5475C7"/>
</linearGradient>
<linearGradient id="paint8_linear" x1="63.8476" y1="52.2783" x2="54.9821" y2="33.2525" gradientUnits="userSpaceOnUse">
<stop stop-color="#AABEF3"/>
<stop offset="0.3907" stop-color="#81A0F3"/>
<stop offset="1" stop-color="#5475C7"/>
</linearGradient>
<linearGradient id="paint9_linear" x1="18.7634" y1="44.5218" x2="40.5375" y2="-0.0830816" gradientUnits="userSpaceOnUse">
<stop stop-color="#3556A8"/>
<stop offset="0.0113061" stop-color="#4564B2"/>
<stop offset="0.0469178" stop-color="#718CCD"/>
<stop offset="0.081209" stop-color="#94ABE3"/>
<stop offset="0.1134" stop-color="#AEC2F2"/>
<stop offset="0.1426" stop-color="#BDCFFC"/>
<stop offset="0.1662" stop-color="#C2D4FF"/>
<stop offset="0.2163" stop-color="#B8CCFB"/>
<stop offset="0.3023" stop-color="#9CB5F1"/>
<stop offset="0.4132" stop-color="#6F90E1"/>
<stop offset="0.4653" stop-color="#587DD9"/>
<stop offset="0.7552" stop-color="#3A60BD"/>
<stop offset="1" stop-color="#E4ECFF"/>
</linearGradient>
<linearGradient id="paint10_linear" x1="117.981" y1="47.2615" x2="10.143" y2="10.7626" gradientUnits="userSpaceOnUse">
<stop stop-color="#AABEF3"/>
<stop offset="0.3907" stop-color="#81A0F3"/>
<stop offset="1" stop-color="#5475C7"/>
</linearGradient>
</defs>
</svg>
