<svg width="21" height="20" viewBox="0 0 21 20" fill="none" xmlns="http://www.w3.org/2000/svg">
<path d="M15.7488 14.8491C18.4824 12.1155 18.4824 7.68336 15.7488 4.94971C13.0151 2.21607 8.583 2.21607 5.84936 4.94971C3.11571 7.68336 3.11571 12.1155 5.84936 14.8491C8.583 17.5828 13.0151 17.5828 15.7488 14.8491Z" fill="#2F69D0"/>
<path d="M11.1655 14.9947C11.8803 14.9947 12.4597 14.4153 12.4597 13.7006C12.4597 12.9858 11.8803 12.4064 11.1655 12.4064C10.4507 12.4064 9.87131 12.9858 9.87131 13.7006C9.87131 14.4153 10.4507 14.9947 11.1655 14.9947Z" fill="white"/>
<path d="M9.96897 13.8226C9.96897 13.1064 10.5469 12.5285 11.2632 12.5285C11.6376 12.5285 11.9713 12.6913 12.2073 12.9436C11.9713 12.618 11.5887 12.4064 11.1573 12.4064C10.4411 12.4064 9.86316 12.9843 9.86316 13.7006C9.86316 14.0424 9.99339 14.3517 10.2132 14.5796C10.0666 14.368 9.96897 14.1075 9.96897 13.8226Z" fill="#DFDFDF"/>
<path d="M6.72163 10.4368C7.70611 10.4277 8.49683 9.62227 8.48775 8.63779C8.47867 7.65332 7.67323 6.8626 6.68875 6.87168C5.70427 6.88076 4.91355 7.6862 4.92263 8.67068C4.93171 9.65516 5.73715 10.4459 6.72163 10.4368Z" fill="white"/>
<path d="M5.05281 8.81677C5.05281 7.83189 5.85048 7.03421 6.83537 7.03421C7.3563 7.03421 7.82025 7.25398 8.14583 7.60398C7.82025 7.1563 7.29932 6.86328 6.70514 6.86328C5.72025 6.86328 4.92258 7.66096 4.92258 8.64584C4.92258 9.11793 5.10165 9.54119 5.40281 9.85863C5.18304 9.57375 5.05281 9.20747 5.05281 8.81677Z" fill="#DFDFDF"/>
<path d="M14.4458 6.9285C14.8638 6.9285 15.2027 6.58959 15.2027 6.17153C15.2027 5.75346 14.8638 5.41455 14.4458 5.41455C14.0277 5.41455 13.6888 5.75346 13.6888 6.17153C13.6888 6.58959 14.0277 6.9285 14.4458 6.9285Z" fill="white"/>
<path d="M13.7458 6.24478C13.7458 5.82967 14.0876 5.48781 14.5027 5.48781C14.7225 5.48781 14.9179 5.58548 15.0562 5.73199C14.9179 5.54478 14.6981 5.41455 14.4458 5.41455C14.0306 5.41455 13.6888 5.75641 13.6888 6.17153C13.6888 6.36688 13.7702 6.55409 13.8923 6.68432C13.7946 6.56222 13.7458 6.40757 13.7458 6.24478Z" fill="#DFDFDF"/>
<path d="M10.7362 5.40018C11.105 5.03145 11.105 4.43363 10.7362 4.06491C10.3675 3.69619 9.76969 3.69619 9.40097 4.06491C9.03225 4.43363 9.03225 5.03145 9.40097 5.40018C9.76969 5.7689 10.3675 5.7689 10.7362 5.40018Z" fill="white"/>
<path d="M9.19563 4.82034C9.19563 4.29941 9.61889 3.87616 10.1398 3.87616C10.4166 3.87616 10.6607 3.99011 10.8317 4.17732C10.6607 3.94127 10.384 3.78662 10.0666 3.78662C9.54563 3.78662 9.12238 4.20988 9.12238 4.73081C9.12238 4.97499 9.22005 5.2029 9.3747 5.37383C9.26889 5.21104 9.19563 5.02383 9.19563 4.82034Z" fill="#DFDFDF"/>
<path d="M11.4504 4.4622C11.2062 4.4622 11.0108 4.26685 11.0108 4.02266C11.0108 3.77848 11.2062 3.58313 11.4504 3.58313C11.6946 3.58313 11.8899 3.77848 11.8899 4.02266C11.898 4.26685 11.6946 4.4622 11.4504 4.4622Z" fill="white"/>
<path d="M11.0434 4.06336C11.0434 3.81918 11.2387 3.62383 11.4829 3.62383C11.6132 3.62383 11.7271 3.6808 11.8085 3.7622C11.7271 3.64825 11.5969 3.58313 11.4504 3.58313C11.2062 3.58313 11.0108 3.77848 11.0108 4.02266C11.0108 4.13662 11.0597 4.24243 11.1248 4.32383C11.076 4.25057 11.0434 4.16104 11.0434 4.06336Z" fill="#DFDFDF"/>
<path d="M4.47481 10.3389C4.23063 10.3389 4.03528 10.1436 4.03528 9.89937C4.03528 9.65519 4.23063 9.45984 4.47481 9.45984C4.719 9.45984 4.91435 9.65519 4.91435 9.89937C4.91435 10.1436 4.719 10.3389 4.47481 10.3389Z" fill="white"/>
<path d="M4.06784 9.94007C4.06784 9.69589 4.26319 9.50054 4.50737 9.50054C4.6376 9.50054 4.75156 9.55751 4.83295 9.63891C4.75156 9.52496 4.62132 9.45984 4.47481 9.45984C4.23063 9.45984 4.03528 9.65519 4.03528 9.89937C4.03528 10.0133 4.08412 10.1191 4.14923 10.2005C4.10039 10.1273 4.06784 10.0377 4.06784 9.94007Z" fill="#DFDFDF"/>
<path d="M6.93302 6.68423C6.81093 6.68423 6.71326 6.58655 6.71326 6.46446C6.71326 6.34236 6.81093 6.24469 6.93302 6.24469C7.05512 6.24469 7.15279 6.34236 7.15279 6.46446C7.15279 6.58655 7.05512 6.68423 6.93302 6.68423Z" fill="#EBEBEB"/>
<path d="M6.72954 6.48885C6.72954 6.36676 6.82721 6.26909 6.9493 6.26909C7.01442 6.26909 7.0714 6.29351 7.11209 6.34234C7.0714 6.28537 7.00628 6.25281 6.93302 6.25281C6.81093 6.25281 6.71326 6.35048 6.71326 6.47258C6.71326 6.52955 6.73768 6.58653 6.77023 6.61909C6.74582 6.57839 6.72954 6.53769 6.72954 6.48885Z" fill="#DFDFDF"/>
<path d="M5.38639 10.7785C5.2643 10.7785 5.16663 10.6808 5.16663 10.5587C5.16663 10.4366 5.2643 10.3389 5.38639 10.3389C5.50849 10.3389 5.60616 10.4366 5.60616 10.5587C5.60616 10.6808 5.50849 10.7785 5.38639 10.7785Z" fill="#EBEBEB"/>
<path d="M5.18291 10.5831C5.18291 10.461 5.28058 10.3633 5.40267 10.3633C5.46779 10.3633 5.52477 10.3877 5.56546 10.4366C5.52477 10.3796 5.45965 10.347 5.38639 10.347C5.2643 10.347 5.16663 10.4447 5.16663 10.5668C5.16663 10.6238 5.19104 10.6808 5.2236 10.7133C5.19918 10.6726 5.18291 10.6319 5.18291 10.5831Z" fill="#DFDFDF"/>
<path d="M12.9075 13.5459C12.7854 13.5459 12.6877 13.4482 12.6877 13.3261C12.6877 13.204 12.7854 13.1063 12.9075 13.1063C13.0295 13.1063 13.1272 13.204 13.1272 13.3261C13.1272 13.4482 13.0295 13.5459 12.9075 13.5459Z" fill="#EBEBEB"/>
<path d="M12.704 13.3424C12.704 13.2203 12.8016 13.1226 12.9237 13.1226C12.9888 13.1226 13.0458 13.147 13.0865 13.1959C13.0458 13.1389 12.9807 13.1063 12.9075 13.1063C12.7854 13.1063 12.6877 13.204 12.6877 13.3261C12.6877 13.3831 12.7121 13.44 12.7447 13.4726C12.7202 13.44 12.704 13.3912 12.704 13.3424Z" fill="#DFDFDF"/>
<path d="M14.3724 7.46572C14.2503 7.46572 14.1526 7.36804 14.1526 7.24595C14.1526 7.12386 14.2503 7.02618 14.3724 7.02618C14.4945 7.02618 14.5922 7.12386 14.5922 7.24595C14.5922 7.36804 14.4945 7.46572 14.3724 7.46572Z" fill="#EBEBEB"/>
<path d="M14.1689 7.26223C14.1689 7.14014 14.2666 7.04246 14.3887 7.04246C14.4538 7.04246 14.5108 7.06688 14.5515 7.11572C14.5108 7.05874 14.4457 7.02618 14.3724 7.02618C14.2503 7.02618 14.1526 7.12386 14.1526 7.24595C14.1526 7.30293 14.1771 7.3599 14.2096 7.39246C14.1852 7.3599 14.1689 7.31107 14.1689 7.26223Z" fill="#DFDFDF"/>
<path d="M16.5132 9.26445C16.756 9.26445 16.9527 9.06766 16.9527 8.82491C16.9527 8.58216 16.756 8.38538 16.5132 8.38538C16.2705 8.38538 16.0737 8.58216 16.0737 8.82491C16.0737 9.06766 16.2705 9.26445 16.5132 9.26445Z" fill="white"/>
<path d="M16.1062 8.86561C16.1062 8.62142 16.3016 8.42607 16.5458 8.42607C16.676 8.42607 16.7899 8.48305 16.8713 8.56445C16.7899 8.45049 16.6597 8.38538 16.5132 8.38538C16.269 8.38538 16.0737 8.58072 16.0737 8.82491C16.0737 8.93886 16.1225 9.04468 16.1876 9.12607C16.1388 9.05282 16.1062 8.96328 16.1062 8.86561Z" fill="#DFDFDF"/>
<path d="M13.6888 15.597C13.4446 15.597 13.2493 15.4017 13.2493 15.1575C13.2493 14.9133 13.4446 14.718 13.6888 14.718C13.933 14.718 14.1284 14.9133 14.1284 15.1575C14.1284 15.4017 13.9249 15.597 13.6888 15.597Z" fill="#EBEBEB"/>
<path d="M13.2819 15.1982C13.2819 14.954 13.4772 14.7587 13.7214 14.7587C13.8516 14.7587 13.9656 14.8156 14.047 14.897C13.9656 14.7831 13.8353 14.718 13.6888 14.718C13.4446 14.718 13.2493 14.9133 13.2493 15.1575C13.2493 15.2714 13.2981 15.3773 13.3633 15.4587C13.3063 15.3854 13.2819 15.2959 13.2819 15.1982Z" fill="#DFDFDF"/>
<path d="M12.9725 12.8215C13.3681 12.8215 13.6888 12.5008 13.6888 12.1053C13.6888 11.7097 13.3681 11.389 12.9725 11.389C12.5769 11.389 12.2563 11.7097 12.2563 12.1053C12.2563 12.5008 12.5769 12.8215 12.9725 12.8215Z" fill="#EBEBEB"/>
<path d="M12.3132 12.1704C12.3132 11.7797 12.6307 11.4541 13.0295 11.4541C13.233 11.4541 13.4202 11.5436 13.5504 11.682C13.4202 11.5029 13.2086 11.389 12.9725 11.389C12.5818 11.389 12.2563 11.7064 12.2563 12.1053C12.2563 12.2925 12.3295 12.4634 12.4435 12.5855C12.3621 12.4715 12.3132 12.325 12.3132 12.1704Z" fill="#DFDFDF"/>
<path d="M8.57712 14.718C8.97271 14.718 9.2934 14.3973 9.2934 14.0017C9.2934 13.6061 8.97271 13.2855 8.57712 13.2855C8.18153 13.2855 7.86084 13.6061 7.86084 14.0017C7.86084 14.3973 8.18153 14.718 8.57712 14.718Z" fill="white"/>
<path d="M7.92596 14.0669C7.92596 13.6762 8.24341 13.3506 8.64224 13.3506C8.84573 13.3506 9.03294 13.4401 9.16317 13.5785C9.03294 13.3994 8.82131 13.2855 8.58527 13.2855C8.19457 13.2855 7.86899 13.6029 7.86899 14.0017C7.86899 14.1889 7.94224 14.3599 8.0562 14.482C7.9748 14.368 7.92596 14.2215 7.92596 14.0669Z" fill="#DFDFDF"/>
<path opacity="0.2" d="M9.25269 14.2052C7.4213 14.197 5.73641 13.611 4.35269 12.6261C5.41083 15.125 7.88525 16.8831 10.7666 16.8994C14.6329 16.9156 17.7829 13.7982 17.7992 9.93193C17.7992 9.24007 17.7015 8.57263 17.5225 7.93774C16.5213 11.5598 13.1922 14.2215 9.25269 14.2052Z" fill="white"/>
<path opacity="0.2" d="M9.83053 15.4587C8.09681 15.4505 6.49332 14.9296 5.1503 14.0342C6.42007 15.7598 8.45495 16.8831 10.7666 16.8994C14.5759 16.9156 17.6852 13.8877 17.791 10.1028C16.5294 13.261 13.4363 15.4749 9.83053 15.4587Z" fill="#B8B8B8"/>
</svg>
