<svg width="175" height="39" viewBox="0 0 175 39" fill="none" xmlns="http://www.w3.org/2000/svg">
<path d="M56.088 30H51.96L54.672 13.992H58.776L62.016 22.536L65.448 13.992H69.6L72 30H67.848L66.672 20.784L62.808 30H61.152L57.456 20.784L56.088 30ZM80.3049 22.176C79.6489 22.176 79.0729 22.408 78.5769 22.872C78.0809 23.336 77.8329 23.92 77.8329 24.624C77.8329 25.264 78.0809 25.832 78.5769 26.328C79.0569 26.808 79.6329 27.048 80.3049 27.048C80.9609 27.048 81.5289 26.808 82.0089 26.328C82.5049 25.864 82.7529 25.296 82.7529 24.624C82.7529 23.952 82.5049 23.368 82.0089 22.872C81.5129 22.408 80.9449 22.176 80.3049 22.176ZM85.0809 20.688C86.1849 21.76 86.7369 23.072 86.7369 24.624C86.7369 26.176 86.1849 27.496 85.0809 28.584C83.8809 29.768 82.2809 30.36 80.2809 30.36C78.2969 30.36 76.7049 29.768 75.5049 28.584C74.4009 27.496 73.8489 26.176 73.8489 24.624C73.8489 23.072 74.4009 21.76 75.5049 20.688C76.7209 19.504 78.3129 18.912 80.2809 18.912C82.2329 18.912 83.8329 19.504 85.0809 20.688ZM94.9768 22.176C94.3208 22.176 93.7448 22.408 93.2488 22.872C92.7528 23.336 92.5048 23.92 92.5048 24.624C92.5048 25.264 92.7528 25.832 93.2488 26.328C93.7288 26.808 94.3048 27.048 94.9768 27.048C95.6328 27.048 96.2008 26.808 96.6808 26.328C97.1768 25.864 97.4248 25.296 97.4248 24.624C97.4248 23.952 97.1768 23.368 96.6808 22.872C96.1848 22.408 95.6168 22.176 94.9768 22.176ZM99.7528 20.688C100.857 21.76 101.409 23.072 101.409 24.624C101.409 26.176 100.857 27.496 99.7528 28.584C98.5528 29.768 96.9528 30.36 94.9528 30.36C92.9688 30.36 91.3768 29.768 90.1768 28.584C89.0728 27.496 88.5208 26.176 88.5208 24.624C88.5208 23.072 89.0728 21.76 90.1768 20.688C91.3928 19.504 92.9848 18.912 94.9528 18.912C96.9048 18.912 98.5048 19.504 99.7528 20.688ZM103.625 30V19.272H107.465V20.616C108.265 19.56 109.401 19.032 110.873 19.032C112.217 19.032 113.273 19.416 114.041 20.184C114.457 20.6 114.729 21.032 114.857 21.48C114.985 21.928 115.049 22.496 115.049 23.184V30H111.209V24.576C111.209 23.52 111.049 22.824 110.729 22.488C110.441 22.184 110.033 22.032 109.505 22.032C108.929 22.032 108.457 22.2 108.089 22.536C107.673 22.92 107.465 23.488 107.465 24.24V30H103.625ZM124.696 30H118.024V13.992H124.216C125.8 13.992 126.968 14.408 127.72 15.24C128.376 15.96 128.704 16.96 128.704 18.24C128.704 18.944 128.552 19.6 128.248 20.208C127.928 20.8 127.496 21.216 126.952 21.456C127.848 21.552 128.576 21.872 129.136 22.416C129.856 23.104 130.216 24.08 130.216 25.344C130.216 26.656 129.824 27.704 129.04 28.488C128.064 29.496 126.616 30 124.696 30ZM122.176 17.184V20.304H122.944C123.68 20.304 124.208 20.136 124.528 19.8C124.784 19.544 124.912 19.192 124.912 18.744C124.912 18.312 124.784 17.952 124.528 17.664C124.208 17.344 123.68 17.184 122.944 17.184H122.176ZM122.176 23.4V26.76H123.112C124.456 26.76 125.312 26.544 125.68 26.112C125.904 25.856 126.016 25.512 126.016 25.08C126.016 24.584 125.88 24.2 125.608 23.928C125.256 23.576 124.4 23.4 123.04 23.4H122.176ZM140.804 20.304V19.272H144.644V30H140.804V28.824C140.068 29.848 138.956 30.36 137.468 30.36C135.964 30.36 134.676 29.792 133.604 28.656C132.58 27.568 132.068 26.256 132.068 24.72C132.068 22.96 132.62 21.528 133.724 20.424C134.732 19.416 136.02 18.912 137.588 18.912C138.9 18.912 139.972 19.376 140.804 20.304ZM138.452 22.176C137.812 22.176 137.252 22.408 136.772 22.872C136.26 23.368 136.004 23.952 136.004 24.624C136.004 25.328 136.252 25.912 136.748 26.376C137.26 26.856 137.836 27.096 138.476 27.096C139.132 27.096 139.708 26.848 140.204 26.352C140.684 25.872 140.924 25.296 140.924 24.624C140.924 23.936 140.676 23.352 140.18 22.872C139.684 22.408 139.108 22.176 138.452 22.176ZM147.289 30V19.272H151.129V20.616C151.929 19.56 153.065 19.032 154.537 19.032C155.881 19.032 156.937 19.416 157.705 20.184C158.121 20.6 158.393 21.032 158.521 21.48C158.649 21.928 158.713 22.496 158.713 23.184V30H154.873V24.576C154.873 23.52 154.713 22.824 154.393 22.488C154.105 22.184 153.697 22.032 153.169 22.032C152.593 22.032 152.121 22.2 151.753 22.536C151.337 22.92 151.129 23.488 151.129 24.24V30H147.289ZM161.328 12.504H165.168V23.136L168.792 19.272H174L168.936 24.216L174.408 30H169.08L165.168 25.608V30H161.328V12.504Z" fill="#2F69D0"/>
<g clip-path="url(#clip0)">
<path d="M29.0205 34.0207C35.6593 27.3818 35.6593 16.6181 29.0205 9.9793C22.3816 3.34045 11.6179 3.34045 4.97908 9.9793C-1.65977 16.6181 -1.65977 27.3818 4.97908 34.0207C11.6179 40.6595 22.3816 40.6595 29.0205 34.0207Z" fill="#2F69D0"/>
<path d="M17.8895 34.3744C19.6254 34.3744 21.0326 32.9672 21.0326 31.2314C21.0326 29.4956 19.6254 28.0884 17.8895 28.0884C16.1537 28.0884 14.7465 29.4956 14.7465 31.2314C14.7465 32.9672 16.1537 34.3744 17.8895 34.3744Z" fill="white"/>
<path d="M14.9837 31.5279C14.9837 29.7884 16.3872 28.3849 18.1268 28.3849C19.0361 28.3849 19.8465 28.7802 20.4198 29.393C19.8465 28.6023 18.9175 28.0884 17.8698 28.0884C16.1302 28.0884 14.7268 29.4919 14.7268 31.2314C14.7268 32.0616 15.043 32.8128 15.5768 33.3663C15.2209 32.8523 14.9837 32.2198 14.9837 31.5279Z" fill="#DFDFDF"/>
<path d="M7.09718 23.3052C9.48805 23.2831 11.4084 21.3271 11.3863 18.9362C11.3643 16.5453 9.40819 14.625 7.01731 14.647C4.62643 14.6691 2.70612 16.6252 2.72817 19.016C2.75023 21.4069 4.7063 23.3272 7.09718 23.3052Z" fill="white"/>
<path d="M3.04415 19.3709C3.04415 16.9791 4.98136 15.0419 7.37322 15.0419C8.63833 15.0419 9.76508 15.5756 10.5558 16.4256C9.76508 15.3384 8.49996 14.6267 7.05694 14.6267C4.66508 14.6267 2.72787 16.564 2.72787 18.9558C2.72787 20.1023 3.16275 21.1302 3.89415 21.9012C3.36043 21.2093 3.04415 20.3198 3.04415 19.3709Z" fill="#DFDFDF"/>
<path d="M25.8558 14.7849C26.8711 14.7849 27.6941 13.9618 27.6941 12.9465C27.6941 11.9312 26.8711 11.1081 25.8558 11.1081C24.8404 11.1081 24.0174 11.9312 24.0174 12.9465C24.0174 13.9618 24.8404 14.7849 25.8558 14.7849Z" fill="white"/>
<path d="M24.1558 13.1244C24.1558 12.1163 24.986 11.286 25.9941 11.286C26.5278 11.286 27.0023 11.5233 27.3383 11.8791C27.0023 11.4244 26.4685 11.1081 25.8558 11.1081C24.8476 11.1081 24.0174 11.9384 24.0174 12.9465C24.0174 13.4209 24.2151 13.8756 24.5116 14.1919C24.2744 13.8953 24.1558 13.5198 24.1558 13.1244Z" fill="#DFDFDF"/>
<path d="M16.8472 11.0734C17.7427 10.1779 17.7427 8.72605 16.8472 7.83058C15.9518 6.93511 14.4999 6.93511 13.6044 7.83058C12.709 8.72605 12.709 10.1779 13.6044 11.0734C14.4999 11.9688 15.9518 11.9688 16.8472 11.0734Z" fill="white"/>
<path d="M13.1058 9.66512C13.1058 8.4 14.1337 7.37209 15.3988 7.37209C16.0709 7.37209 16.6639 7.64884 17.079 8.10349C16.6639 7.53023 15.9918 7.15465 15.2209 7.15465C13.9558 7.15465 12.9278 8.18256 12.9278 9.44767C12.9278 10.0407 13.1651 10.5942 13.5406 11.0093C13.2837 10.614 13.1058 10.1593 13.1058 9.66512Z" fill="#DFDFDF"/>
<path d="M18.5814 8.79535C17.9883 8.79535 17.5139 8.32093 17.5139 7.72791C17.5139 7.13488 17.9883 6.66047 18.5814 6.66047C19.1744 6.66047 19.6488 7.13488 19.6488 7.72791C19.6686 8.32093 19.1744 8.79535 18.5814 8.79535Z" fill="white"/>
<path d="M17.593 7.82674C17.593 7.23372 18.0674 6.7593 18.6604 6.7593C18.9767 6.7593 19.2534 6.89767 19.4511 7.09535C19.2534 6.8186 18.9372 6.66047 18.5814 6.66047C17.9883 6.66047 17.5139 7.13488 17.5139 7.72791C17.5139 8.00465 17.6325 8.26163 17.7907 8.4593C17.672 8.2814 17.593 8.06395 17.593 7.82674Z" fill="#DFDFDF"/>
<path d="M1.64068 23.0674C1.04765 23.0674 0.573235 22.593 0.573235 22C0.573235 21.407 1.04765 20.9326 1.64068 20.9326C2.2337 20.9326 2.70812 21.407 2.70812 22C2.70812 22.593 2.2337 23.0674 1.64068 23.0674Z" fill="white"/>
<path d="M0.652304 22.0988C0.652304 21.5058 1.12672 21.0314 1.71975 21.0314C2.03603 21.0314 2.31277 21.1698 2.51044 21.3674C2.31277 21.0907 1.99649 20.9326 1.64068 20.9326C1.04765 20.9326 0.573235 21.407 0.573235 22C0.573235 22.2767 0.691839 22.5337 0.849979 22.7314C0.731374 22.5535 0.652304 22.336 0.652304 22.0988Z" fill="#DFDFDF"/>
<path d="M7.61045 14.1919C7.31394 14.1919 7.07673 13.9547 7.07673 13.6581C7.07673 13.3616 7.31394 13.1244 7.61045 13.1244C7.90696 13.1244 8.14417 13.3616 8.14417 13.6581C8.14417 13.9547 7.90696 14.1919 7.61045 14.1919Z" fill="#EBEBEB"/>
<path d="M7.11626 13.7174C7.11626 13.4209 7.35347 13.1837 7.64999 13.1837C7.80813 13.1837 7.9465 13.243 8.04533 13.3616C7.9465 13.2233 7.78836 13.1442 7.61045 13.1442C7.31394 13.1442 7.07673 13.3814 7.07673 13.6779C7.07673 13.8163 7.13603 13.9547 7.2151 14.0337C7.1558 13.9349 7.11626 13.836 7.11626 13.7174Z" fill="#DFDFDF"/>
<path d="M3.85467 24.1349C3.55816 24.1349 3.32095 23.8977 3.32095 23.6012C3.32095 23.3047 3.55816 23.0674 3.85467 23.0674C4.15118 23.0674 4.38839 23.3047 4.38839 23.6012C4.38839 23.8977 4.15118 24.1349 3.85467 24.1349Z" fill="#EBEBEB"/>
<path d="M3.36048 23.6605C3.36048 23.364 3.59769 23.1267 3.8942 23.1267C4.05234 23.1267 4.19071 23.186 4.28955 23.3047C4.19071 23.1663 4.03257 23.0872 3.85467 23.0872C3.55816 23.0872 3.32095 23.3244 3.32095 23.6209C3.32095 23.7593 3.38025 23.8977 3.45932 23.9767C3.40002 23.8779 3.36048 23.7791 3.36048 23.6605Z" fill="#DFDFDF"/>
<path d="M22.1198 30.8558C21.8232 30.8558 21.586 30.6186 21.586 30.3221C21.586 30.0256 21.8232 29.7884 22.1198 29.7884C22.4163 29.7884 22.6535 30.0256 22.6535 30.3221C22.6535 30.6186 22.4163 30.8558 22.1198 30.8558Z" fill="#EBEBEB"/>
<path d="M21.6256 30.3616C21.6256 30.0651 21.8628 29.8279 22.1593 29.8279C22.3174 29.8279 22.4558 29.8872 22.5546 30.0058C22.4558 29.8674 22.2977 29.7884 22.1198 29.7884C21.8232 29.7884 21.586 30.0256 21.586 30.3221C21.586 30.4605 21.6453 30.5988 21.7244 30.6779C21.6651 30.5988 21.6256 30.4802 21.6256 30.3616Z" fill="#DFDFDF"/>
<path d="M25.6779 16.0895C25.3814 16.0895 25.1442 15.8523 25.1442 15.5558C25.1442 15.2593 25.3814 15.0221 25.6779 15.0221C25.9744 15.0221 26.2116 15.2593 26.2116 15.5558C26.2116 15.8523 25.9744 16.0895 25.6779 16.0895Z" fill="#EBEBEB"/>
<path d="M25.1837 15.5954C25.1837 15.2988 25.4209 15.0616 25.7174 15.0616C25.8756 15.0616 26.0139 15.1209 26.1128 15.2395C26.0139 15.1012 25.8558 15.0221 25.6779 15.0221C25.3814 15.0221 25.1442 15.2593 25.1442 15.5558C25.1442 15.6942 25.2035 15.8326 25.2825 15.9116C25.2232 15.8326 25.1837 15.714 25.1837 15.5954Z" fill="#DFDFDF"/>
<path d="M30.8768 20.4581C31.4663 20.4581 31.9442 19.9802 31.9442 19.3907C31.9442 18.8012 31.4663 18.3233 30.8768 18.3233C30.2872 18.3233 29.8093 18.8012 29.8093 19.3907C29.8093 19.9802 30.2872 20.4581 30.8768 20.4581Z" fill="white"/>
<path d="M29.8884 19.4895C29.8884 18.8965 30.3628 18.4221 30.9558 18.4221C31.2721 18.4221 31.5489 18.5605 31.7465 18.7581C31.5489 18.4814 31.2326 18.3233 30.8768 18.3233C30.2837 18.3233 29.8093 18.7977 29.8093 19.3907C29.8093 19.6674 29.9279 19.9244 30.0861 20.1221C29.9675 19.9442 29.8884 19.7267 29.8884 19.4895Z" fill="#DFDFDF"/>
<path d="M24.0175 35.8372C23.4244 35.8372 22.95 35.3628 22.95 34.7698C22.95 34.1767 23.4244 33.7023 24.0175 33.7023C24.6105 33.7023 25.0849 34.1767 25.0849 34.7698C25.0849 35.3628 24.5907 35.8372 24.0175 35.8372Z" fill="#EBEBEB"/>
<path d="M23.0291 34.8686C23.0291 34.2756 23.5035 33.8012 24.0965 33.8012C24.4128 33.8012 24.6896 33.9395 24.8872 34.1372C24.6896 33.8605 24.3733 33.7023 24.0175 33.7023C23.4244 33.7023 22.95 34.1767 22.95 34.7698C22.95 35.0465 23.0686 35.3035 23.2268 35.5012C23.0884 35.3233 23.0291 35.1058 23.0291 34.8686Z" fill="#DFDFDF"/>
<path d="M22.2779 29.0965C23.2386 29.0965 24.0174 28.3177 24.0174 27.357C24.0174 26.3963 23.2386 25.6174 22.2779 25.6174C21.3172 25.6174 20.5383 26.3963 20.5383 27.357C20.5383 28.3177 21.3172 29.0965 22.2779 29.0965Z" fill="#EBEBEB"/>
<path d="M20.6767 27.5151C20.6767 26.5663 21.4476 25.7756 22.4163 25.7756C22.9104 25.7756 23.3651 25.993 23.6814 26.3291C23.3651 25.8942 22.8511 25.6174 22.2779 25.6174C21.329 25.6174 20.5383 26.3884 20.5383 27.357C20.5383 27.8116 20.7163 28.2267 20.993 28.5233C20.7953 28.2465 20.6767 27.8907 20.6767 27.5151Z" fill="#DFDFDF"/>
<path d="M11.6035 33.7023C12.5642 33.7023 13.343 32.9235 13.343 31.9628C13.343 31.0021 12.5642 30.2233 11.6035 30.2233C10.6428 30.2233 9.86396 31.0021 9.86396 31.9628C9.86396 32.9235 10.6428 33.7023 11.6035 33.7023Z" fill="white"/>
<path d="M10.0221 32.1209C10.0221 31.1721 10.793 30.3814 11.7616 30.3814C12.2558 30.3814 12.7105 30.5988 13.0267 30.9349C12.7105 30.5 12.1965 30.2233 11.6233 30.2233C10.6744 30.2233 9.88372 30.9942 9.88372 31.9628C9.88372 32.4174 10.0616 32.8326 10.3384 33.1291C10.1407 32.8523 10.0221 32.4965 10.0221 32.1209Z" fill="#DFDFDF"/>
<path opacity="0.2" d="M13.2442 32.457C8.79653 32.4372 4.70467 31.0139 1.3442 28.6221C3.91397 34.6907 9.92327 38.9605 16.9209 39C26.3105 39.0395 33.9605 31.4686 34 22.0791C34 20.3988 33.7628 18.7779 33.3279 17.236C30.8965 26.0326 22.8116 32.4965 13.2442 32.457Z" fill="white"/>
<path opacity="0.2" d="M14.6477 35.5012C10.4372 35.4814 6.54302 34.2163 3.28139 32.0419C6.36511 36.2326 11.307 38.9605 16.9209 39C26.1721 39.0395 33.7232 31.686 33.9802 22.4942C30.9163 30.164 23.4046 35.5407 14.6477 35.5012Z" fill="#B8B8B8"/>
</g>
<path d="M18 1.76402C26 2.26402 39 8.26402 36.5 21.264C44.5 5.76402 30.5 -4.23598 18 1.76402Z" fill="#EBEBEB"/>
<defs>
<clipPath id="clip0">
<rect width="34" height="34" fill="white" transform="translate(0 5)"/>
</clipPath>
</defs>
</svg>
