<svg width="34" height="34" viewBox="0 0 34 34" fill="none" xmlns="http://www.w3.org/2000/svg">
<path d="M29.0205 29.0207C35.6593 22.3819 35.6593 11.6181 29.0205 4.9793C22.3816 -1.65955 11.6179 -1.65955 4.97907 4.9793C-1.65977 11.6181 -1.65977 22.3819 4.97907 29.0207C11.6179 35.6596 22.3816 35.6596 29.0205 29.0207Z" fill="#2F69D0"/>
<path d="M17.8895 29.3744C19.6254 29.3744 21.0326 27.9672 21.0326 26.2314C21.0326 24.4955 19.6254 23.0884 17.8895 23.0884C16.1537 23.0884 14.7465 24.4955 14.7465 26.2314C14.7465 27.9672 16.1537 29.3744 17.8895 29.3744Z" fill="white"/>
<path d="M14.9837 26.5279C14.9837 24.7884 16.3872 23.3849 18.1267 23.3849C19.036 23.3849 19.8465 23.7802 20.4198 24.393C19.8465 23.6023 18.9174 23.0884 17.8698 23.0884C16.1302 23.0884 14.7267 24.4919 14.7267 26.2314C14.7267 27.0616 15.043 27.8128 15.5767 28.3663C15.2209 27.8523 14.9837 27.2198 14.9837 26.5279Z" fill="#DFDFDF"/>
<path d="M7.09717 18.3052C9.48805 18.2831 11.4084 16.3271 11.3863 13.9362C11.3643 11.5453 9.40818 9.62499 7.0173 9.64705C4.62642 9.6691 2.70611 11.6252 2.72816 14.016C2.75022 16.4069 4.70629 18.3272 7.09717 18.3052Z" fill="white"/>
<path d="M3.04414 14.3709C3.04414 11.9791 4.98135 10.0419 7.37321 10.0419C8.63832 10.0419 9.76507 10.5756 10.5558 11.4256C9.76507 10.3384 8.49995 9.62675 7.05693 9.62675C4.66507 9.62675 2.72786 11.564 2.72786 13.9558C2.72786 15.1023 3.16274 16.1302 3.89414 16.9012C3.36042 16.2093 3.04414 15.3198 3.04414 14.3709Z" fill="#DFDFDF"/>
<path d="M25.8557 9.78489C26.871 9.78489 27.6941 8.96182 27.6941 7.94652C27.6941 6.93121 26.871 6.10814 25.8557 6.10814C24.8404 6.10814 24.0174 6.93121 24.0174 7.94652C24.0174 8.96182 24.8404 9.78489 25.8557 9.78489Z" fill="white"/>
<path d="M24.1557 8.12442C24.1557 7.11628 24.986 6.28605 25.9941 6.28605C26.5278 6.28605 27.0022 6.52326 27.3383 6.87907C27.0022 6.42442 26.4685 6.10814 25.8557 6.10814C24.8476 6.10814 24.0174 6.93838 24.0174 7.94651C24.0174 8.42093 24.215 8.87558 24.5116 9.19186C24.2743 8.89535 24.1557 8.51977 24.1557 8.12442Z" fill="#DFDFDF"/>
<path d="M16.8472 6.07337C17.7427 5.1779 17.7427 3.72605 16.8472 2.83058C15.9517 1.93511 14.4999 1.93511 13.6044 2.83058C12.709 3.72605 12.709 5.1779 13.6044 6.07337C14.4999 6.96885 15.9517 6.96885 16.8472 6.07337Z" fill="white"/>
<path d="M13.1057 4.66512C13.1057 3.4 14.1336 2.37209 15.3988 2.37209C16.0709 2.37209 16.6639 2.64884 17.079 3.10349C16.6639 2.53023 15.9918 2.15465 15.2208 2.15465C13.9557 2.15465 12.9278 3.18256 12.9278 4.44767C12.9278 5.0407 13.165 5.59419 13.5406 6.0093C13.2836 5.61395 13.1057 5.1593 13.1057 4.66512Z" fill="#DFDFDF"/>
<path d="M18.5813 3.79535C17.9883 3.79535 17.5139 3.32093 17.5139 2.72791C17.5139 2.13489 17.9883 1.66047 18.5813 1.66047C19.1744 1.66047 19.6488 2.13489 19.6488 2.72791C19.6686 3.32093 19.1744 3.79535 18.5813 3.79535Z" fill="white"/>
<path d="M17.593 2.82675C17.593 2.23372 18.0674 1.75931 18.6604 1.75931C18.9767 1.75931 19.2534 1.89768 19.4511 2.09535C19.2534 1.81861 18.9372 1.66047 18.5813 1.66047C17.9883 1.66047 17.5139 2.13489 17.5139 2.72791C17.5139 3.00465 17.6325 3.26163 17.7906 3.45931C17.672 3.2814 17.593 3.06396 17.593 2.82675Z" fill="#DFDFDF"/>
<path d="M1.64067 18.0674C1.04765 18.0674 0.573227 17.593 0.573227 17C0.573227 16.407 1.04765 15.9326 1.64067 15.9326C2.23369 15.9326 2.70811 16.407 2.70811 17C2.70811 17.593 2.23369 18.0674 1.64067 18.0674Z" fill="white"/>
<path d="M0.652297 17.0988C0.652297 16.5058 1.12672 16.0314 1.71974 16.0314C2.03602 16.0314 2.31276 16.1698 2.51044 16.3674C2.31276 16.0907 1.99648 15.9326 1.64067 15.9326C1.04765 15.9326 0.573227 16.407 0.573227 17C0.573227 17.2767 0.691832 17.5337 0.849971 17.7314C0.731366 17.5535 0.652297 17.3361 0.652297 17.0988Z" fill="#DFDFDF"/>
<path d="M7.61044 9.19186C7.31393 9.19186 7.07672 8.95465 7.07672 8.65814C7.07672 8.36163 7.31393 8.12442 7.61044 8.12442C7.90695 8.12442 8.14416 8.36163 8.14416 8.65814C8.14416 8.95465 7.90695 9.19186 7.61044 9.19186Z" fill="#EBEBEB"/>
<path d="M7.11626 8.71745C7.11626 8.42093 7.35347 8.18373 7.64998 8.18373C7.80812 8.18373 7.94649 8.24303 8.04533 8.36163C7.94649 8.22326 7.78835 8.14419 7.61044 8.14419C7.31393 8.14419 7.07672 8.3814 7.07672 8.67791C7.07672 8.81628 7.13602 8.95466 7.21509 9.03372C7.15579 8.93489 7.11626 8.83605 7.11626 8.71745Z" fill="#DFDFDF"/>
<path d="M3.85466 19.1349C3.55815 19.1349 3.32094 18.8977 3.32094 18.6012C3.32094 18.3047 3.55815 18.0674 3.85466 18.0674C4.15117 18.0674 4.38838 18.3047 4.38838 18.6012C4.38838 18.8977 4.15117 19.1349 3.85466 19.1349Z" fill="#EBEBEB"/>
<path d="M3.36047 18.6605C3.36047 18.364 3.59768 18.1267 3.89419 18.1267C4.05233 18.1267 4.19071 18.186 4.28954 18.3047C4.19071 18.1663 4.03257 18.0872 3.85466 18.0872C3.55815 18.0872 3.32094 18.3244 3.32094 18.6209C3.32094 18.7593 3.38024 18.8977 3.45931 18.9767C3.40001 18.8779 3.36047 18.7791 3.36047 18.6605Z" fill="#DFDFDF"/>
<path d="M22.1198 25.8558C21.8232 25.8558 21.586 25.6186 21.586 25.3221C21.586 25.0256 21.8232 24.7884 22.1198 24.7884C22.4163 24.7884 22.6535 25.0256 22.6535 25.3221C22.6535 25.6186 22.4163 25.8558 22.1198 25.8558Z" fill="#EBEBEB"/>
<path d="M21.6256 25.3616C21.6256 25.0651 21.8628 24.8279 22.1593 24.8279C22.3174 24.8279 22.4558 24.8872 22.5546 25.0058C22.4558 24.8674 22.2977 24.7884 22.1198 24.7884C21.8232 24.7884 21.586 25.0256 21.586 25.3221C21.586 25.4605 21.6453 25.5988 21.7244 25.6779C21.6651 25.5988 21.6256 25.4802 21.6256 25.3616Z" fill="#DFDFDF"/>
<path d="M25.6779 11.0895C25.3814 11.0895 25.1442 10.8523 25.1442 10.5558C25.1442 10.2593 25.3814 10.0221 25.6779 10.0221C25.9744 10.0221 26.2116 10.2593 26.2116 10.5558C26.2116 10.8523 25.9744 11.0895 25.6779 11.0895Z" fill="#EBEBEB"/>
<path d="M25.1837 10.5954C25.1837 10.2988 25.4209 10.0616 25.7174 10.0616C25.8756 10.0616 26.0139 10.1209 26.1128 10.2395C26.0139 10.1012 25.8558 10.0221 25.6779 10.0221C25.3814 10.0221 25.1442 10.2593 25.1442 10.5558C25.1442 10.6942 25.2035 10.8326 25.2825 10.9116C25.2232 10.8326 25.1837 10.714 25.1837 10.5954Z" fill="#DFDFDF"/>
<path d="M30.8768 15.4581C31.4663 15.4581 31.9442 14.9802 31.9442 14.3907C31.9442 13.8012 31.4663 13.3233 30.8768 13.3233C30.2872 13.3233 29.8093 13.8012 29.8093 14.3907C29.8093 14.9802 30.2872 15.4581 30.8768 15.4581Z" fill="white"/>
<path d="M29.8884 14.4895C29.8884 13.8965 30.3628 13.4221 30.9558 13.4221C31.2721 13.4221 31.5488 13.5605 31.7465 13.7581C31.5488 13.4814 31.2326 13.3233 30.8767 13.3233C30.2837 13.3233 29.8093 13.7977 29.8093 14.3907C29.8093 14.6674 29.9279 14.9244 30.0861 15.1221C29.9674 14.9442 29.8884 14.7267 29.8884 14.4895Z" fill="#DFDFDF"/>
<path d="M24.0175 30.8372C23.4244 30.8372 22.95 30.3628 22.95 29.7698C22.95 29.1767 23.4244 28.7023 24.0175 28.7023C24.6105 28.7023 25.0849 29.1767 25.0849 29.7698C25.0849 30.3628 24.5907 30.8372 24.0175 30.8372Z" fill="#EBEBEB"/>
<path d="M23.0291 29.8686C23.0291 29.2756 23.5035 28.8012 24.0965 28.8012C24.4128 28.8012 24.6896 28.9395 24.8872 29.1372C24.6896 28.8605 24.3733 28.7023 24.0175 28.7023C23.4244 28.7023 22.95 29.1767 22.95 29.7698C22.95 30.0465 23.0686 30.3035 23.2268 30.5012C23.0884 30.3233 23.0291 30.1058 23.0291 29.8686Z" fill="#DFDFDF"/>
<path d="M22.2779 24.0965C23.2386 24.0965 24.0174 23.3177 24.0174 22.357C24.0174 21.3963 23.2386 20.6174 22.2779 20.6174C21.3172 20.6174 20.5383 21.3963 20.5383 22.357C20.5383 23.3177 21.3172 24.0965 22.2779 24.0965Z" fill="#EBEBEB"/>
<path d="M20.6767 22.5151C20.6767 21.5663 21.4476 20.7756 22.4163 20.7756C22.9104 20.7756 23.3651 20.993 23.6814 21.3291C23.3651 20.8942 22.8511 20.6174 22.2779 20.6174C21.329 20.6174 20.5383 21.3884 20.5383 22.357C20.5383 22.8116 20.7163 23.2268 20.993 23.5233C20.7953 23.2465 20.6767 22.8907 20.6767 22.5151Z" fill="#DFDFDF"/>
<path d="M11.6035 28.7023C12.5642 28.7023 13.343 27.9235 13.343 26.9628C13.343 26.0021 12.5642 25.2233 11.6035 25.2233C10.6428 25.2233 9.86395 26.0021 9.86395 26.9628C9.86395 27.9235 10.6428 28.7023 11.6035 28.7023Z" fill="white"/>
<path d="M10.0221 27.1209C10.0221 26.1721 10.793 25.3814 11.7616 25.3814C12.2558 25.3814 12.7105 25.5988 13.0267 25.9349C12.7105 25.5 12.1965 25.2233 11.6232 25.2233C10.6744 25.2233 9.88371 25.9942 9.88371 26.9628C9.88371 27.4174 10.0616 27.8326 10.3384 28.1291C10.1407 27.8523 10.0221 27.4965 10.0221 27.1209Z" fill="#DFDFDF"/>
<path opacity="0.2" d="M13.2442 27.457C8.79652 27.4372 4.70466 26.014 1.34419 23.6221C3.91396 29.6907 9.92326 33.9605 16.9209 34C26.3105 34.0395 33.9605 26.4686 34 17.0791C34 15.3988 33.7628 13.7779 33.3279 12.236C30.8965 21.0326 22.8116 27.4965 13.2442 27.457Z" fill="white"/>
<path opacity="0.2" d="M14.6477 30.5012C10.4372 30.4814 6.543 29.2163 3.28137 27.0419C6.36509 31.2326 11.307 33.9605 16.9209 34C26.1721 34.0395 33.7232 26.686 33.9802 17.4942C30.9163 25.164 23.4046 30.5407 14.6477 30.5012Z" fill="#B8B8B8"/>
</svg>
