<svg width="56" height="56" viewBox="0 0 56 56" fill="none" xmlns="http://www.w3.org/2000/svg">
<path d="M0.5 28C0.5 12.836 12.836 0.5 28 0.5C43.164 0.5 55.5 12.8382 55.5 28C55.5 43.1618 43.164 55.5 28 55.5C12.836 55.5 0.5 43.164 0.5 28ZM3.8377 28C3.8377 41.3241 14.6782 52.1623 28 52.1623C41.3218 52.1623 52.1623 41.3241 52.1623 28C52.1623 14.676 41.324 3.8377 28 3.8377C14.6782 3.8377 3.8377 14.6759 3.8377 28Z" fill="#2F69D0" stroke="white"/>
<path d="M40.51 18.6317L40.5104 18.6321C41.192 19.2504 41.2435 20.3049 40.6233 20.9906C40.6232 20.9907 40.6231 20.9908 40.6229 20.991L25.8514 37.2568L25.8512 37.2571C25.5487 37.5906 25.1256 37.7868 24.6732 37.8036C24.6442 37.8018 24.6225 37.802 24.6176 37.8021L24.6166 37.8021C24.1696 37.8021 23.7428 37.6239 23.4267 37.303C23.4267 37.3029 23.4266 37.3029 23.4266 37.3028L15.4258 29.1698L15.4256 29.1696C14.7784 28.5123 14.7881 27.4563 15.4458 26.8103L15.4467 26.8094C16.1009 26.1636 17.1548 26.1713 17.8061 26.8307C17.8062 26.8308 17.8063 26.8309 17.8064 26.8309L24.1974 33.3281L24.5684 33.7053L24.924 33.3137L38.1539 18.7456C38.7748 18.0629 39.8315 18.0149 40.51 18.6317Z" fill="#2F69D0" stroke="white"/>
</svg>
