<svg width="124" height="19" viewBox="0 0 124 19" fill="none" xmlns="http://www.w3.org/2000/svg">
<path d="M5.088 18H0.96L3.672 1.992H7.776L11.016 10.536L14.448 1.992H18.6L21 18H16.848L15.672 8.784L11.808 18H10.152L6.456 8.784L5.088 18ZM29.3049 10.176C28.6489 10.176 28.0729 10.408 27.5769 10.872C27.0809 11.336 26.8329 11.92 26.8329 12.624C26.8329 13.264 27.0809 13.832 27.5769 14.328C28.0569 14.808 28.6329 15.048 29.3049 15.048C29.9609 15.048 30.5289 14.808 31.0089 14.328C31.5049 13.864 31.7529 13.296 31.7529 12.624C31.7529 11.952 31.5049 11.368 31.0089 10.872C30.5129 10.408 29.9449 10.176 29.3049 10.176ZM34.0809 8.688C35.1849 9.76 35.7369 11.072 35.7369 12.624C35.7369 14.176 35.1849 15.496 34.0809 16.584C32.8809 17.768 31.2809 18.36 29.2809 18.36C27.2969 18.36 25.7049 17.768 24.5049 16.584C23.4009 15.496 22.8489 14.176 22.8489 12.624C22.8489 11.072 23.4009 9.76 24.5049 8.688C25.7209 7.504 27.3129 6.912 29.2809 6.912C31.2329 6.912 32.8329 7.504 34.0809 8.688ZM43.9768 10.176C43.3208 10.176 42.7448 10.408 42.2488 10.872C41.7528 11.336 41.5048 11.92 41.5048 12.624C41.5048 13.264 41.7528 13.832 42.2488 14.328C42.7288 14.808 43.3048 15.048 43.9768 15.048C44.6328 15.048 45.2008 14.808 45.6808 14.328C46.1768 13.864 46.4248 13.296 46.4248 12.624C46.4248 11.952 46.1768 11.368 45.6808 10.872C45.1848 10.408 44.6168 10.176 43.9768 10.176ZM48.7528 8.688C49.8568 9.76 50.4088 11.072 50.4088 12.624C50.4088 14.176 49.8568 15.496 48.7528 16.584C47.5528 17.768 45.9528 18.36 43.9528 18.36C41.9688 18.36 40.3768 17.768 39.1768 16.584C38.0728 15.496 37.5208 14.176 37.5208 12.624C37.5208 11.072 38.0728 9.76 39.1768 8.688C40.3928 7.504 41.9848 6.912 43.9528 6.912C45.9048 6.912 47.5048 7.504 48.7528 8.688ZM52.6247 18V7.272H56.4647V8.616C57.2647 7.56 58.4007 7.032 59.8727 7.032C61.2167 7.032 62.2727 7.416 63.0407 8.184C63.4567 8.6 63.7287 9.032 63.8567 9.48C63.9847 9.928 64.0487 10.496 64.0487 11.184V18H60.2087V12.576C60.2087 11.52 60.0487 10.824 59.7287 10.488C59.4407 10.184 59.0327 10.032 58.5047 10.032C57.9287 10.032 57.4567 10.2 57.0887 10.536C56.6727 10.92 56.4647 11.488 56.4647 12.24V18H52.6247ZM73.6958 18H67.0238V1.992H73.2158C74.7998 1.992 75.9678 2.408 76.7198 3.24C77.3758 3.96 77.7038 4.96 77.7038 6.24C77.7038 6.944 77.5518 7.6 77.2478 8.208C76.9278 8.8 76.4958 9.216 75.9518 9.456C76.8478 9.552 77.5758 9.872 78.1358 10.416C78.8558 11.104 79.2158 12.08 79.2158 13.344C79.2158 14.656 78.8238 15.704 78.0398 16.488C77.0638 17.496 75.6158 18 73.6958 18ZM71.1758 5.184V8.304H71.9438C72.6798 8.304 73.2078 8.136 73.5278 7.8C73.7838 7.544 73.9118 7.192 73.9118 6.744C73.9118 6.312 73.7838 5.952 73.5278 5.664C73.2078 5.344 72.6798 5.184 71.9438 5.184H71.1758ZM71.1758 11.4V14.76H72.1118C73.4558 14.76 74.3118 14.544 74.6798 14.112C74.9038 13.856 75.0158 13.512 75.0158 13.08C75.0158 12.584 74.8798 12.2 74.6078 11.928C74.2558 11.576 73.3998 11.4 72.0398 11.4H71.1758ZM89.8037 8.304V7.272H93.6437V18H89.8037V16.824C89.0677 17.848 87.9557 18.36 86.4677 18.36C84.9637 18.36 83.6757 17.792 82.6037 16.656C81.5797 15.568 81.0677 14.256 81.0677 12.72C81.0677 10.96 81.6197 9.528 82.7237 8.424C83.7317 7.416 85.0197 6.912 86.5877 6.912C87.8997 6.912 88.9717 7.376 89.8037 8.304ZM87.4517 10.176C86.8117 10.176 86.2517 10.408 85.7717 10.872C85.2597 11.368 85.0037 11.952 85.0037 12.624C85.0037 13.328 85.2517 13.912 85.7477 14.376C86.2597 14.856 86.8357 15.096 87.4757 15.096C88.1317 15.096 88.7077 14.848 89.2037 14.352C89.6837 13.872 89.9237 13.296 89.9237 12.624C89.9237 11.936 89.6757 11.352 89.1797 10.872C88.6837 10.408 88.1077 10.176 87.4517 10.176ZM96.2888 18V7.272H100.129V8.616C100.929 7.56 102.065 7.032 103.537 7.032C104.881 7.032 105.937 7.416 106.705 8.184C107.121 8.6 107.393 9.032 107.521 9.48C107.649 9.928 107.713 10.496 107.713 11.184V18H103.873V12.576C103.873 11.52 103.713 10.824 103.393 10.488C103.105 10.184 102.697 10.032 102.169 10.032C101.593 10.032 101.121 10.2 100.753 10.536C100.337 10.92 100.129 11.488 100.129 12.24V18H96.2888ZM110.328 0.503999H114.168V11.136L117.792 7.272H123L117.936 12.216L123.408 18H118.08L114.168 13.608V18H110.328V0.503999Z" fill="#2F69D0"/>
</svg>
